<mxfile host="app.diagrams.net" agent="Mozilla/5.0 (Windows NT 10.0; Win64; x64) AppleWebKit/537.36 (KHTML, like Gecko) Chrome/129.0.0.0 Safari/537.36" version="24.7.17">
  <diagram name="Page-1" id="VSbFQkZnl0DqEXfNKjCE">
    <mxGraphModel dx="1964" dy="600" grid="1" gridSize="10" guides="1" tooltips="1" connect="1" arrows="1" fold="1" page="1" pageScale="1" pageWidth="850" pageHeight="1100" math="0" shadow="0">
      <root>
        <mxCell id="0" />
        <mxCell id="1" parent="0" />
        <mxCell id="_8uUYV_uJvbB6x_7DmFW-1" value="" style="shape=image;verticalLabelPosition=bottom;labelBackgroundColor=default;verticalAlign=top;aspect=fixed;imageAspect=0;image=data:image/png,iVBORw0KGgoAAAANSUhEUgAABE8AAAHKCAYAAADy52XbAAAAAXNSR0IArs4c6QAAAARnQU1BAACxjwv8YQUAAAAJcEhZcwAADsMAAA7DAcdvqGQAABsISURBVHhe7d0vrCTJfQfwfUesKMQmkaLQsDuF7Bk4ugeetA7yMhuGhoQcsVl0twpzyJGQ0ECbnVG80gPvFJM7Ep2ZaRQpxCZRZOLN1nhqU253f3um51/1zOcjtXq6q6t6Zn/V926+mpm+e/PWMwBgde7u7p599NFH263fe3p6enZ/f7/d+n9lfzFsa4+f6jsn9Ru21edR7XO+OtbY+eq4abyxflOGx7bbc+N88cUXz/zvFQBcl/e2awDgipU3+2WpIcOl1Oex7/OpgcXU8fuOd6hL/zsCAOclPAGAG9IGDO16uG9X5fgy5pjUttRcSDLVdszn0j6HugAA1014AgA3qoYAdan7hqbCgRRIpLY5xw4jDnkuxdTzKWMeMi4AsB5+8wQAVqr9zZOxN/j1jf2wbeoN/1TIMLZ/n/MVuz6X2j71PKq2PY2ZnksyPFfZrv3S+Qq/eQIA10d4AgArNfaDsafQBgfME54AwPXxtR0AAACAQHgCAEzyqRMAAOEJABAITgAA/OYJAKxW+c0T+uR/rwDgughPAGClpu7+AgDAcfnaDgAAAEAgPAEAAAAIhCcAAAAAgfAEAAAAIBCeAAAAAATCEwAAAIBAeAIAAAAQCE8AAAAAAuEJAAAAQCA8AQAAAAiEJwAAAACB8AQAAAAgEJ4AAAAABMITAAAAgEB4AgAAABAITwAAAAAC4QkAAABAIDwBAAAACIQnAAAAAIHwBAAAACAQngAAAAAEwpM9vffee5tlqO4fa09tc1K/pW1J6re0jduxy/wYa69S25g05tK2JPVb2sbt2GV+jLVXqW1obsylbUnqt7SN27HL/Bhrr1JbMtYvnS+1Janf0jZuxy7zY6y9Sm1j0phL25LUb2kbt2OX+THWXqW2ITNtT7/73e+2j/5Q2V+XodSWlEJO9Vvalpz7fFyfqTlQ50eaI2Ue7ePc8/Xc5+P6TM2BOj/SHCnzaB9pzFPM16VjLj0f12dqDtT5keZImUdLjPU7xXxdOubS83F9puZAnR9pjpR5tI923g3HPcV8XTrm0vNxfabmQJ0faY6UebSPZX9tbsjd3d32Ub/KhJgqfGpLlo65z/mGx41t14U+Hev6KDUuc2epc8zX1jnONzxubLsu9KmX6yM51nxtLR1zn/MNjxvbrgt9uvT1sUu/Y83X1tIx9znf8Lix7brQJ38//tixzjc8bmy7LvTpkteHWXFE9UIbK0Jqm7LLfwhS+1zfKUvHXHq+MWWs8vrrwvqVmta6tsb27SPNu6VtybnPN6aM5fq4LqWmta6tsX3HkuZkakuWjrn0fGPKWK6P61JqWuvaGtu3i136lWOmpLZk6ZhLzzemjFWvjSX/dvSn1LTWtTW2bx913DFT+4vUliwdc+n5xpSxXB/XpdS01rU1tm8Xx5ttvLvQxi7i1DalFjX1Ke1TUluydMyl55uyz78V/SvzoyzHruu55+u5zzfF9XFdyvwoyznreor5unTMpeeb4vq4LmV+lMX1cRyuj+tS5kdZjlnXMlYaN83J1JYsHXPp+aa4Pq5LmR9lOVZdzY4TSAVaUrxjF30N2tdcF65DO5fb9XAf01wf1+vY10c5vox5S1wf1+sY18fSftfC9XG9jnF9VGWsW+T6uF7Huj7MiE7sWrAxpe/Uf+Sm2ubOt2TMIrUlU8+njLVkPNah1ret81i9zz1fz32+OVPPp4y1ZDzWoda3rfM+9d5lvi2Zr1PzsVoyZpHakqnnU8ZaMh7rUOvb1nms3sP5sWu/Ysl8nZqP1ZIxi9SWTD2fMtaS8ViHWt+2zmP1npuvyZL5One+JWMWqS2Zej5lrCXjsQ61vm2dx+o9Nj+WXzE3qPwD1n/E9nFRt+vSFiC1JeW4qX5t21BqK6b2Lx1z7nxJ7VfGaNX9U+30p9Zq+Lio23U5Rj2XzsnUVkztP9X5ktqvjNGq+6fa6U+t1fBxUbfrcox61vHbcatD5uvU/qVjzp0vqf3KGK26f6qd/tRaDR8Xdbsup67nIfN1av/SMefOl9R+ZYxW3T/VTn9qrYaPi7pdl2PUs513wzHbtqHUVkztXzrm3PmS2q+M0ar7p9rpT63V8HFRt+tyjHrevXlr+5gR5dd8z/FPdKyCwjm5PmDaOa6P+/v7zfrp6WmzhrXw9wOmuT5g2iWvj/2jOgAAAIAbcrLwpCRC7Ebqe3tcH7tzfdwe1wdMc33szt+P2+P62J3r4/a4PnY3dX345EkH/IcLprk+AFjC3w+Y5vqAaVPXh/AEAAAAIBCe3Ihr+ZiWj5txCq4PmOb6gGmuD5jm+uDavAtPdp0Ux548xz6v13EYr2Oc13EYr2Oc13EYr2Oc13EYr2Oc13EYr2Oc13EYr2Oc13EYr2NcOc4nTwAAAAAC4QkAAABAIDwBAAAACMoXfN78/iEAsCYfffTRZv3FF19s1gAAnMbdm7e2jxnx+Pj47OHhYbvFpalHX9SjL+rRl3PU4/7+frN+enrarJnm+uiLevRFPfqiHn1Rj75csh6+tgMAAAAQCE8AAAAAAuEJAAAAQCA8AQAAAAiEJwAAAACB8AQAAAAgEJ4AAAAABMITAAAAgEB4AgAAABAITwAAAAAC4QkAAABAIDwBAAAACIQnAAAAAIHwBAAAACAQngAAAAAEwhMAAACAQHgCAAAAEAhPAAAAAALhCQAAAEAgPAEAAAAIhCcAAAAAgfAEAAAAIBCeAAAAAATCEwAAAIBAeAIAAAAQCE8AAAAAAuEJAAAAQCA8AQAAAAiEJwAAAACB8AQAAAAgEJ4AAAAABMITAAAAgEB4AgAAABAITwAAAAAC4QkAAABAIDwBAAAACIQnAAAAAIHwBAAAACAQngAAAAAEwhMAAACAQHgCAAAAEAhPAAAAAALhCQAAAEAgPAEAAAAI7t68tX3MiMfHx2cPDw/bLS5NPfqiHn1Rj76cox739/eb9dPT02Z9C169erV9BAx98skn20f78fejL+rRF/XoyyXrITyZ4WLpi3r0RT36oh59OUc9bjU8+e5n/7LdAqqff/x3wpMroR59UY++XLIevrYDAAAAEAhPAAA68Ne//s93S2u4XYztS8bGLabGqce3y6FOMeacc5wDgNsgPAEA6MC/f+svNsspLBm79lnSd8opxgSAcxCeAACc0SGfvJjqMzXm1P6i7kvHTEl92rax9jHD48a2x8ar27u0jbWP7QeAMcITAIAzKW/U9/3kRTlu7g1+O2Z7bN03pu6vxwyPq8HC8Nxlu+0zbC/a9tbUmK06flW36zLs27a3bWW7rutSDccEgDl3H3/6mbvtAMAKffn6p5v1hy++v1nfgm8++82q77ZT37QnY8cMQ4FdjmlNnXff/cWwbW672nXMsfGG0rFpu6pjjrWtVbnbzm/eXiEAnIZbFc9wa6q+qEdf1KMv6tGXc9TDrYrXZ+rNfGvsmPbN/vCN/9j2WP/hvmLf/cWwbW67SmMWtX3X8Yq5Y1PforRX6bg1cKvi66EefVGPvlyyHr62AwCwcmt/41/NhR3HVs51Lf92AJyW8AQA4EzKG/USENRlylh7+yZ/+IZ/lzHH7Pp8WsM+w+eStP3K0poaZ8lzrKb6tvvKss9rAOA2CU8AAM6ovFGvy5ix9qnHRXt8XYbG9lVj/dLxxVifaqpv26cuQ2P7iqk+c9vFWN92X7sfAKYITwAAAAAC4QkAAABAIDwBAAAACNyqeIZbU/VFPfqiHn1Rj76cox63eqtiYNwnblV8FdSjL+rRl0vWQ3gyw8XSF/Xoi3r0RT36co563GJ4spTroy/q0Rf16It69EU9+nLJevjaDgAAAEAgPAEAAAAIhCcAAAAAgfAEAAAAILj79NNP/WAsABxRuePFOX7QzA/G7s4P/vVFPfqyaz3c7QqOY+mdsbjs34+7l5+/FJ4AwJE8/+q58KRD3qz3RT36sk948pOf/M92C1jiBz/4U+HJAS7598PXdgAAAAAC4Qk0Pn/5+btlqG2bOqZnY8+/LIc6xhgAAOfy9dc/frcMtW1Tx/Ru+JyP8Rraf48l46W+qQ16IjyBxsvPX26WKbV97rgeDZ/3Gl8DAMChPvjgR5tlSm2fO24NjhlItP8mS8ZN/56pDXohPOEmHfOTF0UdZ2rMdn/bPjx2bLsuraX95qR+qa011w4AcA7H/kRDHWdqzHZ/2z48dmy7Lq2l/YqxfdVUv3b/sC0ZG6dqx2ofF6mtqPuG+4u2bawdTkF4ws0pb+6Hn8LYVQoQ2nHb9qn9c9p++/Rd2q+Y6jccc0o9DgDgksob6vpphn0/0ZDelLfjtu1T++e0/fbpu0u/esxQ6pfaynZdSvsu6ljDx0Vqq+eoy/C5FG07nIO77XBzdnmDP3ZM6jdsa7cPaRs6tF817N9q+w/HHOtTx0pjwi0pd9v5zbNvbrdO68vXP92sP3zx/c0a4JS++fa/bmu5284ub/DHjkn9hm3t9iFtQ8foV5V9w3GK4THF8Lh2e/i42KVfNbavmjp+aO4ca1HutnOu/0/guIQn3Jxd3uSPHZP6Ddva7WO1tZb2q8aOKfuKNE49pmiPK8r2WB+4NW5V3Ce3xu2LevTlGm9VvMub66k37VP9hm3t9rHaWof2G65rWzE2Tvu4OEZbNbav2vf4Yq69Z25VfBi3Kgb+IJjYx9J+Y+aCj9I+dozABABgXnnTv8SSflPhwilDh6WvD9ZAeMLNKW/0S+BQlylj7W2/YduUufPV/cMA4lT9kql+7f6yDM9Z1XMDAFxSCQjKG/m6TBlrb/sN26bMna/uHwYXp+qXpH5t2/Ccu7QN9y91yOuDU/G1HTizFD4A6+drO33yNZG+qEdfrvFrO5d2zCDhXNb4nNfI13YO42s7AAAAAJ0SngAAAAAEwhM4M1/ZAQC4bmv8+ouv7EB29+mnn/rNEwA4Ir950h+/sdEX9ejLPr95AhzOb54sd8m/H3dv3to+ZoQ/7n1Rj76oR1/Uoy/nqIfwZHeuj76oR1/Uoy/q0Rf16Msl6+FrOwAAAACB8AQAAAAgEJ4AAAAABMITAAAAgEB4AgAAABAITwAAAAAC4QkAAABAIDwBAAAACIQnAAAAAIHwBAAAACAQngAAAAAEwhMAAACAQHgCAAAAEAhPAAAAAALhCQAAAEAgPAEAAAAIhCcAAAAAgfAEAAAAIBCeAAAAAATCEwAAAIBAeAIAAAAQCE8AAAAAAuEJAAAAQCA8AQAAAAiEJwAAAACB8AQAAAAgEJ4AAAAABMITAAAAgEB4AgAAABAITwAAAAAC4QkAAABAIDwBAAAACIQnAAAAAIHwBAAAACAQngAAAAAEwhMAAACAQHgCAAAAEAhPAAAAAALhCQAAAEAgPAEAAAAIhCcAAAAAgfAEAAAAIBCeAAAAAATCEwAAAIBAeAIAAHBD7u7uVrvApQhPAAAAbsybN29Wt8AlCU8AAABu0NgnO3pd4NLu3ojwosfHx2cPDw/bLS5NPfqiHn1Rj76cox739/eb9dPT02bNNNdHX9SjL+rRl3PUo4QR5W1gWb///g+3e/v1y1/+07vne+63r66PvlyyHj55AgAAABAITwAAAG7U11//eLPUx0O1fdg2tw3XRngCAADAHymByAcf/GizJPU4uGbCEwAAgBu2S/BRjmk/XTLchmt39/77P/SDsQCwQt/61i8261//+jubNQDsovwAa/mh2PpDrDU8GX6CpG4P162xfcfWPt81/MAt18knTwAAAG5UG3xMhSBT+0twArfCrYpnuDVVX9SjL+rRF/Xoyznq4VbFu3N99EU9+qIefTlHPXa9VfHwUyVT26f+9IlbFVNdsh4+eQIAAEA0F6SMKcdMWdoGlyI8AQAA4I/UT5XMhRn1uNbScGTuXHApwhMAAABGlWCkLq1dtof7qqVtcEnCEwAAAIBAeAIAAAAQCE8AAAAAArcqnuHWVH1Rj76oR1/Uoy/nqIdbFe/O9dEX9eiLevTlHPVob1W8Fm5VTHHJevjkCQAAwA0qQcRaFrg04QkAAMCNKZ/iWNsClyQ8AQAAuCFjn+xYywKXIjwBAAAACIQnAAAAAIHwBAAAACAQngAAAAAEwhMAAACAQHgCAAAAEAhPAAAAAALhCQAAAEAgPAEAAAAIhCcAAAAAgfAEAAAAIBCeAAAAAATCEwAAAIBAeAIAAAAQCE8AAAAAAuEJAAAAQCA8AQAAAAiEJwAAAACB8AQAAAAgEJ4AAAAABMITAAAAgEB4AgAAABAITwAAAAAC4QkAAABAIDwBAAAACIQnAAAAAIHwBAAAACAQngAAAAAEwhMAAACAQHgCAAAAENy9+va332wfAwAr8vNvfGOz/u5vf7tZAwBwGndv3to+ZsTj4+Ozh4eH7RaXph59UY++qEdfzlGP+/v7zfrp6WmzZprroy/q0Rf16It69EU9+nLJevjaDgAAAEAgPAEAAAAIhCcAAAAAgfAEAAAAIBCeAAAAAATCEwAAAIBAeAIAAAAQCE8AAAAAAuEJAAAAQCA8AQAAAAiEJwAAAACB8AQAAAAguHvz1vYxIx4fH589PDxst7g09ejL0nq8evVq+wg4xOvXrzfrFy9ebNawBp988om/551Rj76oR1/Uoy+XrIfwZIaLpS/q0Zel9Sjhyeff+952C1jqTz7+eLP+388+26yhdy9/9jPhSYfUoy/q0Rf16Msl6+FrOwAAAACB8AQAzuCrDz/cLAAArI/wBADO4PmXX24fAQCwNsITAAAAgEB4AgAAABDcPf/yS3fbAc6q3G3B3Xa4ReU3T4759R1322Ft/PcfgLVyq+IZbk3VF/Xoy9J6uFUxt0p4wq1zq+I+qUdf1KMv6tGXS9bD13YAAAAAAuEJAJxYe5vi9jEAAOsgPAGAEytf1RkuAACsh/AEAAAAIBCeAAAAAATCEwAAAIDArYpnuDVVX9SjL0vrUW5VDBzu9evXm/WLFy82a1gDtyruj3r0RT36oh59uWQ9hCczXCx9UY++qEdf1KMv56jH/f39Zv309LRZM8310Rf16It69EU9+qIefblkPXxtBwAAACAQngAAAAAEwhMAAACAQHgCAAAAEPjB2Bl+IKgv6tGXpfVwtx04DnfbYY3cbac/6tEX9eiLevTlkvUQnsxwsfRFPfqytB4lPPnX//7OdgtY6s//4x836//6q3/YrKF3f/tnvxCedEg9+qIefVGPvlyyHr62AwAAABAITwDggn71z3/zbhkztR8AgPMRngDABf3l3//bZgEAoF/CEwDYUfspkbpUc22t4faUelwdb9d+AAAcl/AEAPZQPyUy9mmR1LZEO15dAAA4v7uXn790tx3grJ5/9dzddlil8smPEmAM17u2VcPtYmxfMbW/cLcd1qbcbeer519ttwBgPdyqeIZbU/VFPfqytB5uVcxa1SBjuN61rRpuF2P7iqn9hfCEtXGr4j6pR1/Uoy/q0ZdL1sPXdgDgjEoYAgDAughPAOAMSmiSPkVS1GNa5fi6f9gGAMB5CE8AYEc1+Biui7m2utTtoeExrdQGAMDpCU8AAAAAAuEJAAAAQCA8AQAAAAjcqniGW1P1RT36srQe5VbFwOFev369Wb948WKzhjVwq+L+qEdf1KMv6tGXS9ZDeDLDxdIX9eiLevRFPfpyjnrc399v1k9PT5s101wffVGPvqhHX9SjL+rRl0vWw9d2AAAAAALhCQAAAEAgPAEAAAAIhCcAAAAAgfAEAAAAIBCeAAAAAATCEwAAAIBAeAIAAAAQCE8AAAAAAuEJAAAAQCA8AQAAAAiEJwAAAACB8AQAAAAgEJ4AAAAABMITAAAAgEB4AgAAABAITwAAAAAC4QkAAABAIDwBAAAACIQnAAAAAIHwBAAAACAQngAAAAAEwhMAAACAQHgCAAAAEAhPAAAAAALhCQAAAEAgPAEAAAAIhCcAAAAAgfAEAAAAIBCeAAAAAATCEwAAAIBAeAIAAAAQCE8AAAAAAuEJAAAAQCA8AQAAAAiEJwAAAACB8AQAAAAgEJ4AAAAABMITAAAAgEB4AgAAABAITwAAAAAC4QkAAABAIDwBAAAACIQnAAAAAIHwBAAAACAQngAAAAAEwhMAAACAQHgCAAAAEAhPAAAAAALhCQAAAEAgPAEAAAAIhCcAAAAAgfAEAAAAIBCeAAAAAATCEwAAAIBAeAIAAAAQCE8AAAAAAuEJAAAAQCA8AQAAAAiEJwAAAACB8AQAAAAgEJ4AAAAABMITAAAAgEB4AgAAABAITwAAAAAC4QkAAABAIDwBAAAACIQnAAAAAIHwBAAAACAQngAAAAAEwhMAAACAQHgCAAAAEAhPAAAAAALhCQAAAEAgPAEAAAAIhCcAAAAAgfAEAAAAIBCeAAAAAATCEwAAAIBAeAIAAAAQCE8AAAAAAuEJAAAAQCA8AQAAAAiEJwAAAACB8AQAAAAgEJ4AAAAABMITAAAAgEB4AgAAABAITwAAAAAC4QkAAABAIDwBAAAACIQnAAAAAIHwBAAAACAQngAAAAAEwhMAAACAQHgCAAAAEAhPAAAAAALhCQAAAEAgPAEAAAAIhCcAAAAAgfAEAAAAIBCeAAAAAATCEwAAAIBAeAIAAAAQCE8AAAAAAuEJAAAAQCA8AQAAAAiEJwAAAACB8AQAAAAgEJ4AAAAABMITAAAAgEB4AgAAABAITwAAAAAC4QkAAABAIDwBAAAACIQnAAAAAIHwBAAAACAQngAAAAAEwhMAAACAQHgCAAAAEAhPAAAAAALhCQAAAEAgPAEAAAAIhCcAAAAAgfAEAAAAIBCeAAAAAATCEwAAAIBAeAIAAAAQCE8AAAAAAuEJAAAAQCA8AQAAAAiEJwAAAACB8AQAAAAgEJ4AAAAABMITAAAAgEB4AgAAABAITwAAAAAC4QkAAABAIDwBAAAACIQnAAAAAIHwBAAAACAQngAAAAAEwhMAAACAQHgCAAAAEAhPAAAAAALhCQAAAEAgPAEAAAAIhCcAAAAAgfAEAAAAIBCeAAAAAATCEwAAAIBAeAIAAAAQCE8AAAAAAuEJAAAAQCA8AQAAAAiEJwAAAACB8AQAAAAgEJ4AAAAABMITAAAAgEB4AgAAABAITwAAAAAC4QkAAABAIDwBAAAACIQnAAAAAIHwBAAAACAQngAAAAAEwhMAAACAQHgCAAAAEAhPAAAAAALhCQAAAEAgPAEAAAAIhCcAAAAAgfAEAAAAIBCeAAAAAATCEwAAAIBAeAIAAAAQCE8AAAAAJj179n8LOXbM0rwPugAAAABJRU5ErkJggg==;" vertex="1" parent="1">
          <mxGeometry x="-240" y="80" width="1173" height="487.07" as="geometry" />
        </mxCell>
        <mxCell id="_8uUYV_uJvbB6x_7DmFW-2" value="&lt;b&gt;During this period, the task is being submitted to the command queue&amp;nbsp;&lt;/b&gt;&lt;div&gt;&lt;b&gt;but has not yet started executing.&lt;/b&gt;&lt;/div&gt;" style="text;whiteSpace=wrap;html=1;" vertex="1" parent="1">
          <mxGeometry x="-210" y="160" width="420" height="50" as="geometry" />
        </mxCell>
        <mxCell id="_8uUYV_uJvbB6x_7DmFW-3" value="&lt;b&gt;a blocking operation to ensure that tasks like the previous kernel execution (or other tasks)&amp;nbsp;&lt;/b&gt;&lt;div&gt;&lt;b&gt;have finished before moving on to the next stage.&lt;/b&gt;&lt;/div&gt;" style="text;whiteSpace=wrap;html=1;" vertex="1" parent="1">
          <mxGeometry x="290" y="210" width="300" height="50" as="geometry" />
        </mxCell>
        <mxCell id="_8uUYV_uJvbB6x_7DmFW-4" value="&lt;b&gt;mapping a buffer from device memory to host memory&lt;/b&gt;" style="text;whiteSpace=wrap;html=1;" vertex="1" parent="1">
          <mxGeometry x="590" y="165" width="320" height="40" as="geometry" />
        </mxCell>
        <mxCell id="_8uUYV_uJvbB6x_7DmFW-5" value="&lt;div style=&quot;text-align: left;&quot;&gt;&lt;span style=&quot;background-color: initial;&quot;&gt;&lt;b&gt;Computations of multiplication on matrix&lt;/b&gt;&lt;/span&gt;&lt;/div&gt;" style="text;html=1;align=center;verticalAlign=middle;whiteSpace=wrap;rounded=0;" vertex="1" parent="1">
          <mxGeometry x="200" y="390" width="160" height="30" as="geometry" />
        </mxCell>
        <mxCell id="_8uUYV_uJvbB6x_7DmFW-6" value="&lt;b&gt;transferring the data from device to host&lt;/b&gt;" style="text;html=1;align=center;verticalAlign=middle;whiteSpace=wrap;rounded=0;" vertex="1" parent="1">
          <mxGeometry x="670" y="290" width="130" height="30" as="geometry" />
        </mxCell>
        <mxCell id="_8uUYV_uJvbB6x_7DmFW-7" value="" style="shape=image;verticalLabelPosition=bottom;labelBackgroundColor=default;verticalAlign=top;aspect=fixed;imageAspect=0;image=data:image/png,iVBORw0KGgoAAAANSUhEUgAAA1wAAAE6CAYAAAAC11OqAAAAAXNSR0IArs4c6QAAAARnQU1BAACxjwv8YQUAAAAJcEhZcwAADsMAAA7DAcdvqGQAABP4SURBVHhe7d2xjiPJeQdwziWCM13sR1Bo6QAbx2CAVXRQpmdwfInhTKtVpuxiP4My4yItMAEPNnC413B8lxlKbry1Zmlra7uqmz38yCL79wMaw+6vq5pkVQ31v+G2Hp7f2QEAAJ/Y7/e7w+Fw3IPTfXb8CQAAwJkJXAAAAEEELgAAgCACFwAAQBCBCwAAIIjABQAAEETgAgAACCJwAQAABLl44Prss8/eb7V8fKpe1+p6T6/N2lpPr93aGtuxZH7U9bpW13t6bdbWenrt1tbYjiXzY65+il67tbWeXru1NbZjyfyYqy9Vtplqt7bW02u3tsZ2LJkfc/U1cruLz76ff/75+Ohj6XjeanVt6pwp6UXWbbOyVuvVetb2ufZ63J/WHMjzY6pe16bOmXLp+Xrp63F/WnMgz4+p+q3M10tfj/vTmgN5fkzV186ftX2uvd7aPtdej/vTmgN5fkzVXzp/UvssPHA9PDwcH40rvZHlm1Lq1XrW9nnK9erzpvbzxpisj09ZH2SjrI9LzNfSJa5Xnze1nzfG5PPjU1Hro5bqeWNM114faW6kOZcNNVPy5C2fYKlX68n9TmkdT3q1nrV9rr3elNRXeq/yxu1LY5rHdUqvNiWdOzfnevW5ti1r+1x7vSmpr7w2TnnPGFca0zyupSXzvKfXdm2t59LXm5L6sj7uSxrTPK6ll66Pnl6/a6+5ts9zvsbUl/VxX9KY5nEtrV0fU32dbwaeQZ68a15cS37RrX7rN6TUq/Ws7XPt9VrO+T5yfWl+pO1c45rXRq+/iPm6ts+112uxPu5Lmh9pq8d1yTzvWTsne7WeS1+vxfq4L2l+pO3c66MnYr6u7XPt9Vqsj/uS5kfaItfHkDPmXC8uOfciuxXl5Mkb9+Gc6yMp58pWWB/3qzWXtzjP17I+7te510c6P7XbkvK9yhv3obUGyjGfk88p58b7x+8f3YElb0JLapveyCmt2tz11vSZ9Go9reeT+lrTH/dlbr72rJmvc9db02fSq/W0nk/qa01/3JdLz9dLX29O6/mkvtb0x31pzY8l823NfG1dL1vTZ9Kr9bSeT+prTX/cl3p+5HlRzo/0sz+rzyw9qfzEysdJ3s9bfpLZ1LE5719go8+yVuvVktbxtX3OXa8nt0t9lPLxVp3x5LGqHyd5P29T433qGJfzrm5f1mq9WtI6vrbPuev15Hapj1I+3qoznjxW9eMk7+etHM9y/tS1nrJdbW0taR2Pul5Pbpf6KOXjrTrjyWNVP07yft7K8SznT13rSefmn3nLyj5rvVrSOr62z7nr9eR2qY9SPt6qM548VvXjJO/nrRzPcv7UtVM9PL9zfBwi3SUk+BLvvfSNgGuwPqDN+oA26+Ny9vv97nA4HPe4BaOtj9MjPwAAAIvcReDyX1+2J/2XC5axPrbH+ljO+tge62M562N7rI/lTlkfdxG4/DKANusD2qwPaLM+oO2U9eErhQAAAEEEroXu5U+s/lRMBOsD2qwPaLM+2IJPAtfSCXPuiXXu63odL+N1TPM6XsbrmOZ1vIzXMc3reBmvY5rX8TJex7R7fx3+wgUAABBE4AIAAAgicAEAAARJXzSM/79hBgCAG/Tll1/uvvvuu+MenO7h+Z3j4xBPT0+7x8fH4x7XZjzGYjzGYjzGYjzGYjzGYjwuZ7/f7w6Hw3FvmvEYy2jj4SuFAAAAQQQuAACAIAIXAABAEIELAAAgiMAFAAAQROACAAAIInABAAAEEbgAAACCCFwAAABBBC4AAIAgAhcAAEAQgQsAACCIwAUAABBE4AIAAAgicAEAAAQRuAAAAIIIXAAAAEEELgAAgCACFwAAQBCBCwAAIIjABQAAEETgAgAACCJwAQAABBG4AAAAgghcAAAAQQQuAACAIAIXAABAEIELAAAgiMAFAAAQROACAAAIInABAAAEEbgAAACCCFwAAABBBC4AAIAgAhcAAEAQgQsAACCIwAUAABBE4AIAAAgicAEAAAQRuAAAAIIIXAAAAEEELgAAgCACFwAAQBCBCwAAIMjD8zvHxyGenp52j4+Pxz2uzXiMxXiMxXiMxXiMxXiMxXhczn6/3x0Oh+PetDdv3hwfMaLXr18fH12HwLUxxmMsxmMsxmMsxmMsxmMsxuNylgau337zH8c9RvLXr//16oHLVwoBAACCCFwAAHCj/uXH//n7Vitrc+ec6tR2a65xLwQuAAC4Uf/1+T++31pyvXVe6/icte22SOACAIDB5b8onesvRb3+8rGpej5WH8+W1rdE4AIAgIGlgJL/onTqX5VywKlDzlxf5TXLtr12ZZupc1p93ruHr//4TehdCgEA4Fb98PYvu1+/+v1xb9ovdz+F3qUwB5WeqXPO1W5p3+lYMnXNJX1GSHcp/OndCF2T28JvjPEYi/EYi/EYi/EYi/EYi/G4nBFuC78knLQC0Dnandp3qmX5nCV9RnBbeAAA4K6kIHWJMHUrBC4AABhYCi/pL0J5a5mrRyufY9qErv8ncAEAwODyX41aIWaq3jq3NHVOfWzJOUk6Vm6luf17JnABAAAEEbgAAACCCFwAAABB3BZ+Y4zHWIzHWIzHWIzHWIzHWIzH5Sy9LTzjen3l28ILXBtjPMZiPMZiPMZiPMZiPMZiPC5nSeAyHmMZbTx8pRAAACCIwAUAABBE4AIAAAgicAEAAARx04yNufR4uGvPbbvUXX3ME7bq0nfOsta4Z1HryU0zbs9o4yFwbcw1AtfDt98e97glz199ddHAZZ6wNZdcY5m1xr2KXE8C1+0ZbTx8pRAAACCIwMUw/vD993/famWtdc7o6ud8i6/h1vTmS1lrnTO6+jlf8zVEPZfUT95KS/qfavcS5+zrHuT3d+p9KWutc0ZXP+drvoao55L6yVtpSf9T7V7inH3BaAQuhvGnL754v7Xk+tx5kM3NlXI+9c7jNOf6H06pn3J8Tu3XuMaae39zfe48TmN9we0RuLi49Es9b+eQ+2n1WR4v6/W5U/t5K61t15PPnWqXj5UbHzv3e5P7afVZHi/r9blT+3krrW3Xk8+dapePlVtpyfG6lkwdy1rtyuNT9Z5Wm9bxrFdv1fJ+q37Pzv2acz+tPsvjZb0+d2o/b6W17XryuVPt8rFyKy05XteSqWNZq115fKre02rTOp716q1a3m/V4dYJXFxU+iVa/he1U/R+EZf9lvXW8Tllu1Parm2XlG3rdulY+ZMP6vf8FKlt3mplv2W9dXxO2e6UtmvbJWXbul06Vv4s5Tatdq1akq9ZKp/HVLt8ft1uTqvPfGxK77nUtVLeb9XvVe89mZPa5q1W9lvWW8fnlO1Oabu2XVK2rdulY+XPUm7TateqJfmapfJ5TLXL59ft5rT6zMem9J5LXSvl/VYdbt3D13/8JvQuhWzbL3c/fXRHrPwLt2fqnF67ulbuv6RWi243V6t/Rkt3fPrp3QheQj1PTrHk/Zg6p9eurpX7L6nVotvN1eqfpXQsq9tl5X59fquW1X3WP8tatrSWtY7VWn3W5uqnuuQay05da0tec+t9brWra+X+S2q16HZztfpnKR3L6nZZuV+f36pldZ/1z7KWLa1lrWO1Vp+1ufqcyPX0w9u/7H796vfHPTid28JvzLVvC7/kF2rrl3irXV0r989VK12i3VSt/hntkresfsmtqpe8H1Pn9NrVtXL/XLXSJdpN1eqfuZbU59aPk6la/bOsTTml3dJatvRY1qslc/VTXXKNZaeutSWv+aXvc7l/rlrpEu2mavXPXEvqc+vHyVSt/lnWppzSbmktW3os69WSufqcyPXktvC3x23hYUDpF/0aa9udW+95rK3xMrc8p17yP3pe0haWsr6AWyJwcVHpwyJ94OWtZapetqtrLXPXy8frD7GIdnWtbrtWfZ3S2totmRurbKpetqtrLXPXy8fr8Y1oV9fqtmuVfdbK2tLr9V5Dz9zr69Vaes9l7nnO1e/R0tc8VS/b1bWWuevl4+m8UkS7ula3Xavss1bWll6v9xp65l5fr9bSey5zz3OuDrfMVwo35tpfKby29Et86QfH1t3KVwqvbUtz6tZe6+jP9xa+Unht1te4Rnu+vlJIyVcKAQAANkLgAuCupP/ynjbg/KwvOJ3AxaZs5aspXM6W5tStvNb0PPPGbbO+xmN9wen8G66Nuca/4eJ2XfLfcMEWXePfcMG98m+4yEYbD4FrY4zHWIzHWIzHWIzHWIzHWIzH5Qhct2e08fCVQgAAgCACFwAAQBCBCwAAIIjABQAAEETgAgAACCJwAQAABBG4AAAAgghcAAAAQQQuAACAIAIXAABAEIELAAAgiMAFAAAQROACAAAIInABAAAEEbgAAACCCFwAAABBBC4AAIAgAhcAAEAQgQsAACCIwAUAABBE4AIAAAgicAEAAAQRuAAAAIIIXAAAAEEELgAAgCACFwAAQBCBCwAAIIjABQAAEETgAgAACCJwAQAABBG4AAAAgghcAAAAQQQuAACAIAIXAABAEIELAAAgiMAFAAAQROACAAAIInABAAAEEbgAAACCCFwAAABBBC4AAIAgAhcAAEAQgQsAACCIwAUAABBE4AIAAAgicAEAAAQRuAAAAIIIXAAAAEEELgAAgCACFwAAQBCBCwAAIIjABQAAEETgAgAACPLwq1/92/PxMQAAUPj88//e/fjjPx/34HQPz+8cH4d4enraPT4+Hve4NuMxFuMxFuMxFuMxFuMxFuNxOfv9fnc4HI5704zHWEYbD18pBAAACCJwAQAABBG4AAAAgghcAAAAQQQuAACAIAIXAABAEIELAAAgiMAFAAAQROACAAAIInABAAAEEbgAAACCCFwAAABBBC4AAIAgAhcAAEAQgQsAACCIwAUAABBE4AIAAAgicAEAAAQRuAAAAIIIXAAAAEEELgAAgCACFwAAQBCBCwAAIIjABQAAEETgAgAACCJwAQAABBG4AAAAgghcAAAAQQQuAACAIAIXAABAEIELAAAgiMAFAAAQROACAAAI8vD8zvFxiKenp93j4+Nxj2szHmMxHh+8efPm+Gh7Xr9+fXxEyfo4zRbX0JbXjvVxPnNr5+3bt7tXr14d98bkc+Rjo60PgWtjjMdYjMcH6QPv4dtvj3vb8fzVVz4oG6yP02xtDW197Vgf5zO3dv76i1/sfvu3vx33xuNz5FOjrQ9fKQQAAAgicAFD+sP337/f8uNarte13n7Zpj4v6dXglpTzeGo+53pd6+2Xberzkl4Nbkk5j6fmc67Xtbl9tkvgAm5O+hD70xdfvN968nlZbjPVruxzqg73wvqB9dauH7ZN4AKGteTDKp2TPtiyeh+2yvqB9awfzkngAm5W64Mtf+gt+cCspXY+MNkC6wfWi1g/3K+HN7/5TehdCgGWSHdZWnqHtfrDbGo/6X3gzbWp61FOed3Qs3QuTc393lqYMtemrkewdjiXublU3qVwau731sIlWAvjc1v4jTEeYzEeH5xyS+slH3hpvz6eTR2f6zNK+qB0O99p1sdplq6hubme91trYOr4XJ8Rtr52rI/zOeW28HNzPe9fYg1kPkc+Ndr68JVC4KbNffjVXvIhmNq2rK3BNdXrYW59zNV71q6RXg2uqV4PS9aHdbBNAhdwc9IHWvrwmfsAyudl+XFuW9bKPtNWf2iW59bW1uAarB9Yb+36SdbO9blrMT5fKdwY4zEW4/HBKV8pvCe+CtJmfZxma2vIVwqtj3M55SuFI/I58qnR1oe/cAEAAAQRuAAAAIIIXAAAAEH8G66NMR5jMR4fpO/Qb5Xv3k+zPk6zxTXk33BZH+cwt3bevn27e/Xq1XFvTD5HPjba+hC4NsZ4jMV4jMV4jMV4jMV4jMV4XM5+v98dDofj3jTjMZbRxsNXCgEAAIIIXAAAAEEELgAAgCACFwAAQBCBCwAAIIjABQAAEETgAgAACCJwAQAABBG4AAAAgghcAAAAQQQuAACAIA//9MMPz8fHAABA4R++/nr3v998c9yD0z08v3N8HOLp6Wn3+Ph43OPajMdYjMdYjMdYjMdYjMdYjMfl7Pf73eFwOO5NMx5jGW08fKUQAAAgiMAFAAAQROACAAAIInABAAAEEbgAAACCCFwAAABBBC4AAIAgAhcAAEAQgQsAACCIwAUAABBE4AIAAAgicAEAAAQRuAAAAIIIXAAAAEEELgAAgCACFwAAQBCBCwAAIIjABQAAEETgAgAACPLwu//83fPxMQAAUPjxzz/uPv/3z497cLqH53eOj0M8PT3tHh8fj3tcm/EYi/EYi/EYi/EYi/EYi/G4nP1+vzscDse9acZjLKONh68UAgAABBG4AAAAgghcAAAAQQQuAACAIAIXAABAEIELAAAgiMAFAAAQROACAAAIInABAAAEEbgAAACCCFwAAABBBC4AAIAgAhcAAEAQgQsAACCIwAUAABBE4AIAAAgicAEAAAQRuAAAAIIIXAAAAEEELgAAgCACFwAAQBCBCwAAIIjABQAAEETgAgAACCJwAQAABBG4AAAAgghcAAAAQQQuAACAIAIXAABAEIELAAAgiMAFAAAQROACAAAIInABAAAEEbgAAACCCFwAAABBBC4AAIAgAhcAAEAQgQsAACCIwAUAABBE4AIAAAgicAEAAAQRuAAAAIIIXAAAAEEELgAAgCACFwAAQBCBCwAAIIjABQAAEETgAgAACCJwAQAABBG4AAAAgghcAAAAQQQuAACAIAIXAABAEIELAAAgiMAFAAAQROACAAAIInABAAAEEbgAAACCCFwAAABBBC4AAIAgAhcAAEAQgQsAACCIwAUAABBE4AIAAAix2/0fKU8kkaDbU28AAAAASUVORK5CYII=;" vertex="1" parent="1">
          <mxGeometry x="-190" y="740" width="958.6" height="350" as="geometry" />
        </mxCell>
        <mxCell id="_8uUYV_uJvbB6x_7DmFW-8" value="&lt;b&gt;called to unmap the memory buffer, essentially releasing the mapped resources.&lt;/b&gt;" style="text;whiteSpace=wrap;html=1;" vertex="1" parent="1">
          <mxGeometry x="150" y="790" width="240" height="40" as="geometry" />
        </mxCell>
        <mxCell id="_8uUYV_uJvbB6x_7DmFW-9" value="&lt;b&gt;transferring the data from host to deveice&lt;/b&gt;" style="text;html=1;align=center;verticalAlign=middle;whiteSpace=wrap;rounded=0;" vertex="1" parent="1">
          <mxGeometry x="330" y="1010" width="140" height="30" as="geometry" />
        </mxCell>
        <mxCell id="_8uUYV_uJvbB6x_7DmFW-13" value="&lt;b&gt;This indicates the completion of all enqueued commands in the command queue.&lt;/b&gt;" style="text;whiteSpace=wrap;html=1;" vertex="1" parent="1">
          <mxGeometry x="740" y="800" width="230" height="40" as="geometry" />
        </mxCell>
        <mxCell id="_8uUYV_uJvbB6x_7DmFW-14" value="&lt;b&gt;&lt;font color=&quot;#ff1c14&quot;&gt;q.enqueueTask(krnl_mmult, NULL, &amp;amp;event_sp);&lt;/font&gt;&lt;/b&gt;" style="text;html=1;align=center;verticalAlign=middle;whiteSpace=wrap;rounded=0;" vertex="1" parent="1">
          <mxGeometry x="-240" y="230" width="350" height="30" as="geometry" />
        </mxCell>
        <mxCell id="_8uUYV_uJvbB6x_7DmFW-15" value="clWaitForEvents(1, (const cl_event *)&amp;event_sp);" style="text;whiteSpace=wrap;fontStyle=1;fontColor=#FF2F0F;" vertex="1" parent="1">
          <mxGeometry x="300" y="150" width="290" height="40" as="geometry" />
        </mxCell>
        <mxCell id="_8uUYV_uJvbB6x_7DmFW-16" value="matrix_type *out_hw = (matrix_type *)q.enqueueMapBuffer(out_buf_hw, CL_TRUE, CL_MAP_READ, 0, sizeof(matrix_type) * MATRIX_SIZE);" style="text;whiteSpace=wrap;fontStyle=1;fontColor=#FF0808;" vertex="1" parent="1">
          <mxGeometry x="830" y="190" width="560" height="50" as="geometry" />
        </mxCell>
        <mxCell id="_8uUYV_uJvbB6x_7DmFW-18" value="&lt;div&gt;&lt;b&gt;q.enqueueUnmapMemObject(in1_buf, in1);&lt;/b&gt;&lt;/div&gt;&lt;div&gt;&lt;b&gt;&amp;nbsp; &amp;nbsp; q.enqueueUnmapMemObject(in2_buf, in2);&lt;/b&gt;&lt;/div&gt;&lt;div&gt;&lt;b&gt;&amp;nbsp; &amp;nbsp; q.enqueueUnmapMemObject(out_buf_hw, out_hw);&lt;/b&gt;&lt;/div&gt;" style="text;html=1;align=center;verticalAlign=middle;whiteSpace=wrap;rounded=0;fontColor=#FF2B0A;" vertex="1" parent="1">
          <mxGeometry x="90" y="850" width="320" height="90" as="geometry" />
        </mxCell>
        <mxCell id="_8uUYV_uJvbB6x_7DmFW-19" value="&lt;b&gt;&lt;font color=&quot;#ff3112&quot;&gt;q.finish();&lt;/font&gt;&lt;/b&gt;" style="text;html=1;align=center;verticalAlign=middle;whiteSpace=wrap;rounded=0;" vertex="1" parent="1">
          <mxGeometry x="650" y="860" width="60" height="30" as="geometry" />
        </mxCell>
        <mxCell id="_8uUYV_uJvbB6x_7DmFW-20" value="" style="shape=image;verticalLabelPosition=bottom;labelBackgroundColor=default;verticalAlign=top;aspect=fixed;imageAspect=0;image=data:image/png,iVBORw0KGgoAAAANSUhEUgAAA2EAAAHbCAYAAABCwpIFAAAAAXNSR0IArs4c6QAAAARnQU1BAACxjwv8YQUAAAAJcEhZcwAAFxEAABcRAcom8z8AAP+lSURBVHhe7P0JuFzVdt+L6iYv1743ie0k77Nz83Lja+dzrvOev+Q8Pzux4+PesX3s0/dw6HuBaIVoJSRAINGIRnQSICGBQIhWIIRAohNIQnSiE0J9A+roBEIgUMd49Vt7T+1ZU2OMWrVUu3aJPf/fN3ZVjbnmnP8x5n+tWqNq1doDvvzyS8G++OKLwsLrMrZ9+3azj+fX2nbu3Ckff/yxbNmypXget1l9vDZ8Fr+tW7fKBx98sI8/9En9oc2aR/Pv2LFDPv/8c3n//feL52m7N57Fwcu3ZVYfa36vjTiI57PPPtsnpirjeX0s83Lg+bU2dIbe2qE5y0Ifq82aR/NnzTVu8/pY5uXA82ttWXM9fotD1XiseayxrLagOeLKmtu3DV/VNbLarHk0P2vC8aC3NcfYnCt8+OGHat6sHODT/F5bOzXHPFqbt6aeX2sLmuOcrjc1x9isD+uk5c1ab28ezc/YX2fNpW3eePT55JNP1HxrffBZmrP6hDbLr7XFmivLzWvD1w7NDZBu7NmzpxiwGUBm165d3a968NVXX5ljsT39NCByLIXHjfE8DjyWxe7du01u+GlP4cXK9ghCA32IKwU+j4MWqwUvB16s9NFiBcSjcbDWAVgcqmqu2XWAlxXr101z8OovmvO4WRyy5hprTtNIo1g9zVnr4HGw1lWDl4NGmtNiBa3UHBys3Flgnk7QnMdBi9XCgaA5LVZOkjjZSuHlwIuVPp7mNA6M1SrNsS0nqlofKwchVg2doDnWh5PbFN464M+aq6Y5bXuAX8sdfC3Nsb02XohVQyPNUVSm8DRnrYOXb9aHdUrBOBY3/No67HcR1mwCPZJVd1pLLFYCmX/btm3dr3rQKIFVYvV2Wm1B8HkcrFg1eCLyYqWPFisgHo1DlXXoT5qz4HGrEiu8+ovmPG4Wh3ZpDl5WrFU1Z+XHitWCtw74NY00itXTnLUOHgdrXTUEbto8jTSnxQpaqTk4WLmzwDxZc+3VnBZrLsI6Q3OBg8Y7F2Ht1Rx9rAJEyx18cxFma65fFmEIYvny5d2vetAogVVi9XZabUHweRysWDV4IvJipY8WKyAejUOVdehPmrPgcasSK7z6i+Y8bhaHdmkOXlasVTVn5ceK1YK3Dvg1jTSK1dOctQ4eB2tdNQRu2jyNNKfFClqpOThYubPAPFlz7dWcFmsuwjpDc4GDxjsXYe3VHOfO/JwnBeNouYNvLsJszfXLIozrWVevXt39qgeNElglVm+n1RYEn8fBilWDJyIvVvposQLi0ThUWYf+pDkLHrcqscKrv2jO42ZxaJfm4GXFWlVzVn6sWC1464Bf00ijWD3NWevgcbDWVUPgps3TSHNarKCVmoODlTsLzJM1117NabHmIqwzNBc4aLxzEdZeza1atUo++uij7lc9YBwtd/DNRZituX5ZhOHTeDdKYJVYvZ1WWxB8HgcrVg2Bm5YDL1b6aLEC4tE4VFmH/qQ5Cx63KrHCq79ozuNmcWiX5uBlxVpVc1Z+rFgteOuAX9NIo1g9zVnr4HGw1lVD4KbN00hzWqyglZqDg5U7C8yTNddezWmx5iKsMzQXOGi8cxHWXs1x4wltPMbRcgffXITZmhvABFhIYHhdxtiehKR+JoIgj2lbnMDYD0hg+K1W3OZxYyxMa6OPxiEg9cHNmseLVesTxkN8IG2nD3Gl/kaxMqY2nmaN1sGLVeMG2GnT9QPeOsCh2VgtY3trHTpZc5qBRutgxar1AfD6ummOeNL1A9Y6BA7NxmoZ21vrUEVz6O3rprlwcpK2W/nJmvON7a11qKq5cEIct2XNdRnjwSEeD3Byz5UzIN6+0Tp4sXqa0zhY6+BxsGJlW+bR+rC9tQ6dqjkQF2Gxv9E6WLFqfQC8sua6isrUjx2omsNvxURbygG0UnO9+k0YjynYPiQwBckLCYzhcSMoTIPFgTk2bdrU/aoHHrdGsWpg+7DTpqAPcaXA53GwYtVQdR3oo8UKiEfj0GgdrFit3FlotA7NxtouzVnwuDWKVQO8+ovmPG5erFbuLDRaBy1WeFmx9jfNadw6RXOaRkArNQcHK3cWGq2DFiu8rFiz5hprTuPAiWAnfythjcc4Wu7gywmxxrvROmh92qU5j0N8QhzDW4dGsWrImuvChg0bVH6Mo+UOvpbm2N5bB61PI81V+SasiuZYpxTeOuDXYu2XlyNyPevbb7/d/aoHVRLYKFZvp9V2DHweBytWDZ6IvFjpo8UKiEfjUGUd+pPmLHjcqsQKr/6iOY+bxaFdmoOXFWtVzVn5sWK14K0Dfk0jjWL1NGetg8fBWlcNgZs2TyPNabGCVmoODlbuLDBP1lx7NafFeiAUYRYHLXdsW7UI09AuzQUOGu+qRVjWXDXNLV26tPi/XykYR8sdfKsWYRoaaS7/JqwGL4Eeyao7rSUWK4Es0nvvvdf9qgeNElglVm+n1RYEn8fBilWDJyIvVvposQLi0ThUWYf+pDkLHrcqscKrv2jO42ZxaJfm4GXFWlVzVn6sWC1464Bf00ijWD3NWevgcbDWVUPgps3TSHNarKCVmoODlTsLzJM1117NabHmIqwzNBc4aLxzEdZezW3cuHHv5fQxGEfLHXxzEWZrrl8WYRYaJbBKrN5Oqy0IPo+DFasGT0RerPTRYgXEo3Gosg5Zc63XHLz6i+Y8bhaHdmkOXlasVTVn5ceK1YK3Dvg1jTSK1dOctQ4eB2tdNQRu2jyNNKfFClqpOThYubPAPFlz7dWcFmsuwjpDc4GDxjsXYe3VnOVnHC138M1FmK25flmEWeM1SmCVWL2dVlsQfB4HK1YNnoi8WOmjxQqIR+PQynXwUHUdrFjbpTkLHrcqscKrv2jO42ZxaJfm4GXFWlVzVn6sWC1464Bf00ijWD3NWevgcbDWVUPgps3TSHNarKCVmoODlTsLzJM1117NabHmIqwzNBc4aLxzEdZezbGmWh98Wu7gm4swW3MD6BQ6Mmh4XcbYPiQxNpJkjcX2Wh/Iffrpp4XxPG6rMh592DF5jP1BECtXrqzzY14O8IfFiq0RN35/prVZ4zXioMVqmZUDjHmssSxuGPFo/Kx1wNje4mDFapnFrdE6aNzapTnPGq13s7Hi9zSncWvEwVpXzbwcMI81FvNosWJZc13jWRyy5rLmMItb1lyXVeHACR0nqlreekNzWj9rXbFmY2XbDz/8UO1jcWNbbSzM4tYuzTE268M6xX7MygFWJVb8/V1zcOLcmX/WzLl03GbFCt92aY7i6EDT3ACcGESYMLwuYwwaAkjNGovtA5nYCJQEcmtOnsdtHjfG0sbDtD6MzY8KuTGHNo81VrOxMjb+IL60nTZtvEYcrDbLrLx581jciIN4aE9j8rh5HKw2y5hD44Y1GysxoLfe1pxnFjes2ViJAX/WnM/BarOMOTRumDWWxY0YqmquWQ6WMY6Vt2bnIQb8nuZSH9aIg9VmWZV56KPFShxZc9U4WMY4Vt6anYcY8LdacykHxuaTdT60bdU89NFiZfx2aY4TaI2DloNg1lgWN2JAb5zTpfF43JrlwNisD79R0uax8lZlHvxfV82lbYyljUcfbsyxefPmffgxhzYWfktzFrfQpvk9bu3UHOukzaNxw6x5+uXliGzPP5xL4XGrEmuomDXQh/YU+DwOVqwaAjctB16s9NFiBcSjcaiyDv1JcxY8blVihVd/0ZzHzeLQLs3By4q1quas/FixWvDWAb+mkUaxepqz1sHjYK2rhsBNm6eR5rRYQSs1BwcrdxaYJ2uuvZrTYmUsTupSBG7aPF6s9PE0p7UxVqs0x7acQGqwchBi1dAuzXn5Zn04WU7hrQP+rLlqmoObNhccrNxZmmN7b701NNJcuy5H1Mbz1gG/lut8Y44IjRJYJVZvp9UWBJ/HwYpVgyciL1b6aLEC4tE4VFmHrLnWaw5e/UVzHjeLQ7s0By8r1qqas/JjxWrBWwf8mkYaxeppzloHj4O1rhoCN22eRprTYgWt1BwcrNxZYJ6sufZqTouVT6/beUKscWCsVmmObTkh1vpYOQixamiX5gIHjffXrQjrdM1p2wP8Wu7ga2mO7bXxQqwaGmmuXUUY65SCcSxu+LV16JdFGMnTdqZGCawSq7fTaguCz+NgxarBE5EXK320WAHxaByqrEN/0pwFj1uVWOHVXzTncbM4tEtz8LJirao5Kz9WrBa8dcCvaaRRrJ7mrHXwOFjrqiFw0+ZppDktVtBKzcHByp0F5smaa6/mtFhzEdYZmgscNN65CGuv5riE0bqSTMsdfHMRZmuuXxZh/Bgx/7Nmf6fVYgXEo3Gosg79SXMWPG5VYoVXf9Gcx83i0C7NwcuKtarmrPxYsVrw1gG/ppFGsXqas9bB42Ctq4bATZunkea0WEErNQcHK3cWmCdrrr2a02LNRVhnaC5w0HjnIqy9msv/rLmXijBgJd0CE2oEgTUW22sBA5KnJRBY4xGUJTCrDwu1fv367lc98LhVjZUfCmrwcu1xsGK1UGUd6GPFSjwahyrrALw2DVXXwYqVT3S0T3WANV7VWDV43KrECq/+ojmPmxer16ah6jpYsVbVXLMcLHjrYPmBx+1A1ZyFVmoODt5cGpgna87n1mrNabFy4sTd1jRY83ixetyIR+PAWK3UnFVIWDkA1lidoDnWRzsh9tbB8gOPW9acyLvvvqvyYxxrLktzbK/ND6yxPM1RPzSrOWsdgNWH+LViy1sHyz8gFD7cXYYFCa/LGNUgZFI/RY41FtvTT2vja04s9XvcGE/jgNEnVMax4WPM1O9xqxord5HR2uijccDXLAfLArc4B0FsCCLsAKkhriDM2AActH74gj+AT6eY01qHVmgu7AjsmDxPeWHEorWBMA6I29LxAOOwLfNb62DFahnjxOsdDiDMaa1DaNP8rAHjhTFiow9x8TyAOQ9UzdEn1RxvxszZ15qDl9YGwjggbusUzQWNpObFynhhjNjSeABzdormtFgBHFqlOWI5kDTHOGzL/NY69BfNcfL43nvv7eNvteYwOGjHQPrE44GqmmPbTZs2qX3SHDAv6ATNafkOxvrwTUvqZxxvvdFD6g/zpH6MPt75nMattzUXzIuVPlqsGPFoHCxuGPy08dheyx18Lc2xvTZPiDX1Y16s1A9c6Zb64WuNZ8Xq5Zv1IQ+p3+OGX8vbACbA6Myg4XUZgyADp34mssZi+xBYatzGEkv9HjfG0zhgQSypH5/m97hVjTWILzX6EFfqx9csB8sCtzjWqVOnynnnnScXXXSRXHjhhXLxxRcXz3kMhj+0pTZs2LC6ttA37jN8+HC57LLLZO3atcWc1jq0QnOvvPKKnH/++TJy5Mhi/jSWlBsWbwPXCy64YB8/z+Pxhg4dKo8++mgxJ/Nb62DFahnjxOuN/i+//HIZMWJEYWH+lJvVBmfWKLwOlvZhm3HjxhVvXvDtTc3dfffdlTQXc9X6xX2IjUcuM2bOTtJcaOeRPs1obtasWcWcva059ldyGPOODU5BPzFnjO1jzYX2uA+v2Wb8+PFt0Vyzx7m0rZWaI5b91dxLL71UxNNIc4FTaOeRPugN3cXbh/Z4vANNc8QWtg3baJoLfJvVHFrlhCv1a5q76667iuOCFQ+GP44lfh5rLrZ4PB6JmUvCmLNZzbHtxo0b1T5pDl588cU6zQU+ca7xB83FFmsurFEw+sbjobnHHnusmJP5tXXQ8h0sFGGpn3G89dbOv8I8qR+jj3c+p3Grcj7XjOaCebHSR4sVIx6Ng8UN8zhouWNbS3Nsr80TYk39mBcrxxUKsdTvve9bsQYOGu9Waq7jLkes8vU1psHqwzwbNmzoftUDj1vVWEm8Bi/XHgcrVgvpPEcffbSMHTtW7r///uLk+L777tvH8N9zzz1q26RJk2TatGn7+PEFP30POeQQee2114o5vVi9Ng3pOhDLMcccI9OnTzfjgY/GGZsyZUphqZ8+YbwHH3xQTj755OINA1TRnIVUc0uWLJHvfOc7e9dHW4d77723OMlM/RhxskZaG30Y74EHHijydtBBBxUHBdCbmvvFL34h1157bWXNTZ48uaHmyMkPf/hDmTt3bjFnb2qOWI499lhXczG31MpqbtCgQcUJDGANmj3+WEg1t3jxYvn2t79drA+cW605+qI58nbwwQcXb2qgNzXHPNddd12vao6+aO7ZZ58t5rTWgXzvr+auvvpqOe644xpqzmprRnOXXHJJMWdvau7NN9/ce5yDdxXNsUZaW6y5a665ptACJzvA05wWK9/YhGNkijQHHE+vv/76gkNva27evHnFnFU0x4mlhjQHY8aMkeOPP77XNXfSSSfJqFGjijmraI71sX6L5K23BWseuLX6fG5/NRfgxepxIx6NA2NZx2B+yqPxYxxrLktzbK/ND6yx4GXFSv2g/T4QWONZ6wCsPsTPOqXw1sHy5xtzRPC4VY3VEh99NJHj8zhYsWoI3EIOeDz77LOLCr4qrFhTXHXVVcWnt8Bah1Zo7oorrijedKsCXhq3FHw6zCe3oIrmLKSa41uW008/vftVNZTJKZ8WnXHGGcUj6C3NAYpkPqGqirIa4eTxySefLJ5b69AKzfFNJScRVQGvMhrhm1fmAqyBdvwBVqwWUs3xiXc7NIcGBg8eXBx/QW9pjkc0F+apgrIaoUh+6qmniufWOpDvsuMFpJrj2MPJa1XAS+OWYubMmcUxFfSm5l544YXi+LM/KJNTbiCA5sJ7nqc5LVYu++PT7RTEHueA4wofcLbjvZVvkp555pniubUOlubYFo5anzQHFEYUs1XBHNo8KR555BG58sori+eW5hjHipX1yTfmsGOljxYrIB6NA2NZx+B8Y45eujGHR9JCI/IaPJLtKsLYYbWDZaMEVom104qws846a+9NSax56KPFCohH45CuAycNL7/8cvHcWodWaI5P6/gUHlhjeetaVnN8YteOImzRokVyyimnFM/TWAPCumqAVxnNvfPOO3Laaaf1+gkx4IR43bp1xXNrHvo0q7mUG5fFNDohboXmOGHgU2tgjQUvK9aymuOT/HYUYeynseaCRmLsj+YCNzRAsVfmhFhbbwuBW5iHRzTHD8iBNQ99tFhBWc1xudXTTz9dPLfWgXxbubPAPPF6UxjdcccdxXNrLHhZsZbVHN9MtaMI4wO6U089tXiOv7c0xyXxaC5sa+UnzXdAs0VYmfdWT3MaB8aKNcdlfuEbf2sdGEfLHduWLcJ4v+ObLKCNBVqhOb4Ry0VYDzq9CKMA0wodxtFyB99chNma65dFmIVGCawSq7fTaguCz+NgxaohFRGPuQirR1nN5SKsHAK3OAe5CKtHWc3lIqwcArcwD4+5CKtHWc3lIqweuQjLRVhAWc3FYA6PgxZrpxdh2vYAv5Y7+OYizNbcAJwYnRk0vC5jECQhqd8bi+3pp7XxWwGutUz99LHGI7AQXGr0gUvqZ3uuHU39HrcqsTIP4tPaLG6NOFixaha4hXl4HDJkSHECHgSW9sHoo8WKEY/WL14Hxh49enTxRgusWAO/1O9ZvA6Ag/dtt91WPLfG8nKK3hppDnBCTEzEFseamhWrZTE3xuaEmN+fgTjW2Ly80cfTHOMxDycnnARxiZinBfz7ozmMk5M1a9a48wRuWpuluZgbY3NCHC5HtNbBy51lzBO4AU5SQ+FvjQUvK9aymuOEmBMhYmM8Kz9WrJYxTuDG2FyOGGuu2bzRp9FxjnnQAIU/l8B6WsC/P5rjEc1R9HnzeHkrqzlOiEPhb40Xr2tZY55YcxTjt99+e/HcGqsVmuOEmLmIrbc0B7gcMRT++LWx8Fmx0qeM5lavXr33w6ZGmtNi5TyB382k/sAt8KbvUUcdVeq9VYsVIx5N94wVa44beITC3xovXtfY2JZcaH3iHADe70Lhr42FNdIc53SpP+YGuOSRY6qnOfhasbI+nHinfsaxuOHXxgrzpH6MPo00l/obcdBiLau52Lx5rD5YGc2lxrpqc8FByx1zW5pjey0HIdbUj3maCzfRSP0WN8xah8BB4836VKkhtLEG0IAxGZ8mhNdljO3pZ7VpfrbX+kCewLAQSGzNjodpfUgCX6fym7CwmMEYp1XzMDaLxEluOg9Gn2bGC36rj2VhrCDCM888s3hjYvG9+bU24iAe4tJyh+Enx1xP/vzzzxcHVisetrfaLAvcmAdwwnDrrbcWz715sNRfVnOANwpiCm+w2nhYs/HEOWBsTk74oTKweGPaPOSkkeZ4ZJ5Vq1YVJ0HcohYtWLzxWxwsC2OFnHJysnLlymJeLx6tjTjKaI4YODmZPXt2kTsrHra32iwL3JgHUBhNnDixeO7Ng6X+ZjTHb4BC4Y9PGw9rNp44B4y9cOHC4oYMwOKNafOQk7KaQwPt0Bx9jzzyyELjvXmcY2zu7DZnzpwid1Y8bG+1WRa4MQ9AB+HDJm8eLPU3ozlutBAKf3zaeFiz8cQ5YOwFCxbsLfwt3pg2Dzkpq7kVK1YUmuNuZs1qjrE5qeME0ssb73c8R3PteG/lDozhwyYrHra32phH4xC4MQ/g/S584+/No43VjOb4fW0o/PFp42EaB8ZmfVgnLW/N8sa0PoxdRnOaWW34Uw6MXUZzqTWKR2tjrkaai30YnPhNGHdVRItxG9tr/PA30lzqD22an+21PnDjm71GmkvNGg/T+rRac/3yckQWiROCFB63qrF6X18TVwp8HgcrVg2BW8gBj/lyxHqU1Vy+HLEcArc4B/lyxHqU1Vy+HLEcArcwD4/5csR6lNVcvhyxHpw05csRe1dz+XLEepTVXAwvVvrsr+ZicO4czhtiMI6WO/hammN7bf4Qq4ZGmsu/CavBS6BHsuxOG4MFscRiJRAOVRJYJVZvp9UWBJ/HwYpVQyoiHnMRVo+ymstFWDkEbnEOchFWj7Kay0VYOQRuYR4ecxFWj7Kay0VYPXIRlouwgLKai8EcHgct1k4vwvgGSGtjHC138M1FmK25fGOOCI0SWCVWb6fVFgSfx8GKVUMqIh5zEVaPsprLRVg5BG5xDnIRVo+ymstFWDkEbmEeHnMRVo+ymstFWD1yEZaLsICymovBHB4HLdZOL8K07QF+LXfwzUWYrbl+WYRxDaz1fw68BFaJ1dtptQXB53GwYtWQiojHXITVo6zmchFWDoFbnINchNWjrOZyEVYOgVuYh8dchNWjrOZyEVaPXITlIiygrOZiMIfHQYu104swftOrrSvjaLmDby7CbM31yyIMQfTXf9aci7B6lNVcLsLKIXCLc5CLsHqU1VwuwsohcAvz8JiLsHqU1VwuwuqRi7DOKMKAFWsuwvxY6bO/movRX/5ZM6CPxrulRRgBhaAYNLwuY2wPydTPWOwUPKZtbK/NA3lufUlwPI/bPG74vTaNAzfm4CQ09VvcMPxWrFofYsDP7ZjTeDCLW6NYNQ6WMVZYhyAO7o7IGxNi8ObRuDEGJ+2MmcZEHww/Y3NnJe70Bywt4LM4WMb25IB5ACcMEyZMKJ5X0Rx6a6Q5wBtFenfEePtg+DUOlsVjMTa3C4/vVKett5U3YiAHjTTHPNzFixPvcNcwbbzQR+NgGePHmsPHyQl3qmNebx4tb4xBPGU0x90Rn3jiiSJ3vak5Tk7iO9Vp81gaYYyymuOOnOndEePtg+HXOFgWj8XY7Kfxneq09bbyRgzkgONCGg8W8sM8aIATb97Ae1NzPHJHTm6JX/U4V1Zz3B0xvlOdNh4+i4NlbE8OmAegg/BhkzWPpRHGKKs57siJvntTc4A757ZDc9xEAM1xd7ZmNcfYnNRxAqnlLcxDG33R3P68t6I52tO58AU/Y3N3xPBhU7Oaw888Wh+2Jw7mAbzfhX+LUFVznNOl8cTcAHfk5MOmKppjbAoJ1imdp9FYtKf+mFtsjF1Gc6m/WQ6MXUZzsR9rNm8Y4wfNpW34rPE4d4Zf6rdyh7+R5lI/2/aW5lLD77WlHBi7lZrrlSIstGl+tsdS8hxcQhHG87jN4sYYYby0DbM40C+dI4zVqnnogx/x8Txtp00TWGjT/IGDNp5lCJlH4mW+UIRxwLPmsbgxLwch2mMOPI+5MRcnDaEIs8az1tUztg/zgLgIs8ay8lZWc4AiLJwQ08Z48fbBmokn5C30YWw+IQ5FWOCd9sO0eRgPfyPNMQ8nqOGE2NNC4KCNZ1msOR4pwij6qmouvFHEHHgec2MuPiEORZg1XryuZY3twzyAE4b4f9Npfay8wRO9ldEcRVg4IaaN8eLtgzUTT8hb6MPYcREWeKf9MG0exsPvnZzwyDxooB2aI1ehCOttzVH4x/+bThsvXteyxvZhHoAOQhFmjWXlLWiOY10jzVGEhRNi2hgv3j5YM/GEvMXz8G8RwrevgXfaD9PmYTz8ZTQXCn+KsGY1x3M+VeeEM80bFmuOvqEI623NUfiHIswaz9Mc82h92D7MA3i/i/83Xbo9FnOL/c1ojiKM9/EqmmNsTohZJy1vWp/Q1sw89MHfSHOaaeNhgUPKu4zmUvPWG7+23szVSHPx9sEsv8UBfyPNpf7QpvkDt5gzFmsubbO4NYpV69NqzfXbG3MwZgqPW9VYWSwN9NE44PM4WLFqCNxCDnjMlyPWo6zm8uWI5RC4xTnIlyPWo6zm8uWI5RC4hXl4zJcj1qOs5vLliPXghIoTuxSBW5gH/vlyxHqU1Vz+TVg9ymouhhcrffZXczHItTYe42i5g6+lObbX5g+xamikuVZdjujlm/VhnVJ464Bfy1u/LMJIIJ+SpmiUwCqxejuttiD4PA5WrBpSEfGYi7B6lNVcLsLKIXCLc5CLsHqU1VwuwsohcAvz8JiLsHqU1VwuwuqRi7BchAWU1VwM5vA4aLF2ehHGFQ3hGB6DcbTcwTcXYbbm+u2NOZYtW9b9qgeNElglVm+n1RYEn8fBilVDKiIecxFWj7Kay0VYOQRucQ5yEVaPsprLRVg5BG5hHh5zEVaPsprLRVg9chGWi7CAspqLwRweBy3WTi/COHfm8t4UjKPlDr65CLM11y+LMPyayBslsEqs3k6rLQg+j4MVq4ZURDzmIqweZTWXi7ByCNziHOQirB5lNZeLsHII3MI8POYirB5lNZeLsHrkIiwXYQFlNReDOTwOWqydXoRxzmDlW8sdfHMRZmtuv4swbaH2J4FldtoYjOdx0BJooVECmxUL23s7rbYg+DwOWqwW0hzw2B+LMHhZsZbVXJkiLM13GaSay0XYvrA0l3L7uhVhnBA3KsK0fDdCqrlchO2Lsprrj0VYmu8ySDWXi7B9AUeNA2PFmvu6FWHcgCgXYT3o9CJM2x7g13IH31yE2ZobwCQYAyLk8LqMsb3WxxvL6kNiuXU8ouB53FZlPPrwT5l5TNu2bdtWnHym/kbzaGNZfUg48/O1Lc/T9mbHw6w+noUckFMeBw8eXFzTixianYc4iAeRpzHRB8OPEC+99NLiNsQI2BoPn8XBsjAW8wDeKG699dbiuTUWfq2NnKC3RpoDvFEQE3mzeOO3NGdZPBa54q5hJ510UjEnfm0sa35yUkZzzMOtm7kj3qZNmyppwbNYc7zmrmErVqzodc1x17DZs2dXyp1nYSzmAdw1bOLEicVzayz8WlszmuOuYdwmOmjOimd/Ncd+Gu7Iid+aR4uHnJTVHBqg2OOffbZSc2wba47HI488srgz3v5ojjHTmOiD4Udz3C58zpw5lXLnWRiLeQA6iP8tgtVHa2tWc+EusLRZ8eyv5ubPn79fmuN4UEZzy5cvLzQX/hWHNl7cJ/YxNnda41xBy1usOfqjuf19by2jufPOO6/uX3Fo4+GzOHB3Uq1PGIt5AO934cMmayz8WlvQHOd0jTQ3derU4n28iuYYm/VhndK8xfOkht+aR+vD2GU0l/qb5cDYZTQX+0NbM/NgzBU0l7bRxxqPOx02k2/8jTSX+q2xMItbrLmy3DCPQzs0NwDhY+zcbBBelzEGgFDqDycNqR8LwtLaKI6w1O9xIwmY1sY8cEn9JJB/OJf6PW5VYw2fAKRGH+JK/fg8DlasmsEtzgGPQ4YMKT4h5rU1D9y0WDHi0Tik68AbOZ92AsbT1mF/NQf4BC2+XXi6PeataxnNAS4Ni29Rb61DnO8yFnMDr7zySt3twrV1YHwrVng10hzgWwk+ieaASpuVH/xWrJrBLc0B30rwiTTPrXng1qzmUm58KxHfLry3NMc3BeHbV28drFjLao5vJcLJCeNZ+Unz3chSzbGfhm/C8MMj7bM/mqMvQAPh21farPzg19bbMsaPc8Aj30rwbS+vrXngpsWKldUc30qEb19DrPH2GPm2cmcZ88Sa4xvR+Hbh6fYYvKxYy2qOS8PCt6+M11ua4/8htkNz3IALzYVtrfzg12LlxImTutTP+HEO4I/myry3eprTODBWrDn+LcIzzzxTxBdijbfHGEfLHduy/2l94hwA3u/Ct6/eOlixltUcH3CGb18tzaX5jo314WQ59TOOxQ1/b2gu9TOHx0GLtazmYvNihdv+ai42fhMW/s1IbIyj5Q6+lubYXpufbb11sGJFb3wblvpjzaVmrYOXb9aHdUr93jrg19Yh3x0xgsetaqxU5hroQ1wp8HkcrFg1BG4hBzzm34TVo6zm8m/CyiFwi3NAEZYvR+xBWc3l34SVQ+AW5uERzeXLEXtQVnP5N2H14MQtX47Yu5rLvwmrR1nNxfBipc/+ai5Gvjtih/0mrNkEeiTL7rQxWBBLLFYC8Wm8GyWwSqzeTqstCD6PgxWrhsAt5IDHXITVo6zmchFWDoFbnINchNWjrOZyEVYOgVuYh8dchNWjrOZyEVaPXITlIiygrOZiMIfHQYu104swcq2Nxzha7uCbizBbc/2yCLPQKIFVYvV2Wm1B8HkcrFg1pCLiMRdh9SiruVyElUPgFucgF2H1KKu5XISVQ+AW5uExF2H1KKu5XITVIxdhuQgLKKu5GMzhcdBi7fQizJqHcbTcwTcXYbbm+mURxhwbN27sftWDRgmsEqu302oLgs/jYMWqIRURj7kIq0dZzeUirBwCtzgHuQirR1nN5SKsHAK3MA+PuQirR1nN5SKsHrkIy0VYQFnNxWAOj4MWa6cXYWicm1KkYBwtd/DNRZituQFMgIUEhtdlLCxU6g8Bp34sJFBrCztt6ve4MZ7GAaMPXFI/J55vv/32Pn6PW9VYEbnWRh/iSv1hEVM/ZnGwLHALOeAxLcLSPhh9rHmIR+vH9qEPSIswbR32V3MgLcLS7TG2t2ItozmgFWFpH8yK1bKYG0iLMG2esK6pH6NPI80BrQjT+lgcLAvc4hykRVi8fTD6WPNYmou5gbQI6y3NpUVYuj3G9lasZTWXFmFWfqxYLYu5gbQIg0faZ380R1+gFWFaH/xWrJoFbiEHPKZFWNoHo48WK1ZWc2kRFjjExvZW7ixL50mLsHR7LF7X1MpqLi3CAofUrFgti7mBtAjrLc1pRZjWB78WazghTv2BW8gB/NMiLO2D0cfTnMYh5gbSIkxbB7bXcse27H9an3SetAhLt8fY3oq1rObSIixwiC3Nd2yhCEv9Hjf8vaG51M8cHgct1rKai82LlT77o7nUOHe2bsyh5Q6+lubYXpsnxJr6MS9W9EYRlvpjzaVmxerlOxRhqd/jhl9bhwEkB+NkjMSG12WM21tydzWtzRqL7emX+hEDt8vGeB63edwYrxkOYR5uzJG2WdywqrFyIqC10Ye4Uj++KhwsC9yIm7E52XrrrbeKu7tY89BHm4cxiEfrx/YY2zA2J8ScnHC3Gis/+6M55uGOSCNHjpQbbrihOAhbY7G9xjlooZHm2LF5MyImPgEKscbbB2s2npgbY3PXq+OPP76YM8Sa9sGseejDGqXxYPQhLuZ58803ZeDAgcVtvD0teBwsC9wCh8MOO0zeeOONlmsucGMbxj777LPl4YcfLnJn5Wd/NccB/uKLL5abbrqp1zXHSfeFF17Y65pjP401B4+0D2bNQx9PczwyDxpAc/ywuzc1B/9DDz1UFi9e3FBzWqyM0YzmZsyY4R7n2N5qsyyeB81ddNFFMm7cuF7XHB8uMFdva44PS0444YQiNvy9pbnXX3+90Bzv981qjrG5tf2GDRvceWijL5or895qxUo8Wr4DN+ZhbD5IfeSRRyprjnk0fzwP7628340fP7547s2jxcoYZTXHh6gcU6tojrFZH9YpncfihuHvDc2lxhwehzRWxi6judS8WOlTVXOpH04cv7mSTMu3xc/SHNtr84Q2zW/FCh/0xr9ASbnFmkvNihXT+jB2KzVX902YVtl55lWx1lhsb1WkHFSw1O9xo7q0Kk/6aFVsQOr3uFWNlSRrbfTRqmKvYsdvxapZ4BZywCMHcHYIXlvz0EeLFSMejUO6DuEW9Ty31qEVmuMTNG5Rz3NrLG9dy2qObyXK3KLeitWylBu3qKdQ5nkaa7Cwrqkfg1cZzfGtBN+EcdDgtZUf/FasmgVucQ74VoJPpHluzUOfZjWXcuNbCW5Rz3NrHVqhOb4p4MSB59ZY8LJiLas5vpXg02ieM56VHytWy1LNsZ/GmgsaiW1/NBe4hW8leCPitZUf/Np6Wxa4hXl4RHN828trax76aLFizWiOgoLn1jqQbyt3ljFPvN58I8ot6nlujQUvK9aymuNbCebiOeP1lua4RT3fhPEcf29pjuIrfPvKays/ab6DUfRS+KT+wC3MA3++CSvz3uppTuPAWLHm+CaMD+t4bq0D42i5Y1v2P61PmoNwi3qea2NhrdBcuEU9zy3NpfmOjfXpL7eot+bxYqXP/mouNra3zp+13MHX0hzba/OHWFM/1khzFPapP9VcbNY6ePlmfVin1M84Fjf82jr0y9+EhQVJ4XGrGiuVsgb6EFcKfB4HK1YNgVvIAY/5N2H1KKu5/Juwcgjc4hxwQpx/E9aDsprLvwkrh8AtzMMjmuOEGFjz0EeLFZTVXP5NWDmkmsu/CdsXcNQ4MFasufybsHqEyxFTMI7FDX9vaS4Gc3gctFjLai6GFyt99ldzMVhTrY1xtNzB19Ic22vzh1g1NNLcAfebsO5Hl6SFRuQ1eCTL7rQxWBBLLFYCqWK5DCtFowRWidXbabUFwedxsGLVkIqIx1yE1aOs5nIRVg6BW5yDXITVo6zmchFWDoFbmIfHXITVo6zmchFWj1yE5SIsoKzmYjCHx0GLtdOLMM6dw3lDDMbRcgffXITZmuuXRRiCWL58eferHjRKYJVYvZ1WWxB8HgcrVg2piHjMRVg9ymouF2HlELjFOchFWD3Kai4XYeUQuIV5eMxFWD3Kai4XYfXIRVguwgLKai4Gc3gctFg7vQjj3JnfN6VgHC138M1FmK25fns5YpWdtkqs3k6rLQg+j4MVq4ZURDzmIqweZTWXi7ByCNziHOQirB5lNZeLsHII3MI8POYirB5lNZeLsHrkIiwXYQFlNReDOTwOWqydXoRxAxVtLsbRcgffXITZmhvAJMEQcvy6kbE9RKw2zc/2Wh8Sy2WCGM/T9mbHw6w+jB8WJTbGadU8JJwfi/KJAc/TdmsezGrDb3GwLIxFzPQ988wzi7vbEL8Xj9ZGHMRDXGlMbI/hR4ijRo2ShQsXFgKuEqtlgRvzAE5Sb7311uK5NVbglvrLag7w42FiCrrRxsOajYdxQh9y9cILL8hJJ51UzGnxxrR5yEkZzTEPlxRw4s2dhIjJ4o3f4mBZGCvk9KijjpKVK1f2uuaGDRsms2fPLnJnxYN5bZoFbswDODmZOHFi8dwaK3BL/c1o7p577il+HN/bmmM/HTRoUDGnNQemzUNOymoODbRDc/Q98sgjC4030pzmJ46ymhs6dKjMmTOnyJ01HttbbZaFHDAPQAfcgAh482CpvxnNTZs2rdA364VPGw9rNp44B4y9YMECOfnkk4s5rTkwbR5yUlZzK1asKDTHncya1Rxj80N/Pqjy8kYbz9FcmfdWzc9cZTV3/vnnFzcgAtZ4bG+1MY/Gj+3DPID3u/BhkzePNlYzmrv77ruL9/EqmmNs1od10vLm8db8mNaHsctoTjOrDX/Kg7HLaC41xmkmbxhzNdJc7AvGtho3ttfmwt9Ic6k/tGl+ttf6BM1RIDWzRtZ4mNan1ZobwE6NMRgbhddljO3pZ7Vp/kA69XPgosLGeB63EXSz42Ekg76pP9wWN/V7OWAOLVaLGzHQh8VK48Gs3HmxWn08CzmAA49DhgwpPpEOBzytjzUPYxAP7WlMjIXhZ2xOGigoANtr6+Dl27LAjXkAn9qGE2JrLLbXYmWMMpoDfEJMTMAaD7M0Z1mcA8AnxOGEmDloT/vE3GIjBvp4mqMv4K5hfBLNLVhZLyt3+DUOnsWa4zWfEHNyAqy8WfMwRlnN8QnxE088UcwTYo23x+J8l7XAjXkAJwzhhNgaK3BL/YxRVnN8Qhy+fWV+ax32V3PcqS6cEMNZmyfmFhsx0KeM5tAAmuPY20rNMX56nKPw51uQ/TnO0S+NCV/wMzaFfzghDrHG22Nxvsta4MY8AB2EE2JrrMAt9TNGWc3xYVP49pX5rXXYX81R+IdvX+GszRNzi40Y8JfRHIU4mgt3gdXGC31SDozNuQLfFmh5CzlgXPqiuf19bw3aitvCuuJnbAr/8O1riDXeHovznRq50PoEbswDeL/jjpzAGitwS/2MUVZzfNgUvn1lfi0/cb5jP2OzPqxTOo+XAzhb82h9GBt/I82lfms8DH/KgbHLaC72Y4yjrQOmzYMxfiPNxb5gnDNQgKR+K9/wbaS51B/aNL/FjRgowBppLjXG0jhY+WbsVmqu3/4mjH84l8LjVjVWFksDfYgrBT6PgxWrhsAt5IDHfDliPcpqLl+OWA6BW5yDfDliPcpqLl+OWA6BW5iHx3w5Yj3Kai5fjlgPTqjKXBoG/3w5Yj3Kai5fjliPspqL4cVKn/3VXIylS5cWhVgKxtFyB998OaKtuX5ZhFHFhzfoGI0SWCVWb6fVFgSfx8GKVUMqIh5zEVaPsprLRVg5BG5xDnIRVo+ymstFWDkEbmEeHnMRVo+ymstFWD1yEZaLsICymovBHB4HLdZOL8I4d+CyvxSMo+UOvrkIszXXL4swoPkbJbBKrN5Oqy0IPo+DFauGwC3EymMuwupRVnO5CCuHwC3OQS7C6lFWc7kIK4fALczDYy7C6lFWc7kIq0cuwnIRFlBWczGYw+OgxdrpRRj8LA5a7tg2F2G25nIRFqFRAqvE6u202oLg8zhYsWoI3EKsPOYirB5lNZeLsHII3OIc5CKsHmU1l4uwcgjcwjw85iKsHmU1l4uweuQiLBdhAWU1F4M5PA5arLkIa7wOVqzo7YArwpgACwkMr8sY25OQ1M9EYaFSixMY+wEJ5FJBELd53BgL09roA5fYB/jhHiehIPbDzZrHi1XrE8YLJxxpO32IK/U3ipUxtfE0C+sQFp5HbswRTk68WDVugJ02XT8Q1iEgLsICh3gsbH80F0ARFt8kQevD9ilnDJTRHOCEOBRhIdZ4+2D00WLVDMAtnueVV16pu0kC7Wk/xg99YgPwaqQ5wAkxRRg/mAXaeBjj7Y/m8HFCzMkQsOYJ3FI/IJ50/UBYhwBOiEMR1pua4yQ1vkmC1sfTHHorozlOiOObJGhawOizP5rjhDgUYfi1dWikuXBykrbHWkADceGvjYeFWIHWnhrjx/PwyAlxOMZb81ixgrKa44Q4vkkCc8djYa3QHDqIb5Kg9WmkuXBCHLelmuOEOBRhYR3i7YPRR4tVM5BqjpvBhCIMf29pjhsQoblwTNTGw0KsIPgAJ/fh0qt4e8aP54E/mtuf91Y4ahzgFtYVcDOYZ555pnjerObYlnm0Pmwf5gdxEdabmuNmMKEIC+sQbx+MPilvEBdhsZ9xtBxg+HtDc6nfWgcsxBqPB8poLvZjVWIFjTQXbx/aOHfQ8rA/mkv9IdbUj7E93NL5QRnNpWZxCG0pb9BKzfVKERbaLLFYCWy2CANhvLQN0zgATjyXLFlSPI/9VgIBc2ixMr7HLRz803b6aAtijYcFDtp4mjFW2GkBj+0swji5A9Z4+6O5gLgIo40Y0z5sn3LGQJUiLIwXbx/M4qBZGCueJy7CmIP2tB/jhz6xhT6NNAe+7kWYNV4rNBcXYbQ1qzn0VkZzcREWxou3D2Zx0CyMFc8TF2HMQXvar5HmchHWu5qLizDaiDHtEzQCYj8oc3IC4iIsjBdvH8zioFkYK54nLsKYg/a0H+OHPrGFPrkIs7VgaY5tmUfrw/ZhfhAXYdY8bB+4xX5QVnNxERbGi7cPpnEAzZ4Qg7DeaRvje306tQjz5sFfVXPx9qGNm9rxLx9A3LY/mkv9oU3rw/ZwS+cHZTQXG7BixTQOoJWa65eXIyLksDPF8LhVjVWbB9CHuFLg8zhYsWoI3EIOeMyXI9ajrOby5YjlELjFOaAIy5cj9qCs5vLliOUQuIV5eERz+XLEHpTVXL4csR6cK3DClSJwC/PAP1+OWI+ymsuXI9ajrOZieLHSZ381FyP8b7EUjKPlDr6W5themz/EqqGR5vJvwmrwEuiRLLvTxmBBLLFYCbTQKIFVYvV2Wm1B8HkcrFg1pCLiMRdh9SiruVyElUPgFucgF2H1KKu5XISVQ+AW5uExF2H1KKu5XITVIxdhuQgLKKu5GMzhcdBi7fQiTNse4NdyB99chNma65dFGNtblbyXwCqxejuttiD4PA5WrBpSEfGYi7B6lNVcLsLKIXCLc5CLsHqU1VwuwsohcAvz8JiLsHqU1VwuwuqRi7BchAWU1VwM5vA4aLF2ehEGN20uxtFyB99chNma65dFGIJYtmxZ96seNEpglVi9nVZbEHweBytWDamIeMxFWD3Kai4XYeUQuMU5yEVYPcpqLhdh5RC4hXl4zEVYPcpqLhdh9chFWC7CAspqLgZzeBy0WDu9CFu+fHlxSWIKxtFyB99chNmaG8AEWEhgeF3G2J6EpP4QcOrHQgJTPyjzg/XUGEsbDyNJcIl9AOGtWrWqzo/BzZqnaqxBfKnRh7hSvxerxcEyuIUcAB4pwuKTE62fNw/xaP3idQAcwHmjBYyXrgO2v5oDHLzjG3Ok22Nsr3EGZTQHyt6YQ9OcZ4wVz7M/N+bA6NNIc4ATYoqwRjfmwK9xsAxusebwcULMyRCw8ubNU1ZznBA/+eSTxXPG6y3NcZIaF2Hp9ljMLTZQVnPpjTms/Oyv5thP08I/7bM/mgtaQANx4W+Nh9+KVTPGT49znBCHG3No64AxjxYrVlZznBDHhT9zp33ifJe1OAcAHcQ35ki3x2JusYGymktvzGGtw/5qLr0xR29pruyNOfBrsXJyX+XGHNo6YMzjaU7jEK8rKHNjjjjfsbEt+5/WJ84BSIuwdHss5hYbKKu5MndHjPMd+wHrw5VNsR+zcoDh7w3Npf441tTwa7GW0VzsxxhHWwfMihUro7nUOHcO5w2x38o3fMtoLja2tfJmcQPoLRT+cZu3DoxlcfA0xzrFfszKAYZfW4cBNGBMxqDhdRlje62PN5bVB/IERoEUAglWZbzQh8fYT8LZYVms2I81micdC7P6hHn4xIDnde27uhZyZ4Pxdu7u2m5Xd5vFwbPQh5zyOHjwYFm9enUhLI133Cf1Ewfx8ElDGhN9MPwI7dJLL5Xnn3++EJk1Hj6Lg2VhLOYBvFHceuutxXNrLPxaGzlBb400B3ijIKawY2rjBT+PaZtl8VjkauHChXLSSScVc1pjWfOTE1NzNQvjMc/KlSuLYm/Tpk2VtOBZ6BNyetRRR8mKFSt6XXNDhw6V2bNnV8qdZ2Es5gGjR4+WiRMnFs+tsfBrbc1obtq0aTJq1Ki9mvPi0dosi+dBC+yngwYNKua0xor7xEZOymoODVDsbd68uaWaC9x4JKc8HnnkkcXJwv5ojrjSmOiD4Udz559/vsyZM6dS7jwLYzEPQAfhwyZrLPxaW7OaQ9+sF21ePFqbZfE8jD1//vz90hzHgzKa41N7NMfd3JrVAmPz72w4gbTyxiNtPEdz+/veWkZz5513njzxxBOVcoe9//77ap8wFvMA3u/Ch03WWPi1tqA5zukaaW7q1KnF+3gVzTE268M6pXmL50lNGwuz+jB2Gc2l/mY5MHYZzcX+uC31Y1Yf5gqaS9voY40HP+392OKAv5HmUr81FmZxizVXlhvWiEPa1mrN7f0mjAMHjvC6jEFAq+y8sdieflobFSzFUeqnjzUeCcG0NvrAJfUHpH6PW5VYgyhS/55P3pUHH1woW3bty43xAocvP1gjcx95UbZ1t+G3YtUscAs54LHsN2FarBjxaP3SdSjzTVjgl/o9i9cBpJcjpttj3rqGT+tSP33CeEC7HDHtg1mxWhZzA3wTtr/fSmiaw+jDeCD9JszKD/790RxW9pswLVbM0lzMDaSXI2rr4OXOMuYJ3EB6OWK6PQYvK9aymtMuR0z7YFasljFO4AbSb8KazRt9PM3RF4RLw3gDA1Z+8O+P5nhEc2W+CQt9UiurufRyRG28eF3LGvPEmksvR0y3x1qhOe1yxLQP5uVOs1Rz6Tdh2lj4rFjpU0ZzfBOWXgKr9cGvxcqJE5cepf7ALfCmb9lvwrRYMeLRdM9YsZ9vX3vjFvVxDkCZb8IaaY5zutQfcwPa5YhpH/hasbI+FBKpn3Esbvi1scI8qR+jTyPNpX58Hgct1rKai82L1eqDldVcbPhB6o/XNTbmtjTH9t56p37M01y4HDH1W9wwax0CB40368M6pX5vHfBrY/XL34SxSOH/HMTwuFWNFZHvgzVz5TvfGSUrdNp7se3NWXLKD0fKxu7XX+3p2jHKInALOeAx/yasHmU1l38TVg6BW5wDTojzb8J6UFZz+Tdh5RC4hXl4RHP5N2E9KKu5/JuwevDJNSdcKQK3MA/882/C6lFWc/k3YfUoq7kYXqz02V/NxeDqGQrsFIyj5Q6+lubYXps/xKqhkeY4v0+Rai6GtQ5evlkf1imFtw74tXXol0UYJ578w7kUjRJYJdaw025Y/LCcdfpgGXzzA7Jp6QI54vDrZXON9jN3XitnnH6KTHm+60Yh7yx8VAadcppccNsMWfXaEzLyxIny/vZVcus1Y+XF1Z+bO5OGVEQ85iKsHmU1l4uwcgjc4hzkIqweZTWXi7ByCNzCPDzmIqweZTWXi7B65CIsF2EBZTUXgzk8DlqsnV6ELV26tLi8MAXjaLmDby7CbM31yyKMOTZuDN8v9aBRAqvEunXbF7L74zdl2AWnyf0vLJFZD0+SZ+dMl4EDJ8mcObfJ0edNkDdefVQOH1Q7sL4yX84YPFSmz39D7n9kgjz8+Ay54Ecnyck3ni93zX1Ztm6vxapwsJCKiMdchNWjrOZyEVYOgVucg1yE1aOs5nIRVg6BW5iHx1yE1aOs5nIRVo9chOUiLKCs5mIwh8dBi7XTi7ANGzYUv4dKwTha7uCbizBbc/2yCLPQKIFVYv1sxy75ZNFUGX7y2bJXtu+9LEcfd6vcNO4ouWjWi4Vr9KCb5NIrRsjpN1zcs92mhfK9/+/vyR//aIgsKfb9nutxyyAVEY+5CKtHWc3lIqwcArc4B7kIq0dZzeUirBwCtzAPj7kIq0dZzeUirB65CMtFWEBZzcVgDo+DFmunF2GWn3G03ME3F2G25gbQKXREyOF1GYNECCA2kmSNxfb009qorrHU73EjSWEhU6MPXLQ2ze9xqxrrJ59ulx3vvyJnn3uqPLF0s7yw4F554KFJcvhh4+WhGdfJUcPvlHdWL5AjTzhfHp//hJx0xnny9JJ3ZcEzj8k9UyfKBUePlWeeuVvOGDlG1n7C/PtysCxw45HF53HIkCHFCTivrVjpo8WKcdKu5TteB8bmDlv8+Jrn1jp462pZvA7sHBy8uVMdz7112B/NEQMnJ8TE86qa0yzmxticEHPXQp5X0Ry8WCOtjT6Mx9icnHASxN2RwlxaH/xWrJoFbjwyLj5OTviBvDdP4Ka1WZqLuTE2J8TcNYzn1jrE61rW4nVgbE5SuVOdpzl4WbGW1RwnJ5wI8ZzxrPxYsVrGOIEbY7Of9qbmghbC7cK5GUyYS+uDX1tvywK3MA+PaI6iz5uHPlZOy2qOE2L+LQLPrXWI17WsxevA2BTjFP69rTnuAstcPGc8Kz9WrJYxTuDG2C+88EJR+PM8jjW2sK6pH4NbGc1xt8LwYVOYS+tjceCGD+FENbbALcxDX+4Cu7/vrVobY8Wa4xb1FP48t9aBcbTcsS37n9YnzgE64/2Of4vQ25q75557imMqzy3NxflO21gfTrxTP+NY3OJYYwvzpH6sjOZSfxUOZTSXtnnz0EebByujudTINRxYr9jPOFru2NbSnMUtxJr6sUaa4/dqqd/ihlnrEDhovFkf1in1M47FzZpnABUqxmJwQhZelzG2p5/VpvmteQiKH/xhPI/bPG4sLqa1WfPwaRW/CUvbGs1TJdZ3a3Nt275DFj19mwwaeLIcf+E18twLz8qYKx6Qde+/L/eMvVhOGnisXP3QXKnJWl56eIocffyJctrZN8vcBc/I7dc+KB9te08mX32l3DdvZU1gn8jHylyWBW7cthM+nHi/9dZbRSXv5U2LNeRO6xfWgW2Yi28leKNgh/DyY7VZFrgxDzvByJEj5cYbbyx2lmbnYYwymuOgwyeCxMROHmKNtw/WbDzxPIzNXa+OP/74Yk7moD3tg1nz0Ic1SuPB6MN4zLN48WIZOHBgcZKCFqzx8FuxWhbGQgc8HnbYYfLmm2+2XHOBG9sw9tlnny0PP/xw8WmYFU+c77IWuDEP63LxxRfLTTfd5GoOXlobY5TVHN98XHjhhXs1p+UHazaeeB7GZj/tTc3xyDxo4MQTTyyKsd7UHPwPPfTQQuO9qTnmQnMzZszodc1ddNFFMn78+F7XHCfdzNXbmuMb6xNOOKHXNffGG28UmuNDp0aaSzkwNr994fIrbx50AB80V/W9FSMerY0+jAcH5uJqlkceeaSy5viGWPMHbszDeyvvdzfffHPx3BoLXlobY5TVHB8ucEytojnGZn240Zo3T2r4m5kHg1sjzaXWLAfGLqO51BinNzSX+uHEuTMfNoT392BerI00Z7Vp/kaa41+gpLnzuFXVHOvUzDz4tXn2Xo7Ipx1Uac2ACpFqWIM1FtvTT4P1VaLHLVSTGqw+JI7/H5LC41Y1VuZqFb7abV8GZyHlxgEcAQFrLPpYsRKPlu90HfgEn9utAys/rdBcfDmitw5WrGU1F1+OWEVzFlJur7766t5Lw9JYY1jzwMvSHH2IC3BQ5BNiDgLAyg9+K1YLKTcuDeOgDax56NOs5lJu8eWIVn5aobn4ckRrLHhZsaK3MpqLL0dkvGa1YCHVXPxvEfAHjaTwYvU0F4AG4kvDrPzg19bbQ8oNzXGCAax56GPFWlZz8eWIVn7It9VmgXni9Y4vR7TGgpcVK3rjWJci1Vx8OSLj9Zbm+MY/XI6Iv7c0Fy6B5YQRWPlJ8x3Ap+4UVRrieeDPt69l3ls9zWkcGCvWXHw5opUfxrHawjE/RZqD+HJEa6xWaC6+HLGK5lgfvmVIwTgWN/y9pbkYzOFx0GItq7kYXqz02V/NxeDcmcIlBeNY/CzNsb02P7DGaqQ5PjRIkWouhrUOwOrD+rBOKbx1wK+tQ7/8TRh+PnVJ4XGrGqu109JHW3hvEeFgtWkI3EIOeMy/CatHWc3l34SVQ+AW5yD/JqweZTWXfxNWDoFbmIfH/JuwepTVXP5NWD04uddOiAO3MA/882/C6lFWc/k3YfUoq7kYXqz02V/NxUA/WtHLOFru4Gtpju21+UOsGhppTvuAM9VcDGsdvHyzPlYOLG74tXXIN+aI0CiBVWL1dlptQfB5HKxYNaQi4jEXYfUoq7lchJVD4BbnIBdh9SiruVyElUPgFubhMRdh9SiruVyE1SMXYbkICyiruRjM4XHQYu30IkzbHuDXcgffXITZmuu334SFyxNiNEpglVi9nVZbEHweBytWDamIeMxFWD3Kai4XYeUQuMU5yEVYPcpqLhdh5RC4hXl4zEVYPcpqLhdh9chFWC7CAspqLgZzeBy0WDu9COOcwcq3ljv45iLM1ly/LMIQxLJlXf8cOUajBFaJ1dtptQXB53GwYtWQiojHXITVo6zmchFWDoFbnINchNWjrOZyEVYOgVuYh8dchNWjrOZyEVaPXITlIiygrOZiMIfHQYu104swzp25yUQKxtFyB99chNmaG8AkGAMi5PC6jLE9/aw2zW/NQ2L5dgpR8Dxu87jR1gwHEsGPCleuXFk8j9u8efA3O0+4q1A6D2aN14jD/oK7eRE7YvDm0bgRB/EQl5Y7DD9CvPTSS4s7RfU2xo4dW9zBCVjxWDkNB9VGmgPTpk2Tq666qnjem1iyZElxNy9grQOmxVNWcxxUVqxYURRhvO5tHHvsscWPeVutudAnaG7o0KGyYMGC7ll7D9dee63ccsstxXMrHnhpbc1o7u6775arr766eN6bYD896aSTiufWOmBaPGU0xyOaQwOcEDN+b4MirDeOc6FP0Nz5558vzz//fPesvYdrrrlGJkyYUDy34on1E1szmps6dWoxV2+DO2W2Q3OcMKI5XleFdhKmAc2tWrWq1zV33nnnFbf4rwo0UAa83/HvX4AVTyPNcU7XSHN33XVXcUytCtaH3KR5s7hhIadWW+pj7DKaS61ZDozNHaX5cDTNG9aqeTDmCppL27w+aJw7A6Z5sDjgZx5tPGue0Kb5rXlizZXlhjXLgXlYH9apFfMM4ICBMTAbhNdljAEgobVZYwXSqZ8diaAwnsdtHHi88TwO9E39+DR/EH3qx/DTnvotbuHAED4BSNvpY41ncWB7DornnHNOaeObLx7PPffc4vG73/1usUMAax6LG3EQD/3SmMI64Af8L5MjjjiieMOg8Is5BcNvtVlGPPQhHsb+67/+6+LEAXga0WKFaxnNAW5D/Td/8zd747F4h3yXtXgsxj7yyCOLogX0huboCzZu3FhogUKMeS3eXqyWpZr75je/Wdw2FrRSc/hizTHXwQcf3HLNhT5Bc3/1V39VFOWgNzX30EMPtUVz7KfHHXdcMWdvao47x33nO9/ZqzkrHi9WyzTNcaIAqmouaCtuSzXHvO3SHP/DC/Sm5qZPn94WzR1++OHFLepBFc3Rp4zm+GYKzVGINbtG5J7/q3nGGWfs1VVsIQdhXDS3v++tZTQHp1/84hdNxxOMXGj+0CfWHN9Sgd7UHFeZVNUcXFkf/ldfOg95ttYBf29oLvXja4YDY1MUUUhYedPm8WKlT1XNxb5gFBMWBy13bEvRovWxuIU2ze9pjhvuNdJcato6YKFPypuxWR/WKZ3HWwdrnnxjjgget6qxUplroA9xpcBncUD88+bNk8cee6ywWbNmFRZex75gFA+PPvpo8ZxHvmkBXqxw02IF4dPUFOk68GnJnDlz6jiknGfOnFm0pX7rEWN7+oXtuRSIHQJ467C/miNu/ocXc/I/WrDAIXDjOf+nKo41PKbbhddpDmbPnl3kDlTRHGtQRnNsx63JUw7BAkf8xBr708dg4TV9guYw/hlwOFi1UnOMFfv5n2fNao7HeJvgi9vYPtVcuFzEW4f91RxvkLHm4BA4BaMNzcV8A0/Nx/OQg+BDc+QOwDloJMb+aC4cg9mOSx9jDoFf4Mgj/qC54Atc0+fhddjveM5jWc1psYKymmNf5R+EMy+8030f02LF2CZsFz9ibJ9qLtzRt52ai/f9YIEfj7HPe91pmgs8Akf8xJr60RWXaIY+4ZF1DvtdMC6xBI3eWz3NacdATXPpcS5wgB8W5ztwxtiWYj71Y2wfaw4d9LXmAhcsxBMb27A+4T0zhrcOvam5GMzhcdDWmxP/Tr4c0ZqHcbTcwTcUrynYXps/xKqhkebyb8Jq8BLokSy708ZgQSyxWAmkUg7/zyNGowRWidXbabUFwedxaBW8WOGmxQqIR8u3tw7tQDs11y5U0Rxr0Kzm2oVWa46xOlVz8DpQNadpZH80R9++QiPNWftD1lz70Omaa3a990dz2jGw1ZrTTh49dLrm4KDlx1uHdmmOOTwO2np3ehHGb201foyj5Q6+uQizNdcvizC+GuW/fqdolMAqsXo7rbYg+DwOVqwaPBF5sdJHixUQj8ahyjr0J81Z8LhViRVe/UVzHjeLQ7s0By8r1qqas/JjxWrBWwf8mkYaxeppzloHj4O1rhoCN22eRprTYgWt1BwcrNxZYJ6sufZqTou100+IPQ5a7tjWOiG2chBi1dAuzQUOGm/Wh6uEUnjrgD9rrprmli5duvdS7xiMo+UOvrkIszXXL4uw8APLFI0SWCVWb6fVFgSfx8GKVYMnIi9W+mixAuLROFRZh/6kOQsetyqxwqu/aM7jZnFol+bgZcVaVXNWfqxYLXjrgF/TSKNYPc1Z6+BxsNZVQ+CmzdNIc1qsoJWag4OVOwvMkzXXXs1pseYirDM0FzhovHMR1l7N8ftubV0ZR8sdfHMRZmtu7405QgLD6zLG9iQk9TMWBFM/xvYhsNjPa++HnBY3AgvBpUYf+qb+gNjHnIFb7A/mxar1YTx4BfGl7Ra3RhwYUxtPs7AOVebRYmVe4qE95hBitdbB4mDlzjOLW4g19WMh1jRvvG6X5jRjzirrYHFjPPz9RXOBW7x9sL7WHLxSzhiv+5PmqmqhXZrT+jBvKzXncbCM7a11aJfmvFhp02LVjDkbrYMVq9YnrEOrNUd7PB7PW32TBPxaH8YnnlT3PKePpznNb3FgbusmCSEHqT/EmvqxvtYcY2s3SeB5mfVO/RY3xsOfNdc1V8ot+DUOzN1OzVGIpW2Mp3HDvFhpS3kzdis11ye3qMdCIoNBjuoyfAIZt1ncGCOMl7ZhVh+Sxw9OU38r5yEG5uEbtzQejD7NjIcFDmnuPPPGstosP3Fwe3/iimMqkx+tzeNgmTVWaNP8gVuaN2JgZ+ptzVkWxmrVPMTwddQc8XydNIfeqmjOmquZeLyxyuQ09REDa8NxIY0H87hZbYFDmjvPvLGsNvxarMTRSs2FNs1vWZWxArc0b8SA3jjWpWvE9tp4nk6wZuLxxiqT09RHDO3QHGNzUscJZDPzWLFi+LVYGb+q5jQ/ZrUxjzaexS20af7ALc4bRgxojnO6NHdsr43XSCean7EpJFgnLW/ePFjahlnzfJ01F3Pw8kMba8q3TXGfYBoHxmmn5lp1nKNN8zN2KzXXLy9HZJGq3E2nSqyIQgN9iCsFPo+DFauGwE3LgRcrfbRYQTh5TFFlHfqT5ix43KrECq/+ojmPm8WhXZqDlxVrVc1Z+bFiteCtA35NI41i9TRnrYPHwVpXDYGbNk8jzWmxglZqDg5W7iwwT9ZcezWnxcpJUydfGuZx0HLHtuHbnBRWDkKsGtqlucBB4836cOKbwlsH/Flz1TTH/1+kGE3BOFru4Gtpju21+UOsGhppLv8mrAYvgR7JqjutJRYrgQiPfxyaolECq8Tq7bTaguDzOFixavBE5MVKHy1WQDwahyrr0J80Z8HjViVWePUXzXncLA7t0hy8rFiras7KjxWrBW8d8GsaaRSrpzlrHTwO1rpqCNy0eRppTosVtFJzcLByZ4F5subaqzkt1lyEdYbmAgeNdy7C2qs5zp1zEZaLsL1gQSyxWAmEQ5Wdtkqs3k6rLQg+j4MVqwZPRF6s9NFiBcSjcaiyDv1JcxY8blVihVd/0ZzHzeLQLs3By4q1quas/FixWvDWAb+mkUaxepqz1sHjYK2rhsBNm6eR5rRYQSs1BwcrdxaYJ2uuvZrTYs1FWGdoLnDQeOcirL2a4zI8bS7G0XIH31yE2Zrrl0WYhUYJrBKrt9NqC4LP42DFqsETkRcrfbRYAfFoHKqsQ9Zc6zUHr/6iOY+bxaFdmoOXFWtVzVn5sWK14K0Dfk0jjWL1NGetg8fBWlcNgZs2TyPNabGCVmoODlbuLDBP1lx7NafFmouwztBc4KDxzkVYezWnbQ/wa7mDby7CbM31yyKMHZYfPqZolMAqsXo7rbYg+DwOVqwaPBF5sdJHixUQj8ahyjr0J81Z8LhViRVe/UVzHjeLQ7s0By8r1qqas/JjxWrBWwf8mkYaxeppzloHj4O1rhoCN22eRprTYgWt1BwcrNxZYJ6sufZqTos1F2GdobnAQeOdi7D2ao7/EaYVOoyj5Q6+uQizNTeAgDAmQ8jhdRmDBJb6mcway+oDeQLDeB63VRkv9OEx9pMERLR48eI6P0YOtLEw/LSn/kbcwt10UqOPNl4VDpZZOcC8eSxuGPFo8TKWN57FQRvLMysHjdZB49YuzXnmrQP+ZmPF72lO41aFg2VeDrx56GPNkzXXmIMWq2XeOlSJFX/WXNacZ946VIkVfzs0x0kdJ5BW3pqdhz7aPBjxaP3weeNZHGhL/WzLneq0PlYOQqypH7O4tUtzjM36sE6xH/PWoUqs+Pu75uC0ZMkS2bRpU3EuHbcxh5Y7+Fqas7iFWFM/5nHjpnsHmub2FmFMZHW2zCNvjWWRJDBvp/XG0zhg9NESyEK98847dX7M4obhbzZW/NZOq3HDGo1nxapZGEubp0qsGPFoYmZ7q4/FwYvVMoubN5YVa7s055nFDcPfbKysTX/RnNfH4uDFapk1jzeWFeuBoLlm83Yga07rg7VScx4Hy6x5vLxZ82TNdZk3Hn4tVu+E2JqnSqwY8Wj9LG6hrRkObMs8Wh9rHrbVxsKseVqtudAn5c3YVU+ItRx43LLmuvK9bt06lZ/FgbnbqTn+/VTa5o3XiEPKu9Wa65XLEYE1FtvTTwNBYSk8biEQDc3G43GrEiu8va+vaU+Bz+NgxWqhyjrQx4rV+vq6yjpkzbVec2zfXzTncbM4tEtz8LJiraq5ZjlY8NYBv6YRYM3DeJ7mNHSK5qxYW6k5xrHaLDCPNj+wxsqa64LVp5HmtFgZixM7DR43ax76eJrT2hirlZrjBFKDlQNgjdUJmmN9KJBSeOuAP2uuuua0S/TgYPGzNMf2Wg6ANVYjzbXqckRg9WF9tDZvHfBrue6XvwnDpyWjUQKrxOrttBoHfB4HK1YNgZuWAy9W+mixAuLROFRZh/6kOQsetyqxwqu/aM7jZnFol+bgZcVaVXNWfqxYLXjrgF/TSKNYPc1Z6+BxsNZVQ+CmzdNIc1qsoJWag4OVOwvMkzXXXs1psfLptXZCHLhp83ix0sfTnMaBsVqlObblhFjrY+UgxKqhXZoLHDTerSzCGsWaNdfFTxuPcbTcwdfSHNtr84dYNTTSXL4xRw1eAj2SVXdaSyxWAvm6kq9UUzRKYJVYvZ1WWxB8HgcrVg2eiLxY6aPFCohH41BlHfqT5ix43KrECq/+ojmPm8WhXZqDlxVrVc1Z+bFiteCtA35NI41i9TRnrYPHwVpXDYGbNk8jzWmxglZqDg5W7iwwT9ZcezWnxZqLsM7QXOCg8c5FWHs1t3btWjUPjKPlDr65CLM11y+LMO6M+Pbbb3e/6kGjBFaJ1dtptQXB53GwYtXgiciLlT5arIB4NA5V1qE/ac6Cx61KrPDqL5rzuFkc2qU5eFmxVtWclR8rVgveOuDXNNIoVk9z1jp4HKx11RC4afM00pwWK2il5uBg5c4C82TNtVdzWqy5COsMzQUOGu9chLVXc0uXLi1ubpeCcbTcwTcXYbbm9hZhwEq6BSbUCAJrLLbXAgbbt28vTIM1HkFZArP6kAy+DUvhcasaKzcB0eDl2uNgxWqhyjrQx4qVeDQOVdYBeG0aqq6DFWu7NGfB41YlVnj1F8153LxYvTYNVdfBirWq5prlYMFbB8sPPG4HquYstFJzcPDm0sA8WXM+t1ZrTovVOlcA1jxerB434tE4MFYrNWcVElYOgDVWJ2iO9bFO/i1ulh943LLmun7fZeXbmsvSHNtr8wNrrEaa0wpyYI1nrQOw+rA+WrHlrYPlH8BgGItBcsPrMsb29Ev9VInWWN48VNdY6vf6sLiY1kYfuKR+qmUWK/U3mqdKrBs3blTb6KON53HAb8WqWeCm5YB5vLxp3DDi0frh88azOFixWmZxa7QOVlu7NGeZNw/+ZmOFV3/RnMfN40Bb6vfM4tZoHay2qpqz8kMfLVbLvHnwV4nV01yz64DfWlfNAjdrHk8jVk6z5vqf5jQOXDXD7bhTf+BmzeNpRJsHIx6tjT6t0hzbbtiwQe1jcQuxpn6sXZoLHDTerA9330v93jz4q8SaNdfFY9u2bfv4rVjZvp2a43b4qd/ihlXVHOuU+r158GvzDKBqxPgKD0d4XcbYnoIm9YcCJ/VjbG+1QZLAUr/HDTFgWht9QmWc+tlpU7/HjTmqxPree++pbfQhrtTvxYrfilWzwE3LAdy8vGmxYsSj9cPnjadx6E+as8zjhr/ZWOHVXzTncbM4tEtz8LLa0FsVzVn5oY8Wq2WMY82DX9NIo1g9zTW7DvitddUscNPmaaQ5LVaslZrz8m0Z27dacxzrUn/WXJfh12LlBIyTutQfuGnzMI6nEU9zGgf6tEpzbLt582a1D9tr84dYUz/WLs0FDhpv1oeT29Rv5QDDnzVXTXP0gWPqt/IN36+j5prJAYZfW4e9lyPyNZr29ZoHvqqzvrK0xmJ76ys+CGIpPG58xWd9zWf1YYddvnx596seeNyqxspcGuijfQWKz+NgxWqhyjrQx4qVeDQOVdahP2nOgsetSqzw6i+a87hZHNqlOXhZsVbVXLMcLHjrgF/TCPC4eZrT0C7NeaCPFWsrNUe+m+XHPFlzfqyt1pwWK5ddcfKkwZrHi5U+nuY0DozVSs3xyb8GKwfAGqvVmvNg9WF9tN/neOuAP2uumuY4d+ZLjBSMY/GzNMf22vzAGquR5iiaUnias9YBWH1YH+2STG8d8Gvr0C9vzIHwVq9e3f2qBx63qrFa4qOPtvD4PA5WrBoCNy0HXqz00WIFxKNxqLIO/UlzFjxuVWKFV3/RnMfN4tAuzcHLirWq5qz8WLFa8NYBv6aRRrF6mrPWweNgrauGwE2bh5OFKVOmFJ/EpqCPFitopebIt5U7C8yTNddezWmx5htztFdzc+fOlTlz5nS/6kHgoPEO30ik8NYBf9ZcNc1x7oyGUjCOljv4Wppje23+EKuGRprTCn9Pc9Y6ePlmfVp+Yw6PpIVG5DV4JKu+UVhisRLIeBqHRgmsEqu302oLYnED+K1YNXgi8mKljxYrIB6NQ9V1sHJnoeo6WLG2S3MWPG5VYoVXf9Gcx83i0C7NwcuKtarmrPxYsVrw1gG/ppFGsXqas9bB42Ctq4bATZvntddek9/4jd+QZ599ttvTA/posYJWao58W7mzwDxZc+3VnBZrLsLaq7mjjjpKvve973W/6kHgoPHORVh7NUeRo/XBp+UOvrkIszXXL4swC40S2Gys8PZ2Wm1B8HkcrFg1eCLyYqWPFisgHo1DlXXImvO5WeN4scKrv2jO42ZxaJfm4GXFWlVzVn6sWC1464Bf00ijWD3NWevgcbDWVUPgps3DyRn/E1Ljjk+LFbRSc+Rbm98D82TNtVdzWqztPiHW2hirVZpjW+1bDGDlIMSqodWa48YK/OYohZfvXIS1V3OW39IcsDTH9q3W3AFXhNEJIzAGDa/LGARDALF5Y7F9SHxskOM6S4zncZs3HmNp42H0oW/sY2x+iMfdTWI/ZnHDqsRKH34oqLVp3DB8HgerTbPATZvHi5U+WqwY8Wjxety8WLWxPGOOZtfBirVdmvPM4gY4cPGmxHgxP48b/qy5vtecxW1/NGflx4rVMm8d8DebN/ydqjl8gDfStM3LWys1R761sTxjjqy59mpOi5UTunCiGvsDN20eL1Yvb8Sj9cPX7HhwoC31sy2X6Gp9rBywrTYWZnGrqrlwwpv6Q5+UN2OzPuHbmdiy5rrM6oM1qzk4hTsdpvyqaI7tW605zu/TtkbjeRxS3q3W3AA6heTxaUJ4XcbYPiRRa9P8bK/1gQy/1cJ4HrdBvtnxQp+Q4GCMzSctixcvLhIStzFO1XlSP2Pj5y4q6TwYbc2Mh1l9PKNPmgPMigez5iEO4uGHj1ruvPEsDlaslnk5sMayuLVLc54xjjYPGDVqlHz/+98vXsf8LG5lNKdx82LFr8XqmTWPlTfMmidrrsus8UIfLVbLGKfqPKm/EzTXKAcgzTVmzRM0R3vW3L7jNcq3ZoxTdZ7Uz5pwPOhtzTE2J3ThxDtu83JgxYNp82Dt1BzzaH0sbqFN81vcqmouFGGp38o3Y7M+rJOWt2Z5W9wY++usubTNGg9OS5YsKW5tn/Jje20s+LZLcxRHaC5dI28drPGsfLdac/3yckQqWO2H2h63qrEiCg30Ia4U+DwOVqwa4GaN5cUKNy1WQDwahyrr0J80Z8Hj9vzzz8tDDz3U/aoHXqzw6mvNWTloteY8bhaHdmkOXlasVTVn5ceK1YK3Dvg1jTSK1dOctQ4eB2tdNQRu2jzkedGiRWq+6aPFClqpOfJt5c4C82TNtVdzWqycNLXz0jCNA2O1SnNs28m/CeOmD9qdqwMHjXe+HLG9mqMAowBJwTha7uCbfxNmay7/JixCowRWidXbabUFwedxsGLV4MXuxQo3LVZAPBqHKuuQNedzs+DFCq++1pyVg1ZrzuNmcWiX5uBlxVpVc1Z+rFgteOuAX9NIo1g9zVnr4HGw1lVD4KbN88Ybb8hv/dZvybx587o9PaCPFitopebIt5U7C8yTNddezWmx5iKsvZobOHCg/PSnP+1+1YPAQeOdi7D2as7yM46WO/jmIszWXL+9O6LWp1ECq8Tq7bTaguDzOFixWhg2bJhcd9113a964MUKNy1WQDwah6rrYOXOQtV1sGJtl+YseNxo08byYoVXX2oucNN4e7HSR1tXYGnO42ZxaJfm4GXFWlVzVn6sWC1464Bf00ijWD3NWevgcbDWVUPgps3DZSP3339/8dvKFPTRYgWt1Bz5tnJngXmy5tqrOS3WXIS1V3MLFy5U72QaOGi8cxHWXs1xWabWB5+WO/jmIszWXL8swrhmdNWqVd2vetAogVVi9XZabUHweRysWC1ceumlcsstt3S/6oEXK9y0WAHxaByqrEN/0pwFjxtzaBrxYqVPX2oucNNy0GrNedwsDu3SHLysWKtqzsqPFasFbx3wt1pz1jp4HKx11RC4NZMDQB8tVtBKzZFvK3cWmCdrrr2a02LNRVh7NWchcNB45yKsvZrj3JkPt1IwjpY7+OYizNZcvyzCEIR23XGjBFaJ1dtptQXB53GwYtWgxR7gxQo3LVZAPBqHKuvQnzRnweN28cUXyz/+4z92v+qBFyu8+lpzVg6qao4PTbTx4G3l2uNszWNBy1mANQ+8rH58kohpsLh5sTYbj7cO+DXezF1Vc9batUtz1jrQx2qzjnMeN4+DlTsLzKOta6N1sHJa9ThnacuK1cKBoDkt1lyEtVdzzK9xCxy0tlyEtVdznDtzo40UjKPlDr65CLM1N4AJsJDA8LqMsT0JSf1MBEEe07Y4gbEfkMDwg7+4zePGWJjWRh+NA37miX0AbtY8XqxanzAe4gNpO32IK/U3ipUxtfE0a7QOXqwaN8BOm64f8NYBDs3GahnbW+vQyZrTDFjrAKZNmyYjR47cp43xrT7w+jpqjgMrFg6yWLj7VurnOX24XW3qx5eOF28TfPEj23PQ1bajDf2kfraHG8VWPB6vuTsrFnyhX8otbg/jBV/cL+YQ/GEbLZ+N1oH21N9Ic3AAabulhXZpjnm8fdXSHPsQ/UDsx6eNFzho43mxWuatQ5XjHPpADyBua7QOWqwYfTQOmoEDUXOAk3v2OxBv32gdvFg9zWkcrHUIHJrRHH2YR+PN9tY6tEtzjKdxwOiTcgAcG0MRFvsZx5rHi1XrA7LmuowcwDH1H6iaw2/FSlvKAbRSc/nGHBE8blVjDTttCvoQVwp8HgcrVg1e7F6scNNiBcSjcaiyDllzPjcLXqzw6mvNWTmoqrkZM2bIz372s+JH2yeccEJhPD/++OMLC77YQlvcJ/bHvkbm9dH8jbgdd9xxcuyxx+7DDbP6YM1yOOyww+S0007rzmIPvHXAr2lkfzSnaaFdmuNfkfzn//yfizuNpqCPFiuwjnMeN4sD+bZyZ4F5tP2h0TpYOa16nLP2SStWCweC5rRYORHkhCtF4KbN48VKH09zGgfGapXm2JYTYq2PlYMQq4ZWa+7UU0+VQw89tPtVDwIHjXd8QhzDWwf8WXPVNKdtD/BruYOvpTm218YLsWpopDk+hEzhac5aBy/frA/rlIJxLG74tXXol0UYydN2pkYJrBKrt9NqC4LP42DFamHMmDEyefLk7lc98GKFmxYrIB6NQ5V16E+as+BxYw5NI16s9OlLzQVuWg6qam7cuHHFzWX49ojb42ZrbPwz+hUrVsgRRxyxT169dcDfas1pWmiX5tavXy/Dhw8vbn2dgj5arMA6znncLA7k28qdBebR9odG62DltOpxztonrVgtHAia02LNRVh7NXf33XfLxIkTu1/1IHDQeOcirL2a4x8va5fTM46WO/jmIszWXL/9TdjSpUu7X/WgUQKrxOrttNqC4PM4WLFa4BNxfluUwosVblqsgHg0DlXWoT9pzoLHzYIXK7z6UnOBm5aDqpq79dZb5b777ut+lVEW5HrQoEH7rJ+3Dvg1jeyP5jQttEtzmi+APlqswDrOedwsDuTbyp0F5tH2hxCrBnhZOa16nLP2SStWCweC5rRYcxHWXs1ZCBw03rkIa6/mli1bln8TlouwHrAglli8BK5du7b7VQ8aJbBKrN5Oqy0IPo+DFasGuCFIrY8XK9y0WAHxaONVWYf+pDkLHrcpU6bI0KFDu1/1wIsVXn2tOSsHVTVHEcYnpBnNgX3/pJNO2mf9vHXAr2lkfzSnaaFdmmMeLR5AH6vNOs553CwO5NvKnQXm0faHRutg5bTqcc7aJ61YLRwImtNizUVYezVHm8YtcNDachHWXs2tWbNGzQPjaLmDby7CbM3129+Eaf5GCawSq7fTaguCz+NgxaoBbhpn4MUKN6sf8WgcqqxDf9OcBo/btddeK4cffnj3qx54scKrrzVn5aCq5nIRVg25COuaxwJ9rHbrOOdxsziQbyt3FphH2x8arYOV06rHOWuftGK1cCBoTos1F2Ht1ZyFwEHjnYuw9moOfhYHLXdsm4swW3MDaMCYDCGH12WM7SGS+r2x2F7rA3kC464wIZBgVcYLfXhM27CwkLF581hjWX0YHz/Xz2pzNTsehl+L1bOA1M881lgWN+II1wOnMVnrgFWJ1bIqY1nc0Bl6a5fmNPPm4WCCpX6rT6dozpvHGsvqA8aPH5+LsApAOyeeeGKxv8b6brTe1tppfTpBc2GsdB6wcuXK4iYob7zxRvE6bre4EQfx0J7GZO37mDWeF6tlVcayuO3Pcc7joLVZ5s3TbKysCZputebSPozN3dY4gbTyZs3TrEbaqTkuJdP6VBnL4hY0xzldGc2xDSeoN9xwg1x22WXFiW+ch9An5Uc/1od1SvPm8W42Vsb+OmsubfM0Z/kDP83fbs01owXG8jikba3W3AAGxBgMMuF1GQsDpn5vLLann9bGLZqx1O+Nx1jWePShb+pnodatW7eP3+NWJVb68E/ttDaLGz6Pg9Vm2eOPPy4LFizYx+/FCjctVox4tHg9bl6sVu4sY45m18GLtV2as8zjxji8GWl+ixv+vtRc4KbNU0VzgH82nouw5hGKsFQr3jrgtzSSjhMMfydqDvDb329961vyyiuvFK/jdosb1srjHPnWxvKMObT9IcSa+jGPW9XjnMYBs2K17EDQnBYr+1D4tiC2wE2bx4vVyxvxaP3wNTseHGhL/WwbCom0zcoB22pjYR63ZjRHAcZ7Hf+SZciQIcVzfGkfjTfrwzql/qy5LrP6YFU0x7lzKBJjq6I5tm+15iiOUn+j8TwOGu9Wai7fmCOCx61KrPBmsTTQh/YU+DwOVqwWvve97xU/zk/hxQo3LVZAPBqHKuvQnzRnweNmwYsVXn2pucBNy0FVzeXLEauBNwkuR0zz6q0Dfk0j+6M5TQvt0hzzaPEA+lht1nHO42ZxIN9W7iwwj7Y/NFoHK6dVj3PWPmnFauFA0JwWKydh7bw0TGtjrFZpjm05/9Fg5SDEqqHVmqNNiydw0NpYH75lSJE11wX6aLGCKprj3LmZG3MAS3Ns32rN8b6Xghit8ax18PLN+rBOKbx1wK/lul8WYeywVOYpGiWwSqzeTqstCD6PgxWrBrjxqcX777/f7emBFyvctFgB8WgcqqxDf9KcBY/bwoUL5aGHHup+1QMvVnj1teasHFTVXC7CqiEUYen6eeuAX9PI/mhO00I7NWfpij5arMA6znncPA5W7iwwj8a70TpYOa16nPNyp8VqgXG89e4EzWmxtvuEWOPAWK3SHNtyQqz1sXIQYtXQas3RpnELHLS2XIS1V3P8qxit0GEcLXfwtTTH9tr8IVYNjTSXi7AavAR6JKu+UVhisRJooVECq8Tq7bTaguDzOFixavBi92KFmxYrIB6NQ5V1yJrzuZ1++unyjW98o/tVD7xY4dXXmrNyUFVzuQirhlyE+aCPFiuwjnMeN4sD+bZyZ4F5tP2h0TpYOa16nLP2SStWCweC5rRYcxHWXs1ZCBw03rkIa6/mtO0Bfi138M1FmK25flmEsb31z+a8BFaJ1dtptQXB53GwYtWgxR7gxQo3LVZAPBqHKuvQnzRnwePGjq59je/FCq++1pyVg6qay0VYNeQirOtT2xtvvLH4p80p6KPFCqzjnMfN4kC+rdxZYB5tf2i0DlZOqx7nrH3SitXCgaA5LdZchLVXc4899phMnz69+1UPAgeNdy7C2qs5fnelzcU4Wu7gm4swW3N7izBgJd0CE2oEgTUW22sBA5KnJRBY4xGUJTCrDwnkrlkpPG5VY+UmIBq8XHscrFgtrF69WjZt2tT9qgderHCzYiUejUOVdQBem4aq62DF2i7NWfC4efC49bXmqqwDfax1nTBhQi7CKgBdU4Sl6+etg6fFA1Fzb775pvzmb/6mzJ8/v9vTA4+bdZzzuFnjkW9vLg3MY+0P1ljwsnJa9TjXLAcLB4LmtFg5ceKkU4M1jxerx414NA6M1UrNWYWElQNgjdVqzZ1wwgnyk5/8pPtVPaw+rI92Quytg+UHXqxZc113nLU+HLbmsjTH9tr8wBqrkea0L1iANZ61DsDqYxWi3jpY/gEsAkZS+Z1UeF3G2J5+qZ+EW2N582zevLmw1O/14e4umNZGH7ik/nfffVfeeuutffyN5qkS64YNG9Q2+mjjeRzwW7GmRqHJ4z/8wz8Ut2jmjjHBhzGPlzeNG0Y8Wj983njaOnixWmZx63TNWebNw5rxCV/q92KFV19pDgvcrPX28qZx45Mtbluci7DmwZvR8ccfv8/aNlpvbR32R3OWFjwOrdIcv4flpIEfkqdt9NFixazjnMfN4uDFapnFrdE6WG1Vj3NWfuijxWqZNw/+KrG2WnMaB3SzcePGffyBmzWPpxFtHox4tDb6tEpzbMu3wlofi1uINfVjrdYcv2Ffu3btPv7AQePN+rCfp35vHvxVYs2a+6Q4d2ad4vNJzIoVvu3UHFc/pH6LG8Z4HgeNN+ujvad48+DX5hnA120YnyRwwhNelzGqTk4StTZrLLanX+qnqgykeB63edw40cC0Nq0PYzOe1sfihlWNlYXS2ugDj9SPz+NgxZpayOFTTz0lL730UlHRx3n1YoWbFiv9iUfj0Ow6YP1Fc55567Bs2TJZtGiR2uZxY43SeDD69KbmgjW7Dhh9tHVFt/n/hFUDueYW9TyW3ffxaxrBqmou9WHt0hzzoCEsbaOPFitxWMc5j5vFgXxbbZYxj7Y/YNZY8NJySjxVj3PNcrDsQNBcGitj80EYJ2nNzOPFSh8rVuLR8s1YrdQcBYvm13IQzBqr1ZpjW21fxbQ+bM/6hG8m4jZvHfBnzTWvOThRfNFHy7fFz9Ic22vzhzbN30hz8Eu5eZrT1iGY1oexWR/WScuBtQ74tXXYezkiX6MxYDNgZ7G+srTGYnv6aYAklsLjxld81td8zcbjcasaK6LQQB/tK1B8Hgcr1mbhxQo3K1bi0ThUWYesOZ/b0KFD5c///M+7X9XD49bXmquyDvSx1jX/Jqwa0LV2i3pvHfBrGgFVNaehXZrzQB8rVus453GzOJDvZvkxj7U/WGPBy8pp1eNcsxwsHAia02LlJMm6NMyax4uVPp7mNA6M1UrN8cm+BisHwBqr1ZrzYPWxLkf01gF/1lw1zVl+xrH4WZpje21+YI3VSHMUaSk8zVnrAKw+rA/rlMJbB/zaOvTLG3OETzRSeNyqxmqJjz7awuPzOFixaoCbNgfwYoWbFisgHo1DlXXoT5qz4HF77bXX5Mknn+x+1QMvVnj1teasHFTVXC7CqoE3pP5+Yw7eLPk9GJ+OpqCPFiuwjnMeN4sD+bZyZ4F5tP2h0TpYOa16nLP2SStWCweC5rRYObnXtBO4afN4sdLH05zGgbFapTm25ZIorY+VgxCrhlZr7u233y5+x5kicNB4h29mUnjrgD9rrprmuNxPW1fG0XIHX0tzbK/NH2LV0EhzWuHvac5aBy/frI9W+HvrgF9bh35ZhPFVIjt7ikYJrBKrt9NqC4LP42DFqgFufGWq8fNiZXstVkA8Gocq69CfNGfB42bBixVefa05KwdVNZeLsGrIRZjIG2+8UdyYY968ed2eHtBHixVYxzmPm8WBfFu5s8A82v7QaB2snFY9zln7pBWrhQNBc1qsuQhrr+asG3MEDhrvXIS1V3OcO1v/e1bLHXxzEWZrrleKMGCN5ZGs+kZhicXqwxz8IDFFowQ2Gyu8vZ1WWxB8HgcrVgvclGPEiBHdr3rgxQo3K1Zrp62yDv1JcxY8blacwIu1rzVXZR3oY8Wbi7BqCEVYmldvHfBrGgFVNaehXZrjcpvHH3+8OAlIQR8r1ionJ15+rDYLzKPND6yx4GXltOpxrlkOFhjHW+9O0JwWK2NpJ8TA42bNQx9Pc1obY7VSc9q+AKwcAGusVmuOqz/4DbsGq08rizDg5TRrToob22mXS8LB4mdpju21HABrrEaaa1URBqw+rI/W5q0Dfi3XAwgoBEVlF16XMbaHiNWm+dlea4M8gWE8j9s8bozXLAcsnQOzuGH4m5mH8fFzRxRtLtqIK/V7sXocLLvmmmtk8uTJ+/i9WGmzQJ+vE9gprANUI2i5s3JqmbUOaIbLZnlzSduw0CdlvmuHrrm9n+XsfdLTXlZzXeCaZz1fX9Xm7H7W/dB1ffTusPlXXftEPH6weJ7YwM0335yLsArgzYgbc6ChWA/evo9fOy6FttRX5jiX+rBWH+esseAUkLbRR4uVPsRDexqTx83iwPZ9jf05znUqOD4SU5pvax2a1Rxrzz7ECWQz2q6yf/WG5qw25tE4tHIeYqhyPhegtVnzsD6cfKfzVFmH0Jb6GBt/bx/nGLsvNJe2adziNs1vcWDudmqOAjHNXbPrELelPsZmfVindB6LG4Zfy8EAnBidebMOr8sYg4aBU7PGCn121cjv2dNVNWIhgWGnjftgxclozb97d1dCg3UFXav0i2TUxtnzVfH1IWN8GZ3A7sHfPd+OnSEBtTGKtu4Dee1skX4FijH27D1n3cO8tbnwsc3uWp/d9K+NxZjFWIFXbayvau3M/xGfANRORvHTD//uWjscwpsiMTE3CNyLN83a465ibOKujfdl1x1cwjy7atsUX5XWHtlu7/yRBaT+IJbUjyEu7srHJ8ixzZ49W+6//3559NFHi+dx26xZswqLfXEb/4Qx9eOz+lhmjRXaLL/WNmfOHHnooYcK43nc1ogbt2lFM2numt2HrHVg/c8//3z5i7/4iy691Sxu/+KLrj6fffiuzH/miYLrEwsWydbakm/96IN6bjX9fLFhlTz3xHOy/sNN8tyT82TVxq47+wSztICG4Yg6d2zfKu9+9FltvM/ljRcWyMuvr5CNm9+VVctekmdfWCSffrFDVi9+WZ57frFs2LhWPtjadVe+Lz/ZJM8/OVdWbfq4Tr+xkTetDeQirBpCEcbJaqwfb9/H761R6kNn+HmTbXZ/qMLBMm8eYre4afOwLfHQnvaDm8Xb48DxgmOMdexKjf25r49zFgd8vAeUjQWrOo/Wh/ce5n/mmWfUtWiV5lh7Tu7DCXHchlnzePtXuzTHHFYbv4fXOGg5CGaNZXEjX43O51IfRuza9pjWh21DEZbmzVuHZmNlbPy9fZxj7E7XHO8r2nj4NH74Lc1Z3EKb5re4kS+ufGhWc4zVDIdWa67PfhNWFCPdhUcAQX3+mfFVYq1PURHViqkYJCGApt07P6stwic1oWyTLyNqe3bWFq77Ob+T4p8Yh6F27ODJV7WT102yftNm+Xjrh/LeB1tkBzvExx8W/+x408ddvCjk9uyp7ZA1IQZ88vEnsiumVSu6dtTGo1D7FPHBvYbdtW2+JPba8y8+2yofbN4omzZ/WLTJrm3y3qb35KNPPpKN69+VTz77ooi7C9xgoytvcbw7a2Ns+WiLbN2u57rMOmjgf0D88R//sQwePFjOPvtsOeusswrjefx6f3zhubad9xiM1/vjix/D8zLbnXPOOXLKKacUl3lq2iffRWFcEt46zJgxQ8aOHdv9qgdd69rV56UJo+R7f3+0jBo1Soac+Au5cuIs+bRHIt3YKVOvOl/OGHOLzBg7VAadeKUsWhXvZ7Ui3qAMtz1f1faDDa/JIYcfJkNnrq6RXiHf//kxcvN9s2XSTcPkwYcnyA+PHiRPL1kuZ51+opx/0wyZPOYYuWPBuq5BPn9HLj3sr+TSKY8V2tdA3rR8gnw5YjXwZtnffxPGOORBa6OPFisgHo2Dx83iQJ8jjjiiOGacd955+xxrtONMeK1tlz7X2sJr6zHeLvVZz+PXsXnbxa+1x/A89muv4+ccg3lv+ulPf1q8V6Woqjnt+MOJEyd1KTzNeftXI81pHKpojnFoS8G2nEBqfawchFg1wMuKlfM5LAXxW+OFE9UUgYPGm/XhZDmFtw74tXVoFGurj3Navjtdc/wfNy0PjKPlDr6W5themz/EqqGR5jjep/A0Z62Dl2/Wh3VK4a0Dfm0d+qQIo/2tB26Xa66a0+3tAkFpJEMKnps4VSbfu6z7VRcobN5fMksOO/tyef3Tr2TuTafLBVfdIAsXPClLX39Cpt05Xh56fqlccO7h8pNhjxR93nlugvzFX/25vIrOP3xOzjz9HHl+8w55avIIOfrnP5Fv/fXPZMgl18t9dw2V7/3sZ8VJ908PPkleXLNF5t51gdz7/Esy4+JLZOYLW+Wj156SoWdPlo1RuLs3LZLhlz0kHBYeve0iOeTs22vPvpKHZ1wux511ksx57W25Z/Qh8uMjB8kpJ54gI29+Vpa//rice8px8u0/+7YceuypcsuEMTL2lnFS3Gzzw4Vy58QrZUNRLPbgnaeny81XD5eDzr1FPt53GVTxBHhiWb58uRx33HHdrzJSsAMOGzZMPfBbO60Fbx0sdO1fXX2eu+4quW7couL5ly/fJWecOUoWr14hS1d3nZysWvOavPba4/K9w34ml942U0b97fdlxK3ccfErWTR7stx210zZWBtq5/tL5ZVnZsrtT74s2yP6fLO888tNcv/Vp8nf/OAguXj22tpES+TEa++VLbJLXlvwmGypcbnljjvkkRdelgvH3Slvbt0u9485Qu59/QP5cOUL8uzid+WdedfKhHumiyLTAuRNO5aAXIRVQy7Cum7M8Vu/9VvFHRJT0EeLFRCPxsHjZnHg8pgLLrhAvSNvRnWMHj26eK9KUVVz2vEnF2GN930r1ipF2MCBA+VntXOuFIGDxjsXYe3V3NKlS/ONOQ70Igy8Mul6uWL4PTJn/uNywYWnyqDzrpa3lq+UG2+9XkZcdLxccMujsuy1J+WWJ1+Travfkiduu1fO+vu/kT8ZMkXiEL/atkEemXq5/MnPT5LnP/hC5k8aXyuW1stLj0+UBXPvkUHnHCtj7p0tZ180VI48/ZqiMHryjgvk7/7nN+WtWlGzfvZ9cs2Qi+Tee14txtv4zCNyxZmziufP3TtIBj3c9eb99qRT5bq7H5OHbhgoN89dJZ+ve1Muv2GM3DzhCnlpafIjxS82yZ0X3yDLN78vd0w6S4ZfcpusXv+OzJwwSkYMO1LueHK+TBx1pExfCpvPZezFJ8idb7DTfSI3HH29vFbT95410+WkEw+XOS+/LM8/fK2MuPCc2klvDR+vlOde3MQzeeWO8bJgwTy5dfx02bBtX6GAiy++WMaNG9f9qgeeWFasWFHcpcjaCfs7+G/pXCqo7YTWTmvBWwfyr+20XftXV59Fk0bL//zmD7q+nfvFoTJ97hp57aGhcvZVNxftF195kFzzwANy1C9+IEMuv1Mu/sdvyuAr7pWFz90lF90wXu6deJlc9chTsvDe4fKDgw+v7W/1RRgcvqzNBc+Hb79Ehj+yovYu8bYMvPJO2bh1g4wdfri8vOZ9GXfbRHn0pUVy4fUTZeGGLTLj+qPlmgkPy+hh18njr6+WZY9fLrfc83AuwtqIXIRJcRXDlVdeaX5josUKWlmEceUFRRg/aM9oDTj28t7Ge1WKqprTjj+5CGu871uxVinCuGRWO9YHDhrvXIS1V3PcXdzKt5Y7+OYizNZcnxVhr04ZLzdefo+MGXGJDJ0yX2aNPV0mT7hNfjLwZJn92mK59aYL5LSR58lpt8+WD19+QiYNuVmuv2SMnD3+pbpLmnbvqS3IpyvknEtGytyNn8nzd9wqL61YJveOOVIefmWNzHpxvqxc9bJcet2NcuZ142Xegjfl0aljZPSo0+Ttdz+SZ2fcK6+8+rKMvfVaWV3L3ea5M+SKs2YWYy968GT5s58fIZeMvEiOOvY4eW7pOzLrpoEy7smuA//Uod+Tw4ZNK56nePqJyXLNQ0/JrDtmyHML75fRU++RcdPnywM3DpJJTzwvky8/Vh5446Ni2+dmXyXnP843fB/JDcddLy9vqAntnVly+Pf/VAYPGybnnXKInHHBCHl10Tw566RD5e+/e4zcctezcseph8uUOx+SSbfNlI2f7SsUcPrpp8vll1/e/aoHnlh4Yzv++OPN9v4O7qzZjiLMGqdr/+rqs2DcGBl2wT3Fyea6F++Tsy66Tu6+bbiMGj+laL/s+iPkvteXy7gbrpBZH26TeSMGyewFS2XqGd+V44ZeIzdcM0y+fcSVcvut58nISdOLPjG6DhxdPKbdPCIpwjbKDRcdLa+srS/CXnh/m8y8+Lvy7/+PP5CxT3ad/L41Y4TcnIuwtiIXYfY+BOijxQp6owh75513uj0Z+wtOAnMRZsfKOLSlYNtOLsIsBA4a71yEtVdz2vYAv5Y7+OYizNZcnxVhi26/UcaOmirXjLhebpjzoSx/6mK5/Y5xcvSI22qliMjMe0fLUUOHyrm3PSebXnxUrj7/NrllzM0ycvKSon9AMdq2pXLK0GHyzMbPiyLsxRXL5Z6rjpa5awOHD2XETbfK7fc8KJcPP0dGTZ4pd990hjz+1Gw59sfflVNOHSR/+63D5aG3P5L3582S0YNnFL0W3neSfH/4FfLY7WPk0B+eXly2NXPsETJx3jvywbKZcs3lo2Tk5VfJXS/u+0aw8vVX5JLBp8uUBW/IR+8ulyvPGiaPvLNOZlw/UG6dPU9uG320zFwF+z1y8+Unym2vcKnK+zL2qGvlpfVfyfal98j5l1zU9a3flnkyYexQeWvDGpk2/hIZeNrVsnDRGrn/rONk6rQZctvER9QijHVAKJqIPLHkIsxHu4qwCRMmFL99SNG1f3X1eW7slTLm2ueL5/LJK3L8mSPl1vHnyTnX3lq4hp39U5n60mIZc9lwuXflJnnszCPk/jlvyP2XHinn3jxTXnzuEZl096My645z5aJb9v1AoWsf7zpwTL1pmAx9eHlUhG2Q67q/CRsfF2Gbtsg9o4+QS667XkYPvUre/GyPrHl8ZC7C2oxchHXNo8UD6GO15SKss5GLsC54HGhLwbadXITRpnELHLS2XIS1V3P0sQoQLXfwzUWYrbkBTBIMIcevGxnbQ8Rq0/xf1qyWElk09VYZf/W9ctNl42XcnPWyeM7lcu99t8vB3z5SfnHy8XLihWNk8avzZNC3DpKDTz5Vrrj8IXn0tqvl0BH3djGPseVtOWfkpfLs+k/kucm3yavr1sn0G06VeatrBwAS+OV6ufjGyTJv8SK57NRDZOQD8+WOq0+RsdcOl5uffLVI8rsvTJYL7pwlq+c/KdcOm1mcLD73wNly5oNPF1O8NuUGGXrpHTLllvNk4tS75ZILr5a5XB+48Um54PTBsmpbsVkP1r8lQ88+R2avfq92cryudjJ6ibz00VZ5/NYzZMozL8uUET+WHx99mgw+9UQZcsk98h4//tr5row/Zby8sn6XfPr2A3Lh6ItlU43IZ6tmy7ixF8vmWihfbdssy1Z1HQgeHXKC3H3vLJkyeYas3fJl110Xk3wHgaV+1k1bI0SybNmy4nJES0z9HRRh5557bvFbDw4Icf6a2YfIr7UO4Prrry9+zM92WNzO3RHBy3dcKd/724OKYm3gEYfIqNsXyPvvzJVTD/2eDDr5AjnspLPlodffkuuvGSUPr94ksy84sVaErZbNa+fKuRecIsOHDJKRtz8uCx65XC6beJ/srGmsuFtnLa44Nvlqp9w74VK5ZOYykU/fkOMunyzvfFTT6+hB8vLqjXLDLTfLQwtekOFjb5EF6z+UB28YJI8s/VAWTbtCLrxpjrz22BVyy7Tpws8ad+3siSOYlTcwfvx4mTZN/8Y5wwZ3ReQ3FrwphbX0NEcb/maO6YzLPOGuYWm7ta6Y1cb8WKp5z6x4wmOwuN2anzj4/RZxxTHRP3CLtw/GeGkbx15OWnIR1lqQ54suukiWLFmy92QpWKs0x9pTQHP5VTPaZhyrzfLvj+Y0P2a1MY82Hts3O0/glu5bxBDuVFcmd/QPY4Tn8Zg81zgwNif4rJOWN61PGKuZWBm7ynHO4hDa0twxdl9oLs114BZvj9GHf9bMlTdl+TFOJ2oO87QQ2lI/Y7dScwM46cbCYOF1GWN7+lltmp/tIbTzyy9qi1+zz7fL9h27ZdeO7bJjw8vyo787R+59Yals2tpVmW7duFZWrn9Ptn9aOzjt2CarFs+XsdeNrRVQ18q1NbvroRdl+64d8lntRGNn7eTxwUtPkEsnPiBbt38mX9QCZk7uaPg5Qqs937HtU/n4oy2ybOlb8tm2T2RPuENj7UD+0dbPa3w+k+2fdX17tOPLz2Rb98nunt2fy+ZN78m22jifffpxbWfsqbY/Wfe63DPhahk7tovTtXfPlPe/3Ckff/a5vP8hBdNu+bTG58tdtTG/2CZf7KwVWR9tllXLl9YKnjXyZaCwZ5d8/mmNA7fc3/VlcfK0u8ZjTy2+7ds/L36bE+7o+MWG1+SSn50h191wrRw+5HrZtL3rE6Q413F1H/sxa71B/ibMB0UYdznj4JXmnJyS99hnGX29dSD/2v4Viuqi/47PZMM7q4vCecW6TfJ5TR+f1TS+/cNNsnz5O/JxbTvu8ol+PqsdBL7YtrW2X3TvW5tXyrLaNl/sqs31xdbaPvJFTV+1eGrjM0eYp0sHX8mXX3wun++obfzey3L4yJtl9We75Yuarnfu2iKXjr1BHnr+RTnvqhvliVWfyJfbazrnlou7vpBPt3wiix4YJjfc9YDw2dpXX9XHgzGPFiu45ZZb8jdhFcDxg1vUB62QT09ztFnrELSQ+kOf8Eln2s6bjrY/WONh+NGcNp5mjKXNQ/9Vq1bJQQcdVNygIx3PipXtiIf2uA/PA7d4+2C0aRzCjTlyEdY6cELDN2Ec90Cc86qaQwvpenOM58Qu9mOW5jBr/8LCPKmf8dFcqnue06cZzWEWB7blBF/rY3ELbZofXrSl+eE1uudENW3TuLENdvXVV8uIESP2vo63oU/Km21Yn/S9mOdWDmjDr8XK+F6fVh/n4JDy7mTN0cadxdFQys/iAN9O1BzGdvib2b/o00rN9dkt6jXs2PaRvPLSsuLmGSl21Qqs4vGTd+XB+++T++7rsjnPvVUrYrqrmBo2LV8gzy18pfgma3eteIHLvuD28bqf/0WmIfwfrxSMsvuLj+SFOfcXfPg/Wvc9+bxs6f4md+sn+tfXu9T5u8D/HNPQ9T/Dugbe8cFaefnFxbLk7VdlzsvLzcu8Hn74YXn22We7X/XAW4dchPlo1+WI2r4FvP3rq9p+8vHHn3S/qgf60YHuu/S96Y175cxTTpaTT+6yk04bIc92f/O6F5+vkuOOOkaumPJC8fKd52+Q7x8zWF59Z6NcecFpcvIl90vM7qsP35YLfvEdueHhhWZuiMeKN1+OWA35ckSRlStXyo9+9KOiCEtBHy1WQDwaB4+bxYGTglyEtRahCMuXI9ocaEvBtqGQSGHlIMSqAV5WrFUuR7ziiiuKOw+nCBw03qwPekjhrQN+bR0axdrq45yW707XXPHlgNIHn5Y7+FqaY3ttrBCrhkaag18KT3PWOnj5Zn208z/Gsbjh19aho4qwbZ9vL/4nUYpG3LgMT4OVQAuNEmjGunNfP2B7b6fVFgSfx8HaMSz88Ic/LO6cl8KLNRdhPtpVhFnw9q9GbxSNNMc3sJ/VTho5ccS21Aq67d2/P6vDLr567/Lv3sk/NOzW5e6d8unWbcU3anuxZ5d8+UVNu7u/MmOFm7Z/gVyEVUMuwrrmsWDtD4B4NA4eN4tDLsJaj1yEdcHjQFsKtu3kIsxC4KDxzkVYezVnzcM4Wu7gm4swW3MdVYRV2WlZEEssVgKZg2taUzRKYJVYvZ1WWxB8HgcrVg1w27x5s8rBizUXYT7aVYQ988wzctddd3W/6oGnOfTRSs11XZpYXnOAb3K1HHjzwE3bv0AuwqohF2FdsVq6svYHQDwaB4+bxSEXYa1HLsK64HGgLQXbdnIRxvxafgIHjXcuwtqrOc5/uOwvBeNouYNvLsJszfXLIozrU/lxYYpGCawSq7fTaguCz+NgxapBiz0AbrS/9tpr8uijj3Z7u5CLMB/tKsKGDBkif/iHf9j9qgee5tBHX2vOyoEXq8UN5CKsGnIR5sPTHPFoHDxuFodchLUeuQjrgseBthRsm78J64pVW4dGsbb6OKflu9M1l/9Zc4uLMJwYgTFoeF3GIBgGjg0i1lhsT7/UT6DhEiiex22NxtM4YPShb+pnDr4JS/3kQOOGWQvYCNpCdRI4Mfjd3/1d+elPfypz584tfPwzYu6qRl4z9gVFmHVjDktzlnma42DCQSX1W/sDXFizcMBL2y1ujXRv7V+WVZ2HfMb7C36Qb8xRDegnvTEH1mgdaE/9nay5wC2dB7Cv8n8S16xZU7yO2+mjxUocxAOHNCaPm8WBN+xchLUWoQhr5sYczeqetW/1TRLaoTmMOWhL/VizN0kIsaZ+DF5arMTQzPkc24AHH3xw79Ufcb/QJ+XNNtpNEjBvHZqNlbHp0+rjXMqBsTtdc5wfckxL/cyh5Q6+luYsbiHW1I95mrNuzOGNp60DFvqkvBm7lZrbe4t6JuPAFl6XMbann9Wm+a15IEdg4RPIuM3jRluzHFhEEpv6G82zfv16efrpp4sbXcRG8ZL6nnvuueJysscee6x4nrZrfYJZbV4fy5566imVMwavV155Rb797W/LgAED5J//838uv/jFL+Tmm28ubo3OOmTsC07sWnGLeszTnKVTTOvD9hwYuB1sOFDFRh9tX/E4WH08s8by5gn7P79fvOGGG+oud+AW9bkIax5ogSKMYizWadX11vqU0Vzqw9qhOfDqq6/K7/zO7+z9gClut+YhDu3WzZjHTeNA3jnRyUVYa8EaNHuL+mY1x9pzQscJZHqcx1o1D9ZKzWEeh1bfLlxrI1+cy3FMT3On9WEbTkg5Xv385z8vnqf9rHlYH94v0rx5OcDfTKyM3Y7jHGP3hebSNqtPMC0HFgf87dZcys/qgzXLIWiOdWrFPP3yckTG0zh43Bhn3rx5cvrpp8vZZ58t55xzTmE857Kx8Dq2s846S0477TS1jT7xOMG88fAzptaWGkUCj7/1W79VfNPFNzfBhzEPYw0fPlx+8IMfyD/9p/+0KMSw//pf/6scfvjhau4ypPgWlZOqToWl4QMB06dPLzT4x3/8xzJp0qRiH546dWouwiogX47YNZZ1yQ19tFhB+DAwhcfN4sCbdS7CWgtOaPLliHasjENbCrYN3+aksHIQYtUALyvWKudz7CtYisBB4836oIcU3jrg19ahUaytPs5p+e50zfG+ovXBp+UOvpbm2F4bK8SqoZHm4JfC05y1Dl6+WR/WKQXjWNzwa+vQL4swKmVuXZyiUQIxxosNbixG6sfgFcSXGn2YL/XjC7xTw69x8OyFF16QxYsXFzHEfriFuf7qr/6qOPH9y7/8S3nggQeKTxfz5Yg2eOMfNGhQcdtrro/m94XhER/543lqbMMn86zJiy++WNjzzz8vCxYs2Ps62MsvvyyzZs0qLs9YuHChvPTSS8W2TzzxRGF8w8rjk08+ufcRe/zxx4tCJryOjX+fgDFmbKz5vffeu48fw08f/lkyRdHtt98ukydPrnsMxmts4sSJe5/jpx/fbo0dO7b4P3r8E+rUrrnmmuJxzJgx8uu//ut7PxD4xje+UdxiHA4ZzSEXYV3zWKCP1Z6LsM5GLsK64HGgLQXbdnIRpvECgYPWnouw9mqOc2e+CUrBOFru4JuLMFtz/bIIQ3jLly/vftWDKgkEWg4CtJ0JeH2sefBr8ewPODn/5je/WZxkh9j5/US+MYcNiiRumMEJLt+MBjv11FOLbxlHjhxZnCCkhp//gZJ+k8o3kjwOHTq0+D8p/Ibluuuuk7/4i7+Q3/zN35Srrrqq8I8ePbr4R5YY44TnGN9oXnLJJUWRE/qnNmrUKLn00kuLcYJddtllhZ++N910U3ETDH6DFWzcuHHF5am0UShpBj+2mzJlSlF03XbbbcXjHXfcURjPuaTwxhtvLIoxnmP0CePzOwAKPr71+o3f+I2iAPsn/+SfyLe+9S056qijiv/Bl9EcchHW1WaBPtaxlng0Dh43i0MuwlqPXIR1weNAWwq27eQizELgoPHORVh7Nce584cfftj9qgeMo+UOvrkIszXXL4sw5tfmaZTAKrF6O622IPg8DlasGuCmzQHgBgcKLq4JjsEbWy7CbPCbMAooTq7IUWwcAFgj8qsZ68G6BGPboFMsBt+c8a2ZBk8H2uUcBwoo2H75l3+5+P92s2fPLnwUaPlyxOaRi7Cuqx7mzJlTnASkoI91fCQejYPHzeKQi7DWIxdhXfA40JaCbTu5CONuzVz1kSJw0HjnIqy9muOYquWIcTQ/fHMRZmtubxHGRFZnCyTDWlxrLLa3FpfkaQn0uBG0lkDQbDwet6qxIlgN9NEWF5/HwYrVAjtZWmQBL1a+bs5FmA2KML610vLX7PoAS1cerLVjLO0ADqw+wOKNv1l+3v7g8eYAyonVzJkzu71dyLeor4ZQhKVr660Dfu24BKx1ZXzvOKeh1cc5a54333yz+DZ5/vz53Z4e0MeKlXg0Dh43iwO6zkVYaxGKMO1nBVU1px3nOAnT/icSsObx9q9GmtM4VNEc41htViFh5QBYY8HLirXK+dwJJ5wgP/nJT7pf1cPqw/poJ8TeOuC31sGLtdXHOS3fna45SyP4LX6W5tjeGs8aq5HmtPNdT3PWOgCrD+ujFXWMY3HDr61D3d0RebMIr8sYAXMw1NqssdiefqmfYBEExvO4zeNGwrW7u2BaH8bmk0m+Tk3bLG5Y1Vi5K4zWRh/iSv34PA5WrKkRJ3bIIYcUl7qF16HdWwd+v3TccccVzzP2RXx3xDinmKUFyzzNoQV2XK3N2x+sOzj1tuaCefuDNw/9wsGQR/zEn++OWA3kNNwdscy+j+HXNIJV1Vzqw9qlOY7z3B1WOw7TR4uVONhe4+Bx0zgwFp8Cc/lwLsJaBzQc7o6YHiOrao4xYx9rx7kCv39pRtve/mVpDkNzKQesWc1hjGO18T+eNL+Wg2DWWPDSYiVfVc7n+E01d2zW2rQ+jG3dHdFbB/zWOnixtvo4l+absTtZc3B67733zHxb/CzNsb02f2jT/I00x4fQKTdPc9o6BNP6MLZ1d0RvHfBr6zAg7Ci8UfCGFV6XMbanX+qn6rXG8ubZvHlzYanf60MyMK2NPnBJ/bwZsrOn/kbzVImV29prbfTRxvM44LdiTQ0hwo3f4XA5FztN3M482lhsx80juEU9AsvYFxRh/I6LgxF5jvPHGmmas8xbb+7CyP/kSP2e5ljTvtIcFrhpObA0hwVuaT45CPI7slyENQ/erPhGO13bRuutaWR/NGdpwePQKs1hvNHxhpn66aPFihGPxsHjpnFAz4zF3WlzEdY6cLJz4YUXFifs6dpaWqiie05SvWOwNU+j45zWhk60Nvo0oznMipVtmUfrY3ELsaZ+DF5WW5XzuXBCnPoDB40368NJfur35sFfJdZWH+c0Dp2uOc6d165du897tRUrfNupOc7LUr/FDWM8j4PGm/VhnVK/Nw9+bZ69lyMC62s0C3wtaH3NaY3F9tbXnOyAmAZrPD4xt75KtPpw0NbeED1uVWMlyRq8XHscrFibhRdrvhzRR7gcUcuPt64avHXgxO1P//RPu1/Vw9sf+lpz3v5gzUMfa/+aMGFCLsIqgGMplyOm6+etg+UHB6LmPHh9iEfj4HGzxmMd8uWIrQUn6lyOuGrVqm5PD6pqTjv+cIzng0kN1jyNjnMW0JzGoYrmGMdq46RSg5UDYI0FLyvWKudzHqw+rA/fMKTw1sHyAy/WVh/ntHx3uubWrVtXFGApGMeay9Ic22vzA2usRprjw0cN1njWOgCrD+ujnf9562D5++WNOSx43KrGaomPPprI8XkcrFg1wI0+Wg68WPONOXxQhJ1//vnqgb+VmuOGAtzuPYWnOfTR15qzcuDFSh9t/wL5N2HVEIqwdP28dcCvaWR/NKdpoV2aYyw+fdS0RR8tVkA8GgePm8WBD/1yEdZahCIs35jD5kBbCrZlf9D6WDkIsWqAlxVrlfM59hUsReCg8WZ90EMKbx3wa+vQKNYqx7kq0MbqDfS15ti+1ZrTCn9Pc4zlcdB4oznt/K+K5nIRFqFRAqvE6u202oLg8zhYsWrwYvdizUWYj3YVYRY8zaGPvtaclQMvVvpo+xfIRVg15CJM5PXXX5d/9+/+nTz33HPdnh7QR4sVEI/GweNmcchFWOuRi7AueBxoS8G2nVyE8TMI7oybInDQeHdyEYaP39jzfy75/52x8W9X+B+dqZ9/1cJPSFI/Rh/+f2fqZxzaUj/Geyf/Y1RDX2uO7VutuVyE1eAl0CPZriKMN8V33323+1UPGiWwSqzeTqstCD6PgxWrBS5p439HpfBizUWYj3YVYay1NpanOfr0peYCN423Fyt9tP0L5CKsGnIRJsXvA7ixC/tsCvposQLi0Th43CwOuQhrPXIR1gWPA20p2LaTizD+LcnDDz/c/aoHgYPGu5OLMMAx+JRTTin+fyb/EzMYx6X4dWxWm9dHM/7X55gxY+SnP/2pGm8VzXE5onZZZhXNsX2rNXfAFWFMgAWS4XUZC+RTvzdWIKm1hZ029XvjsSBY6gdaH8AP8fh0Im3zuFmxYh43RK610Ye4Uj8+j4MWq2WAu/jxD3XTNitWwD/jGzhwYPE8Y1+gH34TxoE/zZ2lBcu8daANpG2YNQ9j9aXmvH3V27/oo+1fIBdh1RCKsDTn3jrg1zSCVdWc5m+l5jBrHiwg9dPHipV4NH4eN4tDLsJaj7QIi/NdVXPa8ScUYakfs+ZpdJzzNKdpq4rm4KC1MTcnxBoHKwdsa80DLyvWKudzAVqb1ScUYam/1cc5Ym32OAcowF5++eXieV+A/Bx55JFqLprVHOD/l3IjFBC3VdEc27dac7zvpX5vPMbSOGBWn1CEpf4qmqu7RT1CDq/LGNtbfTy/1kZiqa6DKOI2j5vVFvw8pm0kkE9IU783jzWW1YeEe7c0bXY8zOrjGdtr81vzIBKKsIMPPri4lIdiNVuPcQB66qmnZNCgQcXJVazVkNNm1shaB8CdLfm/KayfNk+8PdYpmmvlPIBP/6ZNm1Y8zygPtMCHKbwpldEP1uzadYLmwlhWH2JvhhvbEg9xpf3o0wxv3pQ5AclFWGtBnrlF/VtvvVWcyMQ5t9YVXzNrx9rzA3w+dLPOSVoxD9ZKzWEeB06gtT7WWKHN8mtt5ItzOc7prNzFvmDEnm6PhT4pP7ZlfcKNEuI2bx5tLMzqw9gcR5s5zsGN/f/00083LwdsB1hvirD0fYA4guZi3hjxWLkLd7wsm2/87dZcK7WQtrVacwNCNYZYcITXZYztIZT6q1SxgJNaDMRtHjdrPIyAtcozIPUzljUPc1SJNXwNmxp9iCv1e7Hi1zhYBje2t2K11oFLdzhwnHzyyTJ48GA544wzCuM5vvA6+NJtUh9jhbZ4u7gt9VuP8VjBF4y21Jf2i308nnrqqYXxPO0bxov9Z555ZlEYjR07dm++4vxZmrOMddDWG/AN0GmnnVY8B6HN0xxr2teas3JgaQ6z5gFcUpG/CWse8TdhIOTU0hzGtppG9kdzmhbaqTlvHi1WjHg0reLT/JgWK+DNOhdhrQUnNHwTxgeGIM65tg5YFc0xT7j0KvY30pynEU9zGodmNYdZumdbTiC1PlYO2FYbC7O4gSrnc4xlcdDyDVgfConYj1k5wJhHW4dGsTZznAvgPGLBggXdr9oPvnA46qijCv4g5lhFc+QtHQfrFM3xbRiI23pDcxwbYj9WRXP98jdhbM9Om8LjVjVWKnMN9CGuFPg8DlasGrTYA7xYER78yFFq/H8ETipSPz7NjyFYTghTP2sdDqBljW8x2dFSP+NbY7E9/bQ2PgkKnwbF5nFjvGY1Z8FbB01vwNMcvPpac1YOvFjpY8WbL0eshlCEpevnrQN+TSP7ozlNC+3SHJerff/73y++1U9BHy1WQDwaB4+bxYHjRS7CWotQhOXfhNkcaEvBtqGQSGHlIMSqAV5WrFXO50aPHl38jj1F4KDxZn3QQwpvHfBr69Ao1maPc6BTijBNQ1U0R761vFbRHNu3WnO876XwNMdYHgeNNzng2JCiiub6ZRGG8LSDd6MEVonV22m1BcHncbBitcBlXPzYNYUXqxUPoNDScopP8wMtbwFemwYtZwHeWFY/Dt7aARxY4xGnNZ6lOQveOnjzW2uEPvpSc4GblgMvVvpY8eYirBpyESbF/5E69NBDi8vWUtDH2o+JR+PgcbM45CKs9ThQizAPaE7jUEVzjENbCrbt5CKMK0xGjhzZ/aoHgYPGOxdhPlpdhLHP8Y+HU1TRHNu3WnO5CKvBS6BHsp1FGP+QOEWjBFaJ1dtptQXB53GwYrXAXXG4jC6FFyvctFgB8WgcqqxDf9KcBY+bBS9WePWl5gI3LQdVNZeLsGrIRVhXmwX6aLEC6zjncbM45CKs9TiQirCX77tVBp95lpxzzjly+qnnyuzFm7tb6oHmND3u3Nl1qdSbL06V+15bKbt37ZAdu7q28zjQloJtO7kIsxA4aLxzEeYjF2G+5hjL46DxzkVYBBbEEouVQGu8RgmsEqu302oLgs/jYMWqAW6IXxOlFyvctFiBdXLSynXwUHUdrFjbpTkLHrfHHnusuM1sCi9WePW15qwcVNVcLsKqIRdhXbFaY9FHixVYxzmPm8UhF2Gtx4FThH0htxx3klx43azi29i5946WI0+6VDYqu9Knn+/7PgR2dtN6YMIv5NT7n5K5D9wgVzy2pPDtdDjALwXbdnIRxvze8UfjnYswH60uwlhTra2K5ti+1Zo74IowJsBCAsPrMsb2JCT1MxEEeUzb4gTGfkACecMCcZvHjbEwrY0+GoeA1Ac3ax4vVq1PGA/xgbSdPsSV+hvFypjaeJrBDdO2bxSrxg2w06brB7x1QAvNxmoZ21vr0Mma0wxY6wD45PSb3/xm8RyENsa3+sCrrzXnrYM1j8UN5BtzVANvRieeeGKd9kGjdaA99TfSXDg5SdstLbRLczHSNk9z7ENx3oIfHxZvH0w7zoFchLUeoQjTbszRKs0B5uG3wSDe3tPc3v2r6PWZTD5thMxY2PUeIztel9N/eKYs27FHVj9xm5wy6GQZMWaKfL59p6x45iEZNOgUOfnsG+XtDZvkzvtGy3Oba/pZ9qRcfd+z8uC9g2XoXXfJGT//U/n9o66QzbVzyj27u07sUg5WrGyLtrU+bG/t+16s6X6CAXQfirC4zVuHAK2NPikHEBdhsX/vOkTbB/Ni1foA4mzmOBfQCUVYuEU9iPmhBfIAYj/bYsEXW7p9sANVc/itWGnT1rWVmuuVIiy0aX4vgc2eEIMwXtqG0UdbRE5OuGVm7AtjWfMwhxYr43vcmj0htsbDAgdtPM0YKyBtayRKjRuoUoQxnrYO/UlzmoWxrHmYQ4vV0xx9+lpzVU6CLG4gF2HV0GwRBti2GY2EPs0WYe3S3Pr164t/rM5vw9I2T3PsQ3Hegh8fFm8fjPFSDuDAKcLqeXcyqhRhzWoOVCnC9h7nil47Zcppx8sPDzlVRlxwvpx4yGFy6X3PyRfvvyHDB54l85csk7suGCjjHpsjNw88SYbf/JjMffZZmf/2Yjn/0h/KtNW199wXJ8sho+6S+6edLsNnPCMP33qhnDX1Bdldm4BvwlwOiZ9tmz0hDm2an+3T/QQDzZ4Qg7tqRSbH+7QNo0/KGzR7Qgzg3NvHuYCvWxHGLeqbOWfqdM0xlsehtzXXLy9H5HaZ/M+nFB63qrGGnTYFfYgrBT6PgxWrBrgtWrRIli1b1u3pgRcr3LRYAfFoHKqsQ3/SnAWPm7UGXqzw6mvNWTnwYqWPFW++HLEa8uWIIosXL5bf+73fk4ULF3Z7ekAfLVZgHec8bhaHA6UIW/bYVfI7v/M78v0L7+n2dC5CEdb5lyN+KXecfoaMGPuwzHtkovz0v/+jLHivNs/yx+Wvv/FDGXLOOXLW4GPkyqdfl81L58no4wbJKQNPlLsemSUXXH2kzHy/Fusb98pxV91XK8JOk+Ezn5PZd10hI2d1nb983S5HpGA5/PDDu1/1IHDQeMcnxDE64TgHvm6XI3LuHP5Zc4wqmmP7VmvugLscsfvRJWmhEXkNHsl2nRAzB7daT9EogVVi7csTYvDtb3+7+IetKbxY4abFCqyTkyrr0J80Z8HjZsGLFV59qbnATctBVc3lIqwachHWxY39W4uJPpofWMc5j5vF4UApwl6bNkQGDBgg//m4cd2ezsWBU4R9LjcfO1huf7zrfGPt7OvkoJ9dIkvWviXXn3OezHnjLXlkwjh5asGr8sQd0+SxhW/K4zdcLFcPvUEuveBUGT55gcyZdJ78aPhkmTblODlz+jPy1O0XyTFXzJRtO7+SXbV5LA7wS8G2nVyEsa5aQRU4aLxzEeaj1UUYVxdwl+wUVTTH9q3WXC7CavAS6JGsstOyIJZYrARaaJTAKrH25QkxePXVV9U3Ki9WuGmxAuvkpMo6ZM353N544w2ZO3du96seeLHCqy81F7hpOaiquVyEVUMuwrrm0fyAPlqswDrOedys/BwoRdgb951fFGG/P+jWbk/n4sApwnbKi/c/Ii8uCXeT2yJ3jrpGnly9RT558zG5kDsmjrlV3t32max6fpacMfgsOffia2RV7S1p6ytz5LzTh8hV10+SqQuWyxuL7pMZb78j25bPlUvOulVWbt1Tm6vrMqoUcND0yLadXIRpvEDgoLV3ShFm4etWhFk5raI5tm+15nIRVoOXQI9ku06I8Wm8GyWwSqx9fUJswYsVblqswDo5qbIO/UlzFjxu/NPKP/uzP+t+1QMvVnj1teasHFTVXC7CqiEXYV1tFuijxQqs45zHjbFWr14tL730UrenCwdKEbZk+gVFEfb/O+W2bk/n4sApwuqxI9zqUMGnn2/vflYeHgfaUrBtJxdhFgIHjXcnFGG08dvBV155pdvTg69bEbZ9+3Y1d/ujueeee07efffdbm8XqmrugCvC6IQRGIOG12WM7UMAsXljsT2BpX4C5SvO8M+A4zZvPMbSxsPoQ9/Yx9gIjzdLEhK3wc2ap9lYw6Lz+7N0HkzjhnmxWhwaGUh91jpg1jzEQTy0pzE1uw6YF6tlFjdvLCvWdmnOM7hZ8/Cj85dffnkfv8WtUzRnzWOtA2bNA7hNfy7CmgdvRtyYg9yi794Eb8ydCAqgRx55xDx5shCOCSnweblct26d/Pf//t/lF7/4hbzwwguFj+2HDx/eUUXYV3t21fTRdZIc7IU7zyqKsG8cf0OdH/ty174nKX0JTrr5p77ccCUFxz4L1tpZfo5JxK+hyjxeHzSngbGqjGe1aUUlsOYA1lgeN9ZIK46ANR7vd1bBYvVhfVgnDRa3qrFaawTI63e/+105+OCD64ox/k9rJxRhWsxVNEexZPWrqjluyPK7v/u7MmbMmOL8JSA9H8Cs86+wPhzzeR63eec4jKWde4Q+6bkMY/N+wvsr8cZtjGPNo42FDQgBYeww8etGxvYMbLVpfrbX+kCOTxIwnqftzY6HaX0YG1HyPztIWNzGONY8zcbK2JyYfPDBB/vMg1nzYFU4WMadbPjHeqm/Ud60NuIgHuLScueNp/kxr00zLwfWWBa3dmnOM8ax+oQDlNam9ekUzVljNcqb1gbGjx8v06ZNK55nlEcowtAE+uYGPfzvuaeeekqef/551ThZ0PxY3MaNLoLNnz9fnnzyyaLoiP2Ytn14/eabbxbH4dS4mQamtVmmbc8J+vTp0+U3fuM35I477ihex+3Mv2bNmuKkggIpGK/5AITfPsRtPKfIwtLtw3OOtfxrCYqZX/mVXynuSkYROGzYsGK7TsGW1x+U3/w//pX8q39Vs1/7V/Jrv/Zr8iv//JcL3v/0l/734vWv1fy0sc3Bk+d39+wMcGygsOVybW4SENYhrFG8LsHPc9rC69jCuqZ+NLN06VLZsGFD8Toe15rHGiu0xduG52htyZIlsnbt2r1twdLxeE+HT8oBC89DW/DHxjxxn2DpWMHSsXgdtsOvzQM/9iEs5C6YNh7bbNq0SQ499FD5zne+U8QY9r+4T5g3GP1YH9Yp3h5LucV9tbGwME/qx1gbchcfF0Ibffi254orrij2IfaZ4447TubNmyennnpqcbzrK7B/HHLIIcUXD0E3cG5Gc8Ho8+yzzxY/lYjHwuLcpX5Pc9yfAW5/8Ad/UOSOmwONGjVKVq5cqZ7HWOcR4XyOgq+Z859G5yWpj3koFCn2tPNgax7L3y8vR2R+rZL3uFWN1foElj7apwb4PA5WrBYOOuggGTJkSPerHnixwk2LFRCPxqHKOvQnzVnwuGn6AF6s8OpLzQVuWg6qai5fjlgN4XLEkNdHH320KBA4eeVN7rLLLtvH8I8ePVptu/TSS+Xyyy8vvoE466yz5Oyzzy6M4wsnGuF1bGeeeWbdtrHBg0vKLrroor3G6xEjRhSWtsUGBy7XPeWUU4q5Bw0aVDyedtppe43LgIj/5z//efHI67j95JNPLnhwC/vYhg4dWpxAHX/88UXxFLeRv3PPPXfva9oZi22PPfbYggfHXE4mgv3H//gf5bDDDis+/OsUbHntfvk/f/1XikIRo+j6F//7LxV8/+kv/W/yK7XXv/qrXW3/8ld+VQ66bV53z84AxyzW/sc//nHxQQM3n8JOOOGEYh14xIIPY41Y19gXLKx37GM7xjr66KP39on7hnnwxf4wT3gdjG3SeeJx+baCtnisuE/w/+M//mNxB8HQFrYN22MWB4x5eAzjBUu5YWGbNKfBH+ZJx+L1McccU1jalnIL42E/+tGP5Ic//OHeNY37afGwDesDv3h7nsfz8DpuD7HGvrgt9YXxyF3oE4/J/Oz7fAP+S7/UtR9h/+k//Sf50z/9U3n99de7ldt+UJT85V/+pRxxxBF1nHnUNIeF/MQ+jO3QXsh33C/kO/VjmuZ4HnI9ePBg+S//5b/szRtGG0VVCs5HvPO5A+5yxO5Hl6SFRuQ1eCQ7+YS4aqx9fULM17ycfKXwYoWbFivIRVj7NMeOrunHixVeuQjLAKEIS9cvaJs1Si2sQ+qnD2864TXbBMPPN0CxL1j4Fi71owP48Zga/vBtu2dwDZ888qEaj7wOxmvGYTssbacP+z7bxEYbJw2cQDJP3MY+Sb/Yxxh8Ksp+x2uKM04i/sN/+A9F4cqnwBSVfBLcKdj9xVZZs3qlrFy1svgWYW2N26M3Dip4/97ho2TVunWyevWqWttKWb5ylWz+uLMuN2UtKcY5uSX3YQ0wvpEIlyXFfnysUXgdG37WNvXziTef1IfXYTzGsuYJx+3wOra4Dxb341sGjQNjcTIaXnN5G+/p9LXGYxzagj8Y2/INROrHrByEWMNr5gjzwMuKlQ8dsNSvjReeh30/vA4W+sSxBmN9OP6k/nQd4nnwa2NhWt4wYmWNwut4PPrAm8vp2Id+9Vd/tfhQ6LXXXis+/OHb/74C34RROIVcxLzLai42tg9jxGPFmov9mKW5sD3tv/3bv13k7n/8j/8hkydPLtZUO1/h/YTjsgbmzUVYDYG8Bo8kCcRSeNxYEOsk0Uog87MDpmiUwCqxImYN9NEWBJ/HwYpVgxZ7gBcr3LRYAfFoHKqsQ3/SnAWPG98i/OEf/mH3qx54scKrrzVn5aCq5nIRVg1WEcbaWLm2/MDSAfrhTUmDpx2Pg6ZTDx5vC1YfiqV/82/+jfzbf/tvi0t1YsDL27+5vPGP/uiPim/Mwr9BYZ4D4v+EPTS8OAn6g1Mnd3s6FxRhfFPKZUwpPC1YurL86Fd7fwBV5vH6aOckINUcBT03MgDeeFabta9anIE1FrysfqwRpsHjbcHqw/pY7ysWt6qxWmsEKDj/+q//uvgGJ/7frJ1wYw6+LdSOW2U1F4M+1nG9qubGjRtXfBNG8UVRBqw1Ym5rvdFCLsJqCOQ1eCTbdUJM9c11xCkaJbBKrH19QmyN5cUKNy1WkIuwarFa8Lhx7bX2WygvVnjlIiwDWEWYtw74NY3sj+Y0LbRLc7xR8tsFbS76aLGG33RhXPIYw+OGn984pIUBJxX5FvWtRSjCDri7IxqaA+xDGodUc2gp/OsSjwNtKdiW8x+tj5WDEKsGeFmxVnlv5ZtHvgFJEThovFkfrdjz1gG/tg6NYrWOc7TxoQu/lUrxdbs7IufOrfpnzWEduJFJXBA2WgdPcwdsEcZEVmcLJEMbFFhjsb21uCRPS6DHjaC1BAKrD2+KvFmm8LhVjVW7phXQR1tcfB4HK9Zm4cUKNytW4tE4VFmH/qQ5Cx43Dx63vtZclXWgj7WuEyZMyEVYBaBrirB0/bx1wK9pBFTVnIZ2aY7L1X7913997zcHMeiTxvr222/LP/tn/2xvEcY3YvGn2h43iwMnBgdCEfba3WcWMf/fx9zU7elchCKMH++nqKo57fjDSZj1bYE1T6PjnLV/sQ9pHFLN8VtKPqADHgerzSsktPmBNRa8rFirvLfyjc33vve97lf1sPqwPtoJsbcO+K118GJt9jgHOqUI09a2rOZicHWAlocqmmP7VmuOy0JTeJpjrGY5oDmtqGOcZjU3IHxlDHkGDq/LGMUMbzCpnyRYY7E9/bQ2qmU+CUn9HjfG0zhg9IFL6mc8jYPHrWqs7ABaG33gkfotbpjFQTMOSjzyo3F+lxBeB/NihZs1D/Fo/dje6uOtg5U7y6qugxVruzRnmcfNmsOLlbH6SnNY4KblwIuVPto8HOi4VCEXYc2DNeDHz2nOvXXAr2lkfzSnaaFdmuM3D7fddltx4pC20SfEyvGR19wQgFvMczLID9l///d/v7hRB5zYxuOmcaAPdytljE4vwlY8eWNxh7JfXD6929O5ILf8Jow7XHKMiHPeSs3xiTfrl/o9zXn7V6y51NiHNA4xN/TEt7Nz5szZWyBaHGhL/WzLPFofKwch1tSPebHyvsr7a+onfms84uJuoqk/cNB4sz4UBanf44ZfWwcvVvo0e5zDuIFMX/8mjGOZFlcZzaVGQaW14dPmIC+W5theG8tbB7ZvpeasWAMHjTeaC9/AxuZxw69pbgCTYIiYAMLrMkaw9Ev9kLPGYnv6aW2IhcVK/R43BIFpbfSBi9ZGQlKfx61qrHxFrbXRRxuvEQcr1tRCfHxqdt111+0VR2j35rG4YcSjcaiyDsxh5c6yqutgxdpOzWnmcasSK7z6SnNY4GattzWPxY2D1o033tgRRdhLD46VEweeJGdecr1sVO5T8NEbj8nZpwySgYMvkVc37fsJcLvBmwd3nkpz3mi9tXXYH801qwX8rdIcxqeZ4U04tlhzHB85FnD7fp5PnDhR7r333uLYgC/88N/jpnGgD7nhZh2dXoQdSODk5cILL5RXX311n7WtqjlN96w7t05P/Z7mvHlizaWGTrS2WHPoictlZ82aVezfHgfaUj/bcnmu1sfKQYg19WPwsmJl32GfSv0WN4x1DR+IxBY4aLxZH9Yp9TOPxa1qrM0c51grjLuwdsKNOeAIn5hjGc2lZvmtdSUvlubYvso6tFJzjbSg8W6l5vZejgisr9Es8LWg9ZWuNRbbW19zclDBNFjj8fWf9VWi1Yc5+D8UKTxuVWMl6Rq8XHscrFgtWJy9WOFm9SMejUOVdQBem4aq62DF2i7NWfC4XX/99cUd2jR43Ppac1XWgT7WunbK5YjrF94hv/tPuy5TO2zMU93ebny2VI79w98o2v7osLHy/hd6nO0EJ6dcjpiun7cOlh8ciJrz4PXhd4j33HNP96seeNys8ViHA+FyxAMJnKxzOSJ3dkxRVXPa8YcCnhMlDdY8jY5zFtiHNA6p5vhgNVxe63Gw2jiJ1WDlAFhjwcuKtcp7qwerD+ujXRrmrYPlB16sVY5znfLPmrXjVlnNxaBw44OqFFU0x/at1hzHBg3WeIzVLAc0p12qWEVz/fLGHFS3XPufwuNWNVZLfPTRRI7P42DFqqGRIKx54Gb1Ix6NQ5V16E+as+Bx4x/MpjcGAF6s8OprzVk5qKq5Troxx8t3D5Nf4fdC/+b/LQ8sDv/Zf7fcPvgfiwLs3//Z8bK6778EKxCKsHT9vHXAr2lkfzSnaaFdmmMc3pi1NvposYJbbrlFvSmOx83iwKfPuQhrLUIRlm/MYXOgLQXb8om81sfKQYhVA7ysWKu8t5JvLEXgoPFmfbQTb28d8Gvr0CjWZo9z4Ot2Yw7Onfm2KUUVzbF9qzXH+14KT3OM5XHQeKM5TadVNNcvizDelC0ReQmsEmtfnxBb8GKFmxYrIB6NQ5V16E+as+Bxs8bxYoVXX2vOykFVzXXW3RG3ytgj/rAouH7nO8OEm+lueOJK+X/VXv8v//oPZNrewqzvkYswKW6q8bd/+7eyaNGibk8P6KPFCnIR1tnIRdjXswjjd358c5QicNB45yLMR6uLMK4i09a1iubYvtWay0VYDV4CPZJVdloWxBKLlUALjRJYJda+PCEGkyZNkocffrj7VQ+8WOGmxQqIR+NQZR2y5nxutGljebHCqy81F7hpvL1Y6aOtK+i0W9Tvfneh/O1/+l9rhdi/kJMuGi3f/f1frT3/ZRl08/zuLToDuQjrupMXv4vT/iUJfbRYQS7COhu5CPt6FmHjx48v/uFxisBB452LMB+tLsK07UEVzbF9qzV3wBVhTICFBIbXZYztSUjqDwGnfoztrTberLDU73EjMExrow9cUr81nscNf5VYg/hSow88Ur8XK34rVssOPvjg4p/+pv4qsWLEo3Fo5Tp4ZnHrdM1Z5nELSP1erPDqS80FbloOqmgOcELcSUUYWD7jMvntX+r6fdiAAf9E/uiEa8X+N559g1CEpevXaB00jeyP5jQttEtz+ALSNvposYKbb755r+biNo+bxYHfD+QirLUIRdjy5cuL13G+rXVopDnt+MM84XczsXmaq7J/YexDGgf6xJobNmyYPPPMM0XczXJgW36OofVhe23+EGvqx+BltVV5bw1I/YGDxpv1CZccx1ZlHRrF2uxxDuuUIkw7bpXVXGwUOlqfTtEc/FJ/lX0/cNB4ozmODanfygGGX9PcABowqjoGDa/LGNtbfTy/1gZ5AqMyD4EE87hZbfjZMXmM/YzN7SW5TCUsZjBvHvzpWJjVh7GZn7nSebBmx8OsPp6RU4SZ+qvMQxzEw8ldGhN9mh3P42CZNVZos/xaG1pAb81qzhqPPprmPLPmYWe9//775fLLLy9yHefb6sM2naA5KwdV5gF8Oqp9K9HXuOKQ/9ZVhP3yf5L73tI//epLsJ9yi3oeY31XWQerTydojm09zVljWfMA/i3CXXfdVTyP2+jTDG/2Y050chHWWpBrLl1766239p7gBLPWFV8za4eeKaA5gdTeH1p5nGMu9iHGTPcj+mD40RO/E37iiSf25qFZDvwUQ+tjjRXaLL/WFt5bOf9o5r2VNo0DPi3fjM36hBslxG3ePPitebQ+jM1xtJnjHNxYr04owrhFffo+QBxBczFvjHi0PNCfc2cuSSy7rvjbrblWaaEdmtt7OSJiwdEMIAChFOGgqIHt6aehytfXjOdx4DEFC6VdxkAOLG74aU/hxcr2zKWBPtp4xOpx0GK1ADdtDuDFanEDoWBJYa0DsNaBOazcWaiyDvCyYm2X5ix468CJ29/8zd90v+pBo1g9zRFXilZrzspBVc112uWI4NO3H5W/+L/+5d5vwr51yi3SIffj2AvedKtcjlhl//I0p2mhXZrz4GmulZcj5m/CWg9OaA7UyxEtzbEPaW2p5r7OlyNaCBw03lUvR6wSa7PHOfB1uxyRfY7bs6eoojm2b6XmwjdhKTzNNdKCxrvq5YjaPP3yN2FszwlKiioJbBRrX58QW/BihZsWKyAejUOVdehPmrPgcdP0AbxY4dXXmrNyUFVzHVeE7XhPzvr27xQF2N8fdbz8xe/8Cxnw//h/ysjpb3Vv0BmoWoRpGtkfzWlaaJfm1q1bV/yz1HDZWgz6WPtY/k1YZ+NALsIszZU9If46F2H8O5KxY8d2v+pB4KDxrlqEaevQKNZmj3Pg61aEkW8tR1U0x/at1px2bu9pjrE8DhrvqkWYprl8Y44IjRJYJda+PiGeP3++vP76692eHnixwk2LFRCPxqHKOmTN+dyYQxvLi5U+fa05KwdVNddpRdgzYw+X/7VWgP2rPzxc1tUoL5l2hvyL2ut/+X9+S57bqMfXF8hFWG1tliyR//bf/pu8+OKL3Z4e0EeLFeQirLORi7CvZxF29tlny/HHH9/9qgeBg8a704swPgTSjj/tApfncTmidtwqq7kY2vagiubYvtWay0VYDV4CPZLtOiFmh+WazhSNElgl1r48IQbf/e53ixOxFF6scNNiBcSjcaiyDv1JcxY8bha8WOHVl5oL3LQcVNVcJxVhHyyaJr/7awNkwP/6H+Smp9d1OXd/IiN+9F+Kb8b+2+GXFbet7wTkIqwrVos3fi1WkIuwzkYuwr6eRVgaa0DgoPHu9CLsnHPOkVNPPbX4hu+aa65paFdffXVhWhumtVl9mPPcc8+VH//4xyq/spqLwe+7tEKniubYvtWay0VYDV4CPZLtOiFGENotixslsEqsfXlCDPjHelySk8KLFW5arIB4NA5V1qE/ac6Cx+3ll1+WWbNmdb/qgRcrvPpSc4GbloOqmuuYIuyzFXL8H//7otj6n2feJfEKbFvzqHzzX/9Sre1fyukTX+j29i1yEdY1j+YH9NFiBbkI62zkIuzrWYRZuQkcNN6dXIThQ6Os17PPPltnTz31lDz99NN1vueee6646Qrv+zyP2xjjySefLB7TNsZhvNgXbPbs2fLmm292M6pHWc3F4NyZG3qkqKI5tm+15g64IoyAQlAMGl6XMbaHpNbGTqH52R6DbOyHHD9gJjiex20etzCe1qb1YV6Et2bNmjoOPGccax4vVmse/PyAMY0Vo424Un+ZWLXxLAsCSv2NYtW4MS/fINIec+B54BZvHwwtNBurZWzvzaP5A7c0b+3SnGUhb1ofwCdYf/Znf1Zsl3LX+rAN/r7WnLcO1jwWNxDfLrzPsHOr3HTiXxQF2L/4/R/K2/v+LlmeuvE4+V9q7QP+t9+WaQs3dXv7DrwZnXjiicV6BH2zjlXWIbSlvqA5jguaRiwttEtzjBGQtlmxAu7IOXXq1OJ58IfcYfH2weCQjkfeOb7kIqy1INcUYZwQ8h4X57xVmuM5+xAnkOn7A2bNwzjWPJbmmIvjNu0ph5gbPIYOHVqccIc8xOME82JlHo0D2zNP6se8WAO32B90z/trmjuPW4DWpvVhbM7nWCctb9Y8+LUchLbUx3j4mz3OwUE7ifdATIzXaqTciKOR5uLtQxv/e1HLg7Wu+NutubLcMI+D1qfVmttbhHmdLWtEXpvQmocASCDXr6YJ9LhVCdqyRmNpsVqLSwz4vRPiZsbDrD6WMRZzaztglVgZi3jYOdKY6OON14wWPLO4hbZm5iGGTtUc4IOCxYsX79NmaYQYWJu+1hwcmlkHzJoHdEQRtuMjmTN1kky4bZI8ueS9bmeCXe/L7Gm1bW65Rea+vqHb2XeIi7BYD1XWoarmLC20S3NcOnPnnXfK+vXr92mz5gFaEYbRx+OdciAnHF9yEdZasN4UYVzpoRVhrdAca8cn6xRhqbY9zVXZvxiffYj2dC58wY+df/75xTciAH8zHNiWebQ+bK9xC23NzANPdM/7axqPlx++5Xn88cfVNo0DY7M+rFMz8+DXYmV8Kx7Wu7ePc4zdF5pL2/B54zXDgW07WXP4vbaUA2O3UnO9cjkisMZie/ppICgshcctBKKBPs18CuFxs2JlfC9W7+tr4kqBz+NgxWphw4YNhWBSeLHCTYsVEI/Goco6ZM353Cx4moNXX2oucNNyUFVznXiL+gMBFGH9/XJELsP57d/+7eIGRSnoo8UK8uWInQ1ORvPliHasjENbCrblfEDrY+UAaGMBeFmxVnlv5UOjn//8592v6mHFyvqghxTeOuDX1oHxvVhbfZzT8t2JmovhcdByx7aW5themx9oY4FGmuN9L4WnOWsdgBUr68M6pfDWAb+2Dv3yN2F8Xdns76SqxtqXJ8SAH2Sedtpp3a964MUKNy1WQDwahyrr0J80Z8HjZo3jxQqvvtRc4KZxr6q5XIRVQy7CunLAtyX8080U9NFiBbkI62zkIuzr+ZswvrHWzs0CB413LsK6oI0F9tT8X1ma+2TfeXqgz8PliFtr59Apdu/eI7tU/XCHxo9V3jtrOTXj2aXnrZZUM1b0phVhwBrPWgcv37kIi8CO0eybIgeh/nBjDrhNnz597/XjMbxY4abFCohH41BlHfqT5ix43PgKn/9Mn8KLFV59rTkrB1U1l4uwashFWFebBfposYJchHU2chH29SzCLAQOGu8Dpwj7QjZu3Cjvben6QIiiQMt3jYVs/eST7uc9MHOwe6e8/8H7suXTz2sck7ZdO+TT2vFnz96C6ivZtfNL2dP98uMtH8kX3UXLzs8/Lvh9uGWrbN7wrqzf9F5RJH265f3Cv3HT+7UIRFavWC6ba6/37Nktn2/7TOIMb9/ysexI0rpn9y7ZXNMcc4MdUfGyY8c22f7F9lrxRqevZPu2j2VTbewNGzbJp92S/3TLJtm4+X3ZuuUTeQ8etUfWe08IooiJYm7fImzPntq52s4vavn5UD7+XP+dXSPda+uai7AI7BjNvimSPA5EKRolsEqsfX1CbMGLFW5arIB4NA5V1qE/ac6Cx41/8viNb3yj+1UPvFjh1deas3JQVXO5CKuGXIR1tVmgjxYryEVYZyMXYbkIC+j0Imz37lqR8OEamTr6TDnxlFPk5OPOkvueeaPu7roB29a9LcuWrJPPvzR4R9w+XrdG1r27TdY+fZX89PgTZcrd98lZw2fIhuWzZcKUu2TOM8vk1Ucvkz89+BRZ80kXt5Uzxsj/+Mbvydz1Xa/XPnerHH70MFlfS987z98pg08ZJD/4+z+R7x18jJx7xXh57MFx8g8//Hnxv85OOfYgOWXEHfLBri/liYtPk4fmvCpP3nSRnH3tg8VYn6x4QM4++xJZm/yPlt2bF8l5F90q7yGtT9+QY44/SO54A13skoeuGSkTbhsnQyc+LB+uf1VO+9b35XjmOulw+cWwm2XNZ1/IjIln1eb+ufzJ3/25HHniKTL6ocfl7ouulgee6v7G9NNlcvXJY+Tt2tLs+uJz2REVok89NFQufOBeuWzQCXLOyBm1YnRfNNK9pblchHWDHaPZN0ULjRJYJda+PiG2xvJihZsWKyAejUOVdcia87nxDx5nzpzZ/aoHXqzw6mvNWTmoqrlchFVDLsK6TtZXrVqlnqTRR4sV5CKss5GLsK9nEcaVH3zrkiJw0Hh3dBGGb89nMu2aI+Wi27t+l7rng0Vy0k8Gy6zXN8tHH26VHbVNdn3+mXzy0cfy6PCD5dijL5F3PtkqWz59T95a9IpsKP6l7U55f8uHsr1WnG3//NNa26fy4Nkny6BzHpAFMy+ROx55SrZtXCOznnhL3px7lfzgiB/LVVNflRfmXy//9S9/JLOfXl3MPe32U+Qb/9cfyLxV6Gmn3H/NFXLKkUfJhOkLi3Zw5+hDZNLzXWuw4P7L5YQJzxTPRT6Si88YJHev3iILLj5Gbr5rkezZtkbOP+w4mTr7Kbl8yJlyy/MruzbdvUWenn6TrC1qrU1y9ZBj5OVPa+9JLz0qZ9Xek8bMXFNr2CCnD71RHps5RY6+fJKsWTxXhh5xtXTdePhLmXTGyXLpTd2/5X3/SfnFyBNlebGcX8qEgefIPU+9XzSJrJORBw2T14qOu2XBrDHy7Mqu/wO8+q3H5ek1m+SjuTPk2iFTZd+L0hvr3tJcy4owJsEYECGH12WM7elntWl+ttf6IHDubILxPG1vdjyM3wGkPhLByQnzpG2MY83TbKzMw/z8PwWep+3WeFU5WMbcWj4Zx4tHa2Ms4iGuNKZG42l+trfaLPNy4M2j9WmX5jxjHGueAK1N61NGc6kP8zjgt2K1zMqBlzdrHsCd6nIR1jw4zvFDdx5jfVddb61PJ2sO8L/2/vW//tfF/94Bcbs1Dxg3bpzcddddxfO4je2byQ9vypz05iKstSDXF110kSxZsmTvyVIwS1fNag49U0BzO27t/aGVxznmavTeih89xXdHrBIr82gcLG6hTfMHbqm/2fdW4uIE9dBDD5V/+Id/KNY07aflm21YH9ZJy5vFu9lYGbvKcW5n7dz+y/dfkeE/Gygv8a+19nSd7M+5ZrBcd/2NctIx18krn+ySxVNvkcsvvUtuHPz38nffP03unTJEvnv4/5QLTj9ZjjzzWnlz8Uw5bvRgWV0rambfeblcMG2WTDziB/J3PxktD911odz56FOybuEcOfms++SNdxfLQ88+I8+v/0ief2qyHH7BqTJy0iOy9YMNMnXMuTLs0KPk6SVfyu735suI6ybKisWz5PwRN8vHUPvqM7ntkkNl4rOrCp7P3Xu5HH31A0V+t3+0RIYOOkmmvr1Jnhh6lIyfPK/Y5sM37pY/+a//US6+eW7xTdOOL7bLlg2vyVXn/lSeWPqJfLH7C5l887kyaeEKeXb6w3L7uKly+z23yeplc2XUnZPlrZcflaNHTZCVrz9dK8KulLXdNczax8fK0HMvl621Gmj32kfl0BEnymvFBWzb5fZTj5MfHXKajBw5Ukaef7J8969Pldc/2CXbtrwvEy/7jlw3a5F8vn2nPH7PmXLB7IXywVMPy9iz7xY+Ttm9s36NLA1j7dDcAISPMTAbhNdljAHol/rZoayxwo4Vasu4jaDC/5WILXDr6vNVXdvOndGnkl/VV5nFPLWdOf5RIn0+2vKxrF69pvCH60p5vm+9G+Mr2V3jUYfafLtr/bk2tmusbuuunFmg8MNH/HvBAaa4BjagxrH7WYqu8bqe81U0Y4Z54j7Bl9rAgQNlxIgR+/jDOqR+jFxr64pxQqH1g1fMLTbGCwfZ2MK6pn7P9kdzWht68zSX+rEqsVrmcaMN/aZ+L1bGYo20NvpoufM44Ldi1Sxws9bbmsfiBvhWIhdhzSN8E5bmvNF6a+uwP5prVgv4W6E5wJvlww8/XNyqHsTtnubif4sQt3ncrFj51DQXYa0FJzR8E7Zs2bJ9jpFVNadpgZMwConUb2kO8+axNIexD2naSjU3bNiw4p/zAo8DbamfbcP/eErbrByEWFM/Bi8rVt5XOadL/Rq34jytZi+88ILMmzdvnzUNHDTerA/HutTvrUOVWOnT7HGOc7cvNy6U4T8+V97mXhY1H3h+0plyzXVj5JhDx8qrn38lb905Ti6/5gl5/Z4r5JYbn5F508+UHw27stj2wYsulpsuv1yOunqIrN1eK8KmXCoXzHhFlkybKOMnvSFLnrlCbp/5tKx59hH52bFT6i5zfO7RcTL4rvtl2oW3y9xnp8nI8XfJxIFHyvx1O2TZtOvk2IPOkPvvu1NO+uEP5LE1ternqx0yedRhctuzfFMl8tpDo+Ubf/G92vvIcfInv/+HMnjy8/Lx9vflroE/lgl3dn17tu2Vh+Sbv/cNGT711eL12hcfkIHHHSp/9cf/H/nJEafI1BdXywv33S83XXGPTH1siry5YYPcftdtcstVU+XRe1+Tj9fMkiNH31Z8E3bBUVfJ+u5T4w3P3iBDLxwln9Zy+NW7j8uhF58kbxan07Wi7pTT5NxRU4r7HTw1Y6IM/NEF8tKSxXLBkJPk7//8/5a/+dGhMuamBfLAPYPkzEfnycfPPSrXnTNN+LVYukaNtGBpjmND6q+iuT65HBEiu3fUKsZapRqDr67ZmVJQKDHXV7WCa/eOdL49suHdFbJyddfXp7s++0A2bdpYS9JH8kVUM33x6cfycXfBtvWTLfL666/Lru7F3rqVrxX3yAfrV8rby1fIu+vXyMq162Xb55/Je++skeXLl8vyDR8VVf6uLz+XL2vcP+VAVvTeLZs3vld8pbwXu3fKVnJTy+knGzfIJ9u6Yvqy5vtk26e1eb+q9d8sq1csrY29VgpWX3wkK2tzr12/Vpa9/ZZs+vBj+aImgGLYPfyviVpFTvxRvr/46D1Z/+67smFLchFuhCuuuEImTZrU/aoHjENONbB22rqCfDlitVgteNw4AGgcvFjhlS9HzAChCEvXz1sH/JpG9kdzmhbapTnNF0AfLVaQL0fsbIQiLF+OaHOgLQXbUkhofawchFg1wMuKtcp7q4XAQePdyZcjFp6d78sN5/5Ebp4f/r/kFrnkqCHywIzH5IRDLhO+c1o57SYZee1seWnSRTLu+mdl4czz5LCru76Jn3PplXLzZZfJ4VecL3yZ9vSdF8qIGS/Jook3yk2TlsqKeWPk9kefkbXzHpWDT5ha3DwjYN6sG+X8h+fL3PvOk5/86Hh5+o2X5c4TjpJ5b74r911yjJx+8bVy/fU3yLBjj5QRteIP3Dm6VoQ9t7Z4/vyDV8nAW7ix25dy31UXy+Crn5L3vvpY7hn4I5l0/1u1pLwjlw87T5554ik549CBMmNZd362r5ObLzpEXuq+r9imVx+WW68eLDdcPLu4kcfySbfK0GGj5NHlO2Xn8uly5GWTZe1bz8pFJ4zby3/6xafJqRc92JXD9bPl0JEnyVvFqe52ue3k82XaE92Xre5aLZccMkLe4ArEr3bJ3WN/IBMXdBWRs+4aKGc+9rx8Mm+WXHfuPXW5CWike0tzHBtSVNFcnxRh4I1pE+Ty0bOK5wEEtWuXMl7xd7fMuf5WufGOxcWrgM0vzpFTjh4oJx5xgtx47yJ55MbTZcQ1N8nC55+Ut195RCbdepVMfeZNOWvwQfKdMx8o+rw/f7z8+Z//kbzMDWg2PymnDDxN5r67Q+beeYkcf9BP5O/+7Gdy/uXj5d7bz5Rv/fTnMnjwYPnZz4+RecvflycnnSV3zX9RHrlopNz/bK3ge+FROe+s22VTFO7ujS/L+RfeW5PKV/LQLefLT06bWPPukQcfuEgOP/VoefTlxXLnRT+RHx9zugw+9SQZeu0sWfLaHLlg8InyD3/0D3L4wCEyceIVcsUN19WkX8NHC2TyuEtlfTFHjyDWPT1dbh17ofx0yDj5SDkv0MQT4ImFtdPWFeQirFqsFjxuY8aMkYMOOqj7VQ+8WOGVi7AMkIuwrnks0Mdqz0VYZyMXYbkIC+jkIow5+DZs8+LHZNSZp8uV114rl597tlx83UPyya7tcvOp35KB54+Wi088ToZf/aysmHOVHHf0YLl94uny7R/9VMZeXjtnPPkCeXXFMrn0kMPk5OFXypmDjpChj7wp62bdLAOPHyoP3HmR3D37OVnz7Az58dF31BUac2dcI0NmLZYP510nf/Z3J8mGXdvkjmOOqJ1f3igXXHRHcXlegc1Py0lHD5EVW3fI1NG/kFvmdhUx8++7TI658fHiuezcKKcd8z0ZMecVeXr4CTLptkfltqsukAsfeLFofnv25fL9Y86vjVHT0O6PZcHjd8i73d8P7N6yRC4751A57+ZFxetPXpkih50wXJbUTnA/f2OaHDxygmxYOV+O/pMfyMW1HI29aqgcdcx5MntV1wBfvTNLfjb8OHmzuDP+drn1hNo58kPd+/7Hb8jQH5/X9ZuwPTvlxSfHyQtrum6892itCDtj1oJchMUI2y+afKOMqRUqM56cLkPOP1GOP+MSeW3x23LFtaPl3AuOlnOuu09ef2GmjJ31knyy4nWZeeOdMuRb/1P+5KwpdbfE/GDFSvmIfL/7jJx03PVy76TJ8ua7m2ThIzfJvLkPyqDzB8q1D8yW8y69UI496xrZVtsj+CThh9/7a3n7yz2ybvZ0GVcT9v13d321+uH8x+Xqc7p+PzD/vpPl1Jld/hVTTpexU2fJQzeeKDfPXSU7318hY268VG6YcJW89U6yGDvel3suu0HeWr9J7pp8noy6cpK8vWa1zJx4lYy66Bi544n5cttlx8jMVSzIHhl/2UCZ/Bq7Q22nPH68vEVx+O4jMvCYn8t9c+bIrCmXytDh5wruXe8vkTnPdt0V5oUJY4t/Qjr51odlw7Z9hcI6WCcMnlhYO21dQS7CqsVqwePGSSAnGim8WOGVi7AMkIuwrrF4w9Rioo/mB7kI62zkIuzrWYSxvXY1VOCg8e70Iixw+HzjG/LAAw/II0+8VnyUzk9YPt38mjz80IPywqKlsmXj9hrnD4svEO6acKIceuUomfXAdHl1ZVcOty57Ve6/9355afFaeXdrTQ87P5AX582WmZPOlbsff072fPaxvL3i/eKKrYCtH22QZe/V9PvFh7Jh0/qi7f3aOfPaNW/J2x9+KNu2flpcscU3XUtfXy4ffL5TPtywTNZ/9FmRv60frpcVG3vuJP7B2sWycMlq+WT9O/LeO2tl0cuLBSoFvtoui+a/IOs/q9cQefn00y3y7uLXZM17Xf9fbPf2rfLWkvfki907Zcen78myd96T3Ts/k1fnPi7Tazm6//4HZel7kXa+3CJL162Qz2tD7671Wb90hWz+qPs2G7s+l7Vvr5XPajy21/TD7/ACnp1+opw7+yXZ9crTcuPZ02pn2Puike4tzR3wRdirU8bLjZffI2OGj5KL731dnr1liEy65Vb56clnyoKV78qUCRfKiReeI4OnzJEPX3lSbj97gtx0xfUy7Nau607rsUXumHqb3PbKMpl/+0R5acUyufeqo2TGonUy9/VXZO26RXLJ9TfJkOtvkWfmLpIHJo6S80cMkiXrPpQn7pssC16cL6NuGCPLazndPHeGXHFW1x3pXn3wZPkfPzxIzjt7sPz0sGPlxTWbZdZNJ8i4J7sO/FPP+bYcfM6+b9TgmaenyJX3PSYz75wlC16eLiPvuFNunPG8TL9pkEx64nmZfPmx8kDx/anIc7OvkvMfX1Z79pHcUCskX95QK57WPSpH/vivZOill8rFZx8tZ424UF564Wk5+eifyl///aEyduKTcsdpR8qUux6SSbfNlI2f7SsUTTwBnlhYO21dQS7CqsVqweNmwYsVXrkIywC5CJPi/0H+6Z/+aXGDjhT00WIFuQjrbOQi7OtZhA0dOrQ4ZqUIHDTeB0oRlsLygwX3nSrHT3m4+5WPVTNHyPcOO0rmb9R5y55ddYVZjI8/3qKuOTcQsY5zW7d8KF/E92LoRt1tDiKQl48+0vPGfQ74plDFV/r5gMULxEX81mUL5PyDDpYZr74hY045Tgafe1/XT38SsA6e7i3NtbwIYyJPFBpIhnVAscYK2/NN2NhL75KrR1wv18/+QJY+eaFMrhVmRw+7RTZ8+ZVMn3qJnDB8hJw1/klZM2+6XHHebXLLleNkxMT6yxF3f7ZZHpx5h9z56vri9TMTxteKsOVyz5gj5dlwm5VacTP8hlvlrgcektFDz5Czb7hfbhg9UGbOeUSO+skP5YwzTpPvfufw/z97fx6sWXWld8IZ/sOOdne43NHRjuj+/nDEF25HOLo/2+Ge7HB3tO22o6rscpWrVCWVJiQkFQKEmMQkJCGBmIUYBBKDxCCB0AASCJDQAGgAxIwEJPNMMiQSkkADmpD2l79z7848ufN51rnvznPPfd+8e0WsuPdd++y1n7XWc86795nedMndm9PzN1ydjj/wyq7XTZfsnf7y+I+lm684N+316nelJ37623TVR96czrv+ibTp7i+k0844I516+snp3G/d3W3flyfv+V46Zr93pk/fujG99Myj6cMHvjd97dmn05Wn75k+/vUb0nnH7Z4uf4ADxy/S6UfvlT79fRZkP0gf2f20dNszW75kHvhces8xRy09d/bijekTpx2eHvrhc+nqi09LB733E+m+h55LXzxkj/SZz12ZLjjvy+m5HU8edXLmmWemSy65ZPnTNqEOjswRD9wBalEF3qudrFZm3YeiOsiD47K4cX6/5eDpviicEL/D8Fv7g5KBLL8BSonDjd0dS9oirE7yIqysX8Q57G5/cLXDv+Oc5WnIue2ffV2JuHE2bdqUDj744PTII8uvTu4JfVysbhEWYXMYmBi0Rdi4khdhrq5Khjinjj983/GCCSVunKHvVsc59iGFoeQcXPrOd77T/R9hcG0swpS4HCDOF7hcrBx/3FUt5+9Tn/pUN2dR4vpQHzUhjuqA3dUhinXs45zKN5x74fmn0o9+vuN1GzXOKy+/mO65d2N65kV1s91Sn53lXF84sZVfdNSXGs6x/dic44UZyG9e+kF65L5nt2z7q3T/ffelJ57f8QewEVcHxGGAc2oujJ+o3qoOG0gOyhtzeP1m/rwSZXv6uTZlZ/uf/vzFdNNFH09nnfLZ9LETz05nXv1wuuMrJ6bPf+789Jo/fGN6zZ5vTXt/4OR01x3fTvv959emv95n33TSiV9IV55/Str9Axdv9/aXB798evpP/+XV6V3vOjCdfNbV6QvnnJNufuDBdOkZ70rXbNycfsYO+qOH09FnnJ++eect6cT935xO+tKN6dIzD0unnnJEOve673Uv6Hjq1ovS+y64PG287qvptA9ckV585bfpuksOT4de8tVunNsu+mh691Hnpk+e/b70iQsvTEe9/+R03ebfpF8/8Y10xAEHpI2bt0/8zx+5Mx1x+HvTVx/YlH777APp+COOSzdu2py+fM7B6ZPf+G664MjXpr/cfZ+0795vT4ccd0na9NKv089/8lA684Cz0o0P/yRt/v6l6ajjj06Pvfjb9IN7v5zO+sjR6dEXf5Ne3PxY2nj/s1sWZ79KXzzgb9KnLrosnXv2Jem+p3+UXnrxJ1vzzNtb+Pv6179+yyLzwG7lzg7Xr8MLL7yw9XNf2cE4yLN4u/TSS7fTC7fE/vnPf34HOzZlR5nMKF9sT1tpj5Tt1Tj4Z6Je2tFoHF5DjZZ2+jh/jHXTTTdtl8+ss+5D0X7HGXR2dNWW+/zw2cfTLTd+O33jG99I37r5e+n5l36Rnntm0/bYfrKFC08+nG785vXpsWefSjd957vpgcef39oeYfjhFo689NMX02P3MMZ16eFnfrRlUvnjdM9tt6Tbv/dAevKpx9NzP1z2s/mJdMt3r0/3PvFseuaRe9J3brsjPfL40+nRhx5Mt97w3fTgk8+lHxnOMb46lpCDM844Q06Im8TCl9Hb3/72bn8u931bb1OH3KbsHEeefvrpmfaHIQzu2OTU+QJTnkiXbfRxnDv99NPT+eef3y2g+m0RNoWB4zALwcMPP7z722QcYdJ95JFHdlc4y9o6LszKe7jDvvPMM8/MzO2II4pzKPuQaqMP/sAAnw455JB01VVXddyMMLg2eKjsETbnC1yqDazPPfdcp2XuImxMollgqzY3DvV5/vnnZxoHe02sYx/nSgz4JpbnNv8g/cIcs0rbiy/9rMvbiz8an3OlHXyc+FB5iGKdknP81hz//+Sln6aXf/mLLfPiF9PPt+SHF/KVfVD8zYIB33Cu/F5Foxy4WDewqkRZ8UH+/HklyoGQL7jSzorP+fr1r3nT36+6172z3W9/w98tbZxxf+576TX/+Yh09b3Ppu6FhRxsf/qj9IOfbFl1vvzL9LtXfp2ee/CmdNyxx6RjjjkmHbvl75mf/MaWSeAP0uYtyX/hxz9Nlx339nTkWZ9NP9vi79e/WsLw+y1KfN3r5Fm9blmN/u53v+3at/zTrU5ZoP785V9tKdrLHSZeM89VgN8sr15feeVX3QHwV1vafr2lsD//+dIKmXXtL567L336o0d3mPjdgmPOvTQ988stOdiyLZdhf//7Lbl6BV+/6+Lk9fS/+NmL6Yebn92ys/1w+VLxFkzk51f8ngCvxVy6zA9m/gfLL3/56/Sb5Wu+P3/ytvTB1x6cPnLGh9PrDzojbX75la5/P9fkl4kYf1mh99uoW1eHni3rE088kf79v//33QtJOIvcV74A0JXao7aoj9MaX0N9VLuyZeW3l9761rdK7sN78l3anUZ1+PSnP939vEBpX9q/lvrcdv7x6T/9v69Lhx12WNpr99ekj3z6m+mnv17iCO1LwpuN3pPe8YFT0uUfPSK97c1Hphvv650V2sLNX/V+ZZ79ZetYW/TJjV9N+x+y+5Yx9kx77H9eeuTJ+9KrX7t7Ou1TX0ofOX7P9PWHl8/A/fTh9P69/1N6y0XXpC8f/xdpjw+fk84/9fx01KmXp+Pe/h/ScRd9rfOXffeVvKl8wluuSrQrYbMLX8xwteRXxDns3XGnsC9xTh/T6cOXi2pz+wNjRBgUF5xmbGqcKFb6qFjhHK+o/8xnPrPDcTPCpjDQn+8NXiveroSNJ+SaK2GclS9rNCbn+P5kolXax+Ycyj6kMPSxEWt+RT3/RxhoK+1sy6RT9XE5yLGWdjSKlcUxWtqJP/Kn8pMxKNzUh2NdaY+wYY/GKe0ofaY4zs0b50rFXu5z2a5yB17HObZX4+RYSzvK9i5W+MZJtNIecc7FGuWb+lCn0h5hw67qsCbPhNFPya9+/pP04P1PbnelKwuLkO7vzzanb113bfdjhegt339iu/tdf/z0xvT9jQ90t/G98lt9PycrrlfUDazdwstdStSXZpHf/vInaeMt123FdO1t96SfLm/+4ov68jWTUSc51lJ+uyVvGcdvfvLcli+gx9MTTz6UbntwU++didtkafGox4nqwCv5+X2xJlo4A8m96+xUpcB7yTkjUR1Y1P/pn/7p8qdtsrR/LfW5/vST0xnn3NX9/8r3Lk777ndUum/T0+nJZ5feDfvMc4+khx74Vvqrv9ktffiS69Ip//nV6fhPXt+1PXjT5emyL1+ffrQF7is/eSI9dMcN6Us3bdzuDUKcLPnRc0+kp5bvyDlj9/ekz1/y5fSuj1+ZXvrtC+n0978p3bhlqOcevi3ds+mnadP3vpAO+NyV6WtnvzPd+eyv0lPf+166+eGX09M3nZw+8fnLl26vFZIPgkra7Yh1wsRkvT8TFgl9VKxIeyZsvoXJUXsmzMeKH9pKYVvOvqs+Lgc5ViXgcrHyPYmWQvzOn5OMQeFe5GfCVL7nkXN9yYuPUrCp3IHXcY7tla8cq5IhzvG9V0rEOVeHKN+r8kxYBNLJEHglEcif/fzlLYuTHfsNYXNkiRL4+ONLr+Dsy1ACbaziIUWE7aOdVhUEW4TBxapExZ4lipUvNm5jcu3rXbgU/Z73vGfVF2FOlvavpT53nH98+sP/56+6q5Z77/bmdNm3H0/fv+L96fBTP9G1H3vKG9Mpl3wuvf6v/mN65xEfT+/59/8yveOYi9Jtt1yWjjzlpHTu6UelM75xY7rzsqPSq/76denDV96Y+u94AdvWB2d/dEt659sPSDfecnM64PTPpWdfei594vi3pAsvvT4d+Z4PpevvezY9ctOntyzCvpy+dtY+6bZNP0pXnXJ6+sBFj6QnvntS+vjnr2iLsAmlLcJSd5x/85vfnO67775lyzahj4oVaYuw+Za2CNs1F2Hcen7cccctf9omGYPC3RZhq8+5vjz22GMdh0rBj8odeNsizHNurhZhNTstBXFkcQmEENzGUMpQAmtiXetF2DXXXNP9Cn0pUaxtERbLVIswaq04ssS5pT43nXVSOvSQC9KDDz6Y7rnmk+m9x56dvvDJD6Rjzrqwaz/+I29Kl971cDr7ox9KX/3Rz9ONR+6Tvv7dB9PnDv2LtM+x56aLPnF0+o+7n5A++fHD05HnXdb16ctWbD97Mh2z91vTUZfckn738kNp7w9/Oj3/65+kj73t/0j/n3/8p+kKXi26Re791nnbL8I+fFo6oi3C1kTaImzpIfJ/9+/+XbrjjjuWLduEPipWpC3C5lvaImzXXIS9//3vT/vtt9/yp22SMSjcbRG2+pzrC3MNnm8qBT8qd+BtizDPuVVZhCHOVwRyNRZhSthejTOUwFljBfdaLsKQP/uzP0vvfOc7lz9tkyjWtgiLJS/CVN0dF5xEdYhk2+2IH06nfWz59du/3pjefvBR6ayPHpre+7FPdqYj3/fX6bO3b0ynnPiBdOmjz6WvHfKW9MVr7kqff//r08GnXZKu/dql6RMXfTldfeHh6ehzP9/16QvPJP76Z5vSR993TDr7qoeWjC/eld7+oS2LsF88nz5yyF+no088MR13wsXpx1uOVY/ceMHWRdjtT/84XXXyR9L7L3o0PXlTW4RNLXkRVuY14hx2dVxCHLfxFx3nlIx9nIvGieJxbbWLMCUswphc8jB7k3GEXPP8tVuEKRninDr+4EtNiBE3TrR/0cdxjn1ItZWcKxdhSsDg2tRVDMTlAHG+wOVirZnPudwgrs+YizAkyunYxzmVb3zNG+f6Qh+FAwwOn+Mc26scIM7XEOfGWoQhrg/1UW1RHbCrXG+gAcUhRM6fV6KsBOmn2pwvtqdfaSexBMZDzDnJWSNs+FL+UNeHRLG6Le0OGzprrMSAPT+QWLbTpvwNYXBtTvmS4gxsaXfjQBLOdOy5557d5yY7Couwd7/73d3kqqyt45xTVwfkhhtu6N7GyBg7jrN0FuaWc49Pf/qHu3VfzAfusVt6/1nXpacf+Xra83V/mg4+9Jj02rfum77wvS2LsJOOSl985Nn01Xe/NX3+q4+kTQ9+LR32wXenDx91UPrgp76cvnPZ0enocz6bfrNlIZXHQ5HbP3to+sf/vz9MRxxzTPrAUcelO2/7ZtrnlIvTUy88lT52zNvTHc+/nC45/l3p9C9uTA/e/Om0/2evSl/56N7ppsefT1868ZT0nvPuT49854R0zmcvT7/Gfy+ObfHo/QHhJQltETa78GXEiznyy3lyToeOMaoOaO1xrrShQxhcm9NonMzlsi3i3Nlnn929NRXpt0XYFAa+a5i08HZEXniE8N2Ttfy86DpVPOSahe29997bfe7nvJZzJRfgDJM6JpBjcdtxDv/sQ7SXY2XOYYdPnADk2XMkwuDauIqhMKgcZHW+MrbSDlbmcszpyngibGi5fVbVh22pj/ouZhyFDZ01VnxjH/s4V2LA91pwrmzDl/NHv7zY6CtjKF/YHeccttym7A4buGo4h69ZMOCb+lAnNY7LmxtnA06yIzbKn1ei2alrU3a2V32Y/PNmExLI//22CJvzh5JAZWdykkne16FxaFdtqg8kxZ7fplO206b8RRiwu1id5pV3aWcc5YsvNF7M0RZhXliEMaliJyy56jjn1NUb4eUf//bf/ttuDOrSb6cP9l/97IV03913drec3nb3g+knW7r+4mcvpR898WC69dZ709Mv/jT9bAumn/z4R+knv3g5/fSHm9NLP1s6g/PcI7enW269Z4s9bfHzg/Sjn2zZ97qW7eXnP34iPXDf3em2LWPccvud6YcP35jeduIn06Zf/i699OPnl37F/sUfpOeffynde/0FaZ+Lr0hXnf72dPumn6QrP3Z6OuKSx9JTN5yQzrz4iwlGLb3tc3t1+wPSFmF1khdhcLLP0+gYsxrHudKGRhiwz3qcc/sdmLKUbYzjOMcijLcjIv02cDlsKp68YOCK5B577NG92Y5JdFZO5vQ/Z+X4grq2Wexorb+x+tT4QlUbx0V+duVNb3rT1tf+93Ney7mSC3CHfShfLei3oY5z+Ik4ojjHWOxDtJf7UeYcdvhE/Nddd10Xd02sTLwVBocttym72x/IF3M55nRl7iJsWVSbyje+qQ/fxWXeonHAPEus+MY+9nGuxIDveeJc35aVPnkB0lcXK/Z55hy+HIaIc9SpzFvNOO2ZsJ5E2GpjpVhK6ENcpWCLMLhYlajYs0SxttsRY5nqmbBnn322ewi2lIhz/FAyvwum5BVbzy0LvFeWMG++59J0yP77dfflo/sceGS68cni8v7LD6c3vH63dOKnb102LMvPHkpH7P1nab8v3Ji+9bG90m5775neeNi709W33ZWOf9MfpVO+cL3NDfGo/QtptyPWCV8S6/2ZMH7LBf6wL5VCHxUrMuYzYYzB3QVc2b7xxhu306uvvlraud3s+uuv38HOtt/61rd2sKP8tiP9VBvPBqOlfcifwoDSR+H++te/3r0+vbTjx2HDrnxF2Bjj1ltvlfmu5Zw6/nCMZ2JXSsS5aP+KOMc+pDCUnNuVnwmDo/wGWikZg8JNfZgslxLVAbuqw1CsYx/nVL7nkXN9Ye7cnglrL+bYKhTEkSVKYL41pC9DCayJda0XYbwdjB+vKyWKtS3CYplqEeYk4hz82BnO/faXL6bntkxYmbSiTz71THrp5R3Hevmln6Qfv7j9we73r/wq/eiFH6afvvyr9MqvX07PP/9ceuGnW/bn3/06/fiHP06/+JU/eIJN7V9IW4TVSVuEpXTPPfekf/yP/3H67ne/u2zZJm5/QMZchDleI+oYssgyS912VtTEG6nlnKpTW4QN7/su1pr53D777JNe97rXLX/aJhmDwt0WYavPub4wp1R5wI/KHXjbIsxzbl0uwrAp3EMJrIk12mlVQbBFGFysTv78z/+8vZhjZJlqEeb8RJyDH2Nybstg6XevzMY5fpBcye9/78cBm9q/kLYIq5O2CFuaqDNpcPuqihUZexHmcjfPE2L8uX3SxdomxHGs9HGcIx6FAV99zu3Ki7Dnn38+Pffcc8uftknGoHA3zq0+5/pCrpU//Kjcgbctwjzn1uUizMlQAmtijXZaVRBsEQYXq5Ovfe1r6aabblr+tE0YB+y08fwDDzRmaYuwWKZahPFlpK7YRpyDH2vJuYxN5SCKNfeBh+XrxNsirE7aImypzQl9VKxIW4Qt+VMYEBdrmxAPH+cc51Y6Id6VF2FOMgaFu3Fu9TnXF9ocBpU7tm2LMM+5VV2EKfARyNovCkcWh4E36ajXBUfYZs1NFlWoeRImvf/0n/7T9M//+T9PF1xwQUdgJv977bWXzcV6FxZhPGC/2nLIIYek/+1/+9+WP61c1EFoSlH73JDkgxN/X//616dXv/rVW28h+/SnPy0nxE1iqV2ERcd0Jfif10VY5pUS+rj2WRdhGYPyRz5d7monxKoPuFxOa75bozo4DLUT4nngnMLQFmHTcs5JhGGeOVeDYd4XYbwMR+HDj8odeGsXYarPEOdqFmEq1ggD8dcswlSsGxgAzQnMn1eibA9410bgpb2fwL4dIYEskJB+m8OGZH9lG6owILyp5b777uv+79vx5cbBDw8knnfeeelTn/rUVv3kJz+Zzj///O1s6IUXXtgtas4666zu/7KdPvQt7c4fij9U+VOKL7a/6KKLdmjLvi655JLut8Q2bNjQ6f/+v//v3QLsrW99qyRMk6UrVPvuu2/34Pjtt9+ebrvttk55UJzPPIeyEt24cWO66667OuVVy32Fn5///Oc7/vB/3/7II490D/o/+uij2ykv8eDNlt/73ve6/7Od27FQrnBiz5+zYqMtf+YnDXiOkDg5WYHmz065jQRlu7x9tmVlOxaw/M/BP78NFeWNS9g4BvBafrj4X//X/3V629velg444IDO1mQ24cuItyP2j7dIdJxjW3VMz19ipT33yZOTsp0vKvU94PyhGYPypxRfbhz4dPfdd3d/yzbG5xhX2hHeyJkXYX072ND+9lmdv+i7lcmJws32qg65TfVhe7AhfTvC9yo5QPpt0XfrUKwlBoR9OU+I+/ZF5BxCLPkukf72+HLjRPXG7jgHFxSGXIcsnADkhSWI8+cwgHeeOcedH3xnlW2owoDMM+ciLmQMfX/IPHGuv31uu//++7vvcKTftqicc7GiCgMyJufW5e2I/G6Oe7uLwwYGJtknnHBCOuWUU7bqySefnD70oQ9tZ8v64Q9/OB177LGyjT70Le3YTjrppB3sKHZ8qjal2ZcaBz+0nX766elP/uRPti7C/s7f+Tvpr/7qr7rX/6raNkkdd/7iL/6iW6y+613v6l6XzF8WC4cddlg66qijVqQf/OAHu9saWdDhg/5Z+YwvvnBLO7+Pw9nQI488svPD3/w/bRlDtnFFjTcdMs7+++/f+cl/8/+5je3Ynr4f+MAHunFQ/ndKe/aD8gxi/r+vfQzEncdAiRM//AArr2D+B//gH2zlJApfm8wmtVfCONaVEh3T8Z8nJ6W4YzBjRBjcMV1JxqbG4YTEH/zBH2ydtPaFPipWpN2OuOTPfQe4WPuTk74sAudUrEx6iamUjE2NE8VKH8c54lEY8NXnHMfJXfV2xN122y398R//8fKnbZIxKNyNc6vPub6wAFN1xY/KHXgd59hejZ9jVTLEuZorYREGhZv6UKdSojpgV3Voz4T1ZCiBiygHHXTQ4AT2f/1f/9f03/13/103SeZKCG/FY/K2qDGvtnA1h9/3UfnB5g54Stieszfs0KVysgAOl3YOMpwpoz0rNv5ydYn69W0cMDgIcvDkihP/c/DlL4qNV3ljy3auFqP5ilb+7JQxyQtXwTibyd9sy3+5jeHJJ5/sPtPO56xcjaON7bjazMLrb//tv5123333btHGLYlNZpNdbRGGTU22MjY1DvsJr72G06XQx+2rbRG25E9hQFysbUIcx0ofxzniURjw1efcrrwI466Q8plgJGNQuBvnVp9zfVHbI9hV7sDrOMf2yl+OVckQ59oibItECYxA1n5ROLK4BIKhJoE1sUY7rSoItgiDi9XJGWecIV9qkMe+8soru5dwcMtOFm4HaC/m8MJCgas1qhaz1gdRHEXgqPpyQRR3srAQU+LGmSchf3/5l3/ZvdWT2z2R9kxYnexqizD2h3ybTl8yNjVOxHl3DEbaImzJn8KAuFjbhDiOlT6OcyudEO/KizAnGYPC3Ti3+pzrCzVVbfhRuQNvW4R5zq3LRRjE4xmYUoYSWBNrtNOqgmCLMLhYlajYs+RYFZHa2xFjYRE2xdsRjz/++O62x1IizsGPteacy0EUa+7DVbLyN53a2xHrZFdchM06OVGxZKGPa2+LsCV/CgPiYm0T4uHjnOMc8SgM+Opzri3CtpfGudXnXF+YH3L3Syn4UbkDb1uEec5tXYS5BEbiCrUzCaz5oogwqARCvHlYhCl/QxhUrE7A5raPxmmLsFjcIizinJOoDpdddpm8lTTiHPWOOKcOAmNzzuUgGoc+bpy2CKuT2kUY7aXsDOdm5YLjXM3kBDvPcCp/tKlYkbYIW/IXYVC4ayfENbGOzTmFYTUmxGochHhUG776nNuVF2Hketar3Y1zq8+5vszzIqz/Yo6+RJxzdYjyTX1qFmFqnA0MguIQIufPK1G2V30iX64PiWXngxT832+r8Ucfnofhb99OIpicMFbfjg6NU/pCXR/GYXwmAPxfts/qD3V9IoV8mUx9deOwPW/e23PPPS2Z1ruwCOOZMG7763OVnCrORRrVm1ogpd31mRfOuRzUjIPwO3btdsTZheMcL4/hb8nTWevg+kzFOXzzBcvzi+r7QXEO4TZr3vh64403dp/77Q4bwltJL7744u7/fht9ZsGNYnN9eBZT9anxhV21kS++V2u+Wx0GlW98Ux+OiyUXasdRffANp6fgHLHMwrncNss4KGMRDz7LmHIf7EziDj/88O45R8T5izBMyTnmWSvhHNsQ28EHH9y9EZfvvn4e6NM4t3qcK9vo4/xRUxY6K8039qk5t1JsaIRhCs5tYIKOsgNgyJ9XomwPoNKeV52lHc3EUm18yaKlPcJGElDVRp+8COlrltIeYcNeE2s+A1AqfYirtEexYnexOuVKCq+qL+1RrO1KWCz5Shg7VZk7cqo45zSqA23KV8Q5araWnMvYFO4oVuy0l3aEqxLtStjswqQhv2Cnn9OhOiiO7AznFBdqOMf+xhdsaXecQ3jpC2/f5DlXpN9OHxUrwivqM+f6bQ5bbpuV93yZqz5sr/aHHGtpR8Hl2mq/WxUGlD4KN/Vh4lLaF4FzKtZZOYfWxIoSj8KQsWXhTbL5Shjts2Bg23nmHCfb+Ime0p4xKNyNc6vDOeIt7Si+Mvf66jCAd0rOsUAs7TV1iPJNfdT8r6YO6/KZMJLnLqc6bLWxsjJXQh/iKgVbhMHF6oQrWrwKvJQo1rYIi2WqZ8KcRJyDH2vJuYxN5SCKlT5q/0La7Yh1khdhZf2iOmBXHNkZziku1HCO/W3W23QioY+KFWm3Iy75c/uki7X21rB54JyKtYZzUaz0cZwjHldzfmPxm9/8ZrfYOPHEE7s3CHKC4Rvf+IbkI35U7vA1z5xzkjEo3I1z43MOX4pXCG9L5rulFPyo3IHXcY7t1fg5ViVDnFPYIs65OkT5pj5q/hfVAbuqw7pchLEq5wfnShlKYE2s0U6rCoItwuBiVQI2t30Ua1uExTLVIowf0+Y3u0qJOEe915pzLgdRrPRR+xfSFmF10hZhw5xTsSJtEbbkz+2TLtY2Ia7nnJsQsz043vCGN6T/+//+v7s3x/J7Wv/T//Q/2Z/uwI/KHXgXkXNRvhvnxuccvohXyQMPPNDdXlgKflTuwNsWYZ5z63IRxiVLziKVMpTAmlijnVYVBFuEwcWqBGxu+yjWtgiLZapFGD/o/epXv3r50zaJOEe915pzLgdRrPRR+xfSFmF10hZhsdBHxYq0RdiSP7dPuljbhHj4OOc4F02IkVtuuWW7H7D/t//238pcI/hRuQPvPHPOSZTvxrnV4RzxKnnqqae62/FKwY/KHXjbIsxzbl0uwpwMJbAm1minVQXBFmFwsSqJYo9ibYuwWNrtiF4yNpWDKFb6qP0LaYuwOmmLsJQeeeSR9KpXvWq730HMQh8VK9IWYUv+3D7pYm0T4uHjnONcNCHO47zpTW/qFmB/62/9rfTVr361szkMKndsO8+c48Qjz7yVkjEo3I1zq8M54lXixsGPyh142yLMc24DA6B0xmn+vBIFIAkp7QzkfLF9DqzU6EFO54/AUNVGH7CoNqURttpYM/lKpQ9xlXZsEQYXq9Mrrrgifetb39rBHsX60EMPdc+SNdHC7az8WDMH/jJ3Y3KOWiuORJyjz1pyLmNTOYhipY/av9C2CKuTvAgr6xfVAfvYnFNcqOEc+5t7YN2Nw7HsP//n/5y+//3v79BGHxUrml8GU9odNtRhIN8udzUPrDtf4HI5rf1udfuki3XslyRE2MbmnIq1hnNRrPRxQt6GhJMJf/fv/t30n/7Tf1q2zC55nBKby8FQHVysNZw79thj02GHHbaDPcp349ww51SsKPEoDPgi3tKORhhU7tjWHefYXo2fYy3t6BDnWIiV9ohzrg4Zg8JNfdT8L6oDdlWHDRQBJUnc55k/r0R5vSUvuFBtzhfb06+0syLn4VOU//ttETb8zYIB31zJ4Mu5bHPY0NpYue1RtdGHuEo7thoMpUIS/v7Zn/1Z95pqXqfZz6uLlRX+nXfemV7zmtd0B3yenesr9wOjK7XntlnskUbjRBphUG3R9tddd123SOUB1ZKrjgtOI85xQOEgoNrcOPiCcyUudLU5lzXaH9w49FHjkIMzzjhDXpVoEgsTE65ok9uV7PsodsURtJZzpQ2dlXP4Zn/j2D3rOBz78vGwr/RRscK5008/PZ133nnd//02hS2rw8D2rs19P9SOo3JKvqb8blXHRYcNxb4rcS6KFQz33ntv95MJ/Cg9etNNN3V67bXXdvb8OesNN9yw1X7bbbd1z4Vxteiuu+5K119//XY+8v9sT1u299v5/uKWshKbykHWWWMlXzWcYz9lDqLaVB98N87FsdLHxUo8quYKGwomfsJI5YHtHT53nGN7NU5uU3YXK3jg2+bNm3fAFnHOxYqqPvgek3NzdSWMFSxfeqU9wsaqeNYVO4lgMl3ah1axNbFSJNVGH7UqxhZhcLE6hfwUv7RHsbL9oYcemt75znemd73rXdvpvvvumw488MAd7NiUPbc5+wEHHCDbnEbjOF9Rn/3337/T0u6wHXTQQWmPPfbo3lCFlLlznHMa1YEvywsvvHAHe8Q5+LGWnMvYVA6iWOmj9i+kXQmrkymvhEWcU1yo4RxnHpmglfaIc4yDImUbfVSsSP92xH6bw4Y6DOTb5Y4vYdWHcdT+kGMt7Si4XE75Xp31DDH+FAbUxUp9proqMTbnVKw1nIti5YTA6173urT33ntv/Z7JyvdQ/7NSvn/222+/rf/zHVVuk1W18aInTsyee+65O2BzORiqg4u1hnOKB2iU78a5OFb6uLwSj8KAL+It7ShzZxYnpR0/Knfgdcc5tlfj51hLOzo251wdonxTn9GuhHXfMluEgdhoFiEZOC0lD6iE7emnhOShpUTYCBpVkpNRComFfKVE2GpjVeMg9CGuUrBFGFysSlTsWaJYwUaOmMSVyhkACFjasSk7Sg6oa2lnh6GttEfKmTK+yEo7/p2vfCZctXEwQUt7hA1/ruaOc06iOvDTAn/4h3+4/GmbRJyDH2vNOZeDIc6p/Qtpi7A6gavr/ZkwZctCHxUr0p4JW/Ln9kkXa56clLIInFOx1nAuipXvT+5Mcd+VK1EwkWPVNqQsVr7whS90t/2V4nIwVAcXaw3nnET5bpyLY6WPihUhHoUBX8SrhKs98KgU/Kjcgdcd59hejZ9jVTLEOXheSsQ5V4co39SHOpUS1QG7qkN7MUdPhhJYE+taT4idRLG6eBAWJ7OKijNL1KYkiiny5fqxI6mdCanxNybnuCLJl3Yp+Hc1gh9rzTmXgyHOqf0LaYuwOuHLaL0vwrg15dRTT+3uCCiFPm4fb4uwJX9un3SxtglxHOuzzz7bXQFbS/n617++9U6OvrgcDNXBxVrDuauuuipdcskly5+2SZTvxrk4VvqoWBHiURjwRbxK1PYIdpU78LZFmOfculyEMb5aTAwlsCbWtZ4Q5/t3S4liBZuKFSEehaGmDuuJc04ibM5PFCu41ppzLge1nGuLsDppi7CUNm7cmP7n//l/7p6HKYU+KlakLcKW/Ll90sXaJsRxrCzCuC3QcWgKufrqq+d2EcYtmfwGWilRvhvn4ljpo2JFiEdhwJfjKH3cAkTlDrxtEeY5ty4XYZCIF3OUMpTAmlijnVYVBFuEwcXq5E//9E+7iVgpUaxgU7EixKMw1NRhPXHOSYTNSRQruNaScxmbykEt59oirE7aImypDw9rq7Hoo2JF2iJsyZ/bJ12sbUIcx9oWYTHn2B/QUqJ8N87FsdJHxYoQj8KAL8dR5s7cklgKflTuwNsWYZ5zGxgkK0Tufx5StgeIa1N2tld9SCzP7aD8X7bP6g9VffDNbV4QiaT02/Az1jj45r5ZxirHQd04qGvD7jA4/eY3v9n9yGNpH4pHtREH8RCXyl3kT9nRqE1plAPny2GbinOR4kf1YWd+/PHHuzP55LrMt+rDNvPAOedrKG+qDTn77LPlhLhJLHwZ8QIA/vb57TiX25QdVX2m4hy++YLlpUqz7Kv040t0lj7IWWedlS6++OLu/34buFyOnL8o3+RN+VM56Lcpu8M21XEO39SHu0xKLuAnGkfZUdVnSs4Ry6ycc3njmM5dKdyOiL+1EhZhxx13XPd/H5/KQb9N2V2stZwjR3nCXKrq0zi3pK4OqOvDWMQzy3wOTPyOLG8GLPGxvRoL+5THORZIs9TI+UNVn7E5twHSozhmo/x5Jcr2gHBtyp5Bl3a+KHnhAcr//bYIm/OH0oe+fRs7ODbVB19uHLZXsTps+UBCsfi/bFfY0ChW7C7fTrOU9qG8qXGIg3hoL2PCV+Rv1lidRjlwvlystZyridUp2NQ44Nlnn33SP/kn/6TLdR+fwzYvnHPjuDqgbhzknHPOaVfCKiQvwshtnz+Ocyj1mYUjU3EO30wWOHPr9lU1DpqltLs+CAv/zLl+G7FGHFb+onxzRln1UTnotym7w0a+ao9zEYYSN76pD7wruTA257BPwTlimZVz+HF1ePrpp+fiStjxxx/f/d/Hp3LQb1P2sTmXpbS7fDfOLanjHOr6MBbx0K+MydU142O8so/LN2NPeZxjcTQL5/ClMOQ+Je6xOddezNGTCFttrBRLCX2IqxRsEQYXq5JMRCVRrGBz/YhHYaipQ+NcjI2rtbfffvvyp20SxQquteacy0Et59rtiHXCl8R6vx2RL+Sbb765+3IuhT4qVqTdjrjkz+2TLtZ2a1gca7sdMeYc33n33Xff8qdtEuW7cS6OlT4qVoR4FAZ8OY46O35U7sDbbkf0nFuXizCKxFuzShlKYE2saz0hzmctSoliBQQBWakAALzASURBVJuKFSEehaGmDuuJc04ibE6iWMG11pxzOajlXFuE1UlbhKX0ve99L/3BH/xB+ta3vrVs2Sb0UbEibRG25M/tky7WNiGOY22LsJhzb3zjG9Mf//EfL3/aJlG+G+fiWOmjYkWIR2HAl+MoHObkVin4UbkDb1uEec6ty0UYl2Dvv//+5U/bZCiBNbGu5YQY4aB22GGHLX/aJlGsYFOxIsSjMNTUYT1xzkmEzfmJYgXXWnIuY1PYaznXFmF10hZhqbsCxpsRVT/6qFiRtghb8uf2SRdrmxDHsbZFWMw5fgj43nvvXf60TaJ8N87FsdJHxYoQj8KAL8dR5s78tmop+FG5A29bhHnOtSthPRlKYE2sazkhRs4777x0+eWXL3/aJlGsYFOxIsSjMNTUYT1xzkmEjR2dg1cpUazgWkvOZWwqB7Wca4uwOmmLsKU2J/RRsSJtEbbkz+2TLtY2IY5jbYuwmHNOonw3zsWx0kfFihCPwoAvx9F2JWzkRRgDoDmB+fNKlO1JSGlnIACWdjQnsLQjJDAXt98WYcOX8ofSByylPUtpB5sbJ4rV9WH7TL5S6UNcpX0oVoXBab/gZdtQrAobyk6r8h3VAS6oOqwnzjl1dUA++MEPpj/5kz/p/kdyW8Q5cK0151y9aziHMCFui7DZhS8jXsxBDZGc05o6DHGO44Jqq9n3HeeYaPH2q34saMQ5xslStkWc42UweRHWbwMb2rehQxhcrOyrqg/bqxzkcUo7yvYKG8IxLk+I+201dUDpU+JG8oS4b0fXE+dcrMi8LMJOOOGE7v8+PjCrHORYSzvK9mNyDi23RzMXynwjjXN1saIcfxQGsKm6Mrayoy5W+kx9nCvbojpEGGgrcSNjcm7rK+oJGKf580qU7enn2pSd7VGS2LcDHuJB8hxIVocNHxFu1wc7E5TSHo2DnfayDXV9hl5pOos/lO1R5S/SMp+oixV12BhXvdKU/+kzq78Ig1PnK7cpO9ujZd6m4pzTyBdy1VVXpTPOOKPbrsTusM0D5yJfrs1hQ9or6usELuy1117dsS7zmzq6OtDm6oC6PkOcK21ZXRvjo31//M8XLLeSq+OZw8YX8lNPPdX9LfG5WBH1inr6u9yhzl/UZzVe3VzGSb44xnGsW83jHL6pD3XqY4h80Yad9rINdX3mlXOoi5UJGG9H3BVfUV/WYVbO0R/l1ef5d/1KnwrDvHPOYchtaIl7TM6h2FWsjEU8xFViiPyBr+yDuj7Ypz7OrRQb22F3Yyn72Jxb1dsR+VsK29NPCV+U+cxJXyJsJARV4jBQpMcee2z50zaJsA3FqoTtIYUS+hBXKdgiDC5WJWBT8SNRrGBTsSJ5wVLKUB1crC53TobqoOKNYp2Kc04ibE5yrErAtdacq6kDfRzn2u2IdVJ7O6Kqw85wTnGhhnN8gc16mw7Pl/zTf/pPuzcklkIftT8gtbcjKn/k0+UuX7UuZagOqg+4XE6nOs7lM8SlLALnFIYazkWxLvLtiCrWsTlHbt785jcvf9omEYbGuThW+qjjEkI8CgO+HEeZO7MIKQU/Knfgdcc5to/qoPoMca7mdkQVa4SB+lCnUqI6YFexrstnwiDEgw8+uPxpm9QkcCjWtZwQI0cffXR3a00pUaxgU7EixKMw1NRhPXHOSYSNMZSvKFb6rCXnMjaFu5ZzbRFWJ7WLMMWRneGc4kIN52omJ5xVP+mkk7qrYaXQR8WKtGfClvy5fdLFWjshngfOqVjbImxazn3pS1+Sx/oo341zcaz0UbEixKMw4MtxlLkzV7ZKwY/KHXhrF2FKhjhXswiLMCjc1KdmEabqsC4XYYyvxhlKYE2sazkhRvbbb7+ttx70JYoVbCpWhHgUhpo6rCfOOYmwOYliBddaci5jUzmo5VxbhNVJW4TFQh8VK8ItsFdcccXyp9UTx/kmwzJrvedB+K45+OCDZzqmji3txRzzc5xT+Z73RRh3kqkc4UfZwdsWYZ5z63IR5mQogTWxrvWE2EkUK9hUrAjxKAw1dWici7HxXAovViglihVca805l4NazrVFWJ20RdhSrI6/9FGxIrxV9lWvelX38x59PeSQQzot7SiTa2U/9NBDbdv+++8v7YxBP9XmfEXYeA4JLe0RthoMXOU56KCDdrDjx2GrjfWAAw6Qba5PDQZ8EVNpz23KHo2zzz77pDe84Q2Wd1PIPC/C8BdhUPt4W4QNf7c6vhGPwoAvd9xU2yPYVe7A2xZhnnPrchGGndV8KUMJrIl1rSfEzlcUK9hUrAjxKAw1dVhPnHMSYfvIRz6Sdt999+VP2ySKFVxrzTmXg1rOtUVYnbRFWCz0UbEi3Ma4cePGdNddd22nd9xxR6elHb399tvT97///R3sd955Z9dW2tHrr79e9mEM+pV2tnW+Imw8E4eWdn7MOvKnMKAu1htvvDHdeuutO9jx47BhB0dpj2LF3w033CDbHDbGiDCoWG+77bYuptKesalxolivueaa7sSaO9ZNIe1K2Pwc51S+530RxvNgLt8qd+BtizDPuQ0ElIPCaf68EmV7QJb2yBfbqzbAERjK//22IX8KAwpR6Nu34Zv7WXlgm4T12xw2dNZY8Y39hRde2GEclLYSGxrF6jBEmqW018RKHMRDXlXuHLaaWJ06bJEvF+tUnIvUYUOzlHaHbV4453IQxerGQaa6NWxXFM68U48+v4fqMAtHpuIcvvly5ctc7auKcwg/LPof/sN/6CbTSL/dYWMsN9kaW3jD1hRCPtHVFt6aRv6mEDXBH1vgGjGNJcw9uFIIz9ZKWIQdf/zx3f993qv9Do32VXcsmfW7lW2Y7H7gAx/ornDyf7+f28fZhmMCXCiPPw4bil3t+y5WfDP+FMc5YpnlOIfWxMpYxEN7GZPChrIdx1R+Z7fE5zAwNuMoDG4ctlW+UDcOeOAbP9Cvcuf8RRim4NwGjCid84Ar1QxetTlfGWRpBwwJzK807bdF2PCl/KGqD75J4OOPPy7Hcb5mjRXf2CFfOQ5Km/I3hMG1Of3MZz7Tveq8tEfjOGzEQTy0lzFF2FR+UMZwbU4ZQ2FDo3EUNmKAb6vNuUgdNnTWWIkB+1pzzuUgGsdhQ84888z01re+tbsixgsTor9Zld3Z+p/77TXb5c992yzbqW36f/P/K9nu1FNP7W6pI+d9PgzVW9UBreVcaUNn5Ry+8+RkpeMgjz76aHrnO9+Z7rvvvu5zv91xDv9THeeYlCsMjDFLHVCHjRhqj3OzYMA39WFhqcZxeasZB/vYnCsx4HtWzqFuHCZsvKJ+Hl7MkZ8T7+ObtQ4ofVSsxAffmNOVuWOM0h+5YXLLS8ROO+20rZPo/jYKA9s0zsXj0EfFiv98nCvb8KX80Ye5s8oDYyhf2N1xzmHLbcoeYZuFc1nxNQsGfFMf6qTGUdhQN86q3I6IOF9sTz8lBIWWEmEjCaiSKB58lhJhq4mVMdby1jDkNa95TfcsQClRrGBzsbrL1zV1iOrqpKYOUaxTck5JhC2SKNa15lxNHejj6sptPx/72Me6K2J8See/LM5Q/s/2rOX2+X+es8tt2Za3OeWUU7r2/Dm3sX3f3lfaSjufwZXbcnv+n9tMTz/99B3aMrZs6/cpY83KNjmevo2/H/rQh9Jll122nMVtEtUBu+IIUss5JTWc40uML1glbpxI6ONidcc5hw2J8uPa+DJXwjhuf3C+wOVyWnucmxUD9WHiUgp+onrPA+dUrPialXNRrIv4dkTExTo25yJxfRrn4ljp42IlHtWGL8dRjsPqFj0wOHzuOMf2KgeI8zXEubFuR0RcH+qj2qI6YFe5bi/m6MlQAmtijXZaVRBsEQYXqxKwcdmYswOlRLGCTcWKEI/CUFOHxrkY25e//OVugl1KFCu41ppzLge1nJvqlq0xbzuKhDhdrGOKy3VUB+yKIzvDOcWFGs65RdjOcE7FirjjnMOGRBhc7picqD6MoziSY1UCLhdr7XHO8dTFOuaEeCjWsTmnYh2bc+0V9XWci/LdOLdzxzmFAV+OoxEGlTu2dcc5tlfj51iVDHGuvZhji0QJjEDW7rSzkoVJHbcFlDKUwJpYo51WFQRbhMHFqgRsKn4kihVsKlbETU5q6rCeOOckwsbVEl7MUfqLYgXXWnPO5WBszkXYHIaorm1CvBSr4shQrBHnXB0iDKqubRHWOJcFbGNzTsXaFmHzwbko341zO3ecUxjw5Ti6adMmiQ8/KnfgbYswz7l1uQjj7S48XFjKUAJrYo12WlUQbBEGF6sSFXuWKFawqVgRNzmpqcN64pyToTrQVvqLYgXXWnPO5WBszkXYHIaorm1CvBSr4shQrBHnXB0iDKqubRHWOJcFbGNzTsXaFmHzwbko341zO3ecUxjw5TjK3PkHP/jB8qdtgh+VO/C2RZjn3NZFGOKS7oQBFUDE+WJ7FTBC8twtQc4fQTmCuT4kFlKUEmGrjVXdCohEuY4wuFid8ArdRx55ZPnTNoliBZuLlXgUhpo6IFGbkto6uFin4pyTCJuLE4mwrTXnaupAHxev41yELYrVtbkvWMZx2JwvcLlY4VsN52bFwFui1BdPVAdnRyJsU3COLzFiUuLGGeKckzE5BwbXNiXn1OQEifytJ86pWMfmHI8HzMMijOdFS3E5QKI6uFgb55YkwjAF5yJsxKMw4It4lfCSDbXoxY8byx3n2F6NjzhfQ5xT2BDnz9UBcX2oj1psRXVw9g35bAVOSVT+vBKlgPQr7dzu53yxPf1UG8VFS3uEjRUpqtroA5bSzoGBQpX2CFttrPzejGqjj/I3hMHFWiox8vcv//Iv03777bf1c9ZoHIcNJR6FoaYOjOFy57S2Di7WqTjnNMJWEyu41opzaMbm6u3GcdhQx7kIW4TB5Y5xVJ/aOrhYaznn8uNiff7557uTTaUdPw5bbawR51wdIgyqrsRCTKU9Y5t1HPq4nDbOrT/OKQxjco7vYE6I8gPdbnI3hXz1q19NRx99dDeJ7OOrrYPL6Zici/LdOBePQx81Dko8qg1fxFvaUbYv55PZrnIHXnecc9hyrKUdHeIcb24s7Q4b6uoQ5XtMzm1dhDGQ6+zUOc1tyu5AUlSSh5YFjrBREEeWqA+3JJb2KIH0qYmVM1+qjT6quFGs2F2speYc3n333enhhx/eelYqt4MtypuKlf7Eo/phi/wp+3rinFOHDcU+a6zgokZlPCh9VpNzWZ0vYonypmKNOBdhcxiiWN0XrMOW25QdXKptZzg3CwZ85y+Kchz8uHGwK47kNmUHW8S50obOyjl884VITLOMM8Q5FSv+x+RclO/GuSVf88C5MlZ8j8k5voP5yQR+B2uRFmG5Tdkb55bU9VlrzqH0cbESj8o3fZw/bkVUOKJ8T3mcY25f5m41OEedynGiHGBXdZi72xFRJc4flybdZVPXh6TPeotebawkXkmU6wiDi3VWiWIFm4uVeBSGmjogUZuS2jq4WKfinJMIW02s4FprztXUgT4uVse5CFsUq2vjoKqktg4u1lrOzYqBL4R2O2LMOSdjcg4Mrq1xbn44p2Idm3NMetfL7YiNc0sSYZiCcxE24lEY8EW8Spg7s9ApBT9uLHecY3s1PuJ8DXGOkx1KnD9XB8T1oT7UqZSoDs6+Ll/MAfHUIizCVhurIx99FMmxRRhcrEoyNpWDKFb6qFgR4lEYauqwnjjnJMJWEyu4puAcfZQ9Y1M5iGKlj4oVcZxz2BCHIaorZ1NVn9o6uFhrOefy42LlZNOiPrCu6tpezNE4lwVsY3NOxdpezDEfnIvy3Ti3c8c5hQFfjqNuEYYflTvwuuMc26vxc6xKhjinFv4R51wdonxTn9FfzBGBdDIEXkkEsnandWRxCQRDzU5bE2u006qCYIswuFiVRCSKYqWPihVxk5OaOqwnzjmJsNXECq4pOMcBSJ0VzNhUDqJY6aNiRRznHDbEYYjq2ibES7EqjgzFGnHO1SHCoOraFmGNc1nANjbnVKxtETYfnIvy3Ti3c8c5hQFfjqPcUqfGwo/KHXjbIsxzbl0uwpwMJbAm1minVQXBFmFwsSqJSBTFSh8VK+ImJzV1aJwbn3PgmoJzq/FFoWJFHOccNsRhiOraJsRLsSqODMUacc7VIcKg6toWYY1zWcA2NudUrG0RNh+ci/LdOLdzxzmFAV+Oo2p7BLvKHXjbIsxzbgNGlMBwmj+vRAFIv9IOEOeL7emn2lhhc69laY+wEVgOrlT6gKW0UygeLiztEbaaWMEF+VQbfZS/IQwuVqUZm8pBNI7DhhKP6ldTB8ZwuXNaU4coVvg2BeecRthqYqXPFJzjvmuuhJX2jM3V243jsKGOcw4bGmFwueMWC9WHcRS2qA7gcrHWcs7lx8VKffhCKu34cdhqYqVPxDlXhwhD41zjXBQrfcbmnMIwJueYzD399NPpoIMOWp5+rY1885vfTMcff3z3fx9fTR2GOMecrrQzRuQvwqDy3TgXj0MfNQ5KPOp4hi9lR3mucZa6gtcd5xy2HGtpR8fmnKtDlG/qQ51KO34cNjfOBhpQBuNsQv68EmV7+rk2ZWd71QdwBIbmQPo6qz9U9SGhvNlk48aNW4uZFT9jjYNvisQrM8txUPrM4i/bXR+ntfGoNuIgHuJSuYv8KTvbuzanUQ5mjXUqzkWKn7HGWQnnSltW14a9xIBvTmRwYB0zb6ptSs4xjvLnsOU2ZXfYpuIcvqlPvnWk34afscbBd+PckkYYXFvj3Ozj4HsqzhHLWJxjwsWVsNe//vXp4osvTl/4whfSpZdeulXLzyvRqI9qu/zyy9O73vWudMwxx3SLsD4+lYN+m7K7WBvnhtuwlxjG5hyqxkEZa9bjHJjuu+++jsfMpfttbK/wYZ/qOMeVvUXj3Lq8HZHkcUaqlAhbbazR5WviKgVbhMHFqiRjUzmIYqWPihUhHoWhpg7riXNOImw1sYJrCs5xMBn7lgkVK+I457AhDkNUV84Kqj61dXCx1nLO5cfFusi36ai6rgbnVKzImJwDg8td49z8cE7FOjbnmHt8/OMfT8cdd1z3hsKTTjqp+4t+8IMf7G4T7NvQE044odO+Pf/PFa1sy3YUP2Vbbj/ssMPSrbfeuoxom7gcDNXBxTom56J8N87t3HFOYcAX8SrZtGmTxIcflTvwuuMc26vxc6xKhjjXngnbIlECI5C1O60ji0ugk6EE1sQa7bSqINgiDC5WJRGJoljpo2JF3OSkpg6Nc+NzDlxTcK4twobr4GKt5ZzLj4t1kScnqq5tEdY4lwVsY3NOxTo255wdUXlbDVGTR8TlYKgOLqYxORflu3Fu545zCgO+iFeJGwc/KnfgbYswz7l1uQjDppIxlMCaWKOdVmHAFmFwsSrJ2FQOoljpo2JF3OSkpg7riXNOImw1sYJrCs6txheFihVxnHPYEIchqmubEC/FqjgyFGvEOVeHCIOq69STE4XBYUMiDC53jXPzwzkV67xPiCMMKndsu4icyxgU7sa5aTkHPuUPPyp34G2LMM+5dbkII4FPPPHE8qdtMpTAmlijnVYVBFuEwcWqJCJRFCt9VKwI8SgMNXVYT5xzEmGriRVcU3BuNb4oVKyI45zDhjgMUV3bhHgpVsWRoVgjzrk6RBhUXaeenCgMDhsSYXC5a5ybH86pWOd9QhxhULlj27YIa5zLUsO5xx9/vONQKfhRuQNvW4R5zq3LRRiEePDBB5c/bZOhBNbEGu20qiDYIgwuViURiaJY6aNiRYhHYaipw3rinJMIW02s4JqCc20RNlwHF2st51x+XKyLPDlRdW2LsMa5LGAbm3Mq1rYImw/OZQwKd+PctJxj7syLNkrBj8odeNsizHNuAwOgOYH580qU7UlIaWcgAPK3bOsnsG9HSCAPriL9tggbvlDVRp8SA8IOyxtUSjvY3DhRrKpP9gf5kLKdPsRV2odixafyp3SoDlGsChvCTlvWD4nqAIZZY3XK9q4O88o5p8hQHVysqg8CrtXmHEKu2YeQ/vZDdYhiVdgQ4inrh7g6ZAyzxso4CjfbuzrUcA6+TXGc44uCN18hfftQHVysqg8Crjw5Kdtdfmo4l4/bSH/7oTpEsa4nzuUJcb9tNTiXJ8R9+1AdXKyqDwKuXZFzCoOrQ4TBxcq2jXONcygyK+fQF154YetCp29fVM5hd7HSVmJAxuTcql4J428pbJ8TWArJywnsS4SNoFAlDoOTCNtQrErYPu+0pdCHuErBFmFwsSqprQN9VKwI8SgMQ3VwsbrcORmqw6yx7mqcA9cUnOMAyYGolNo60EfFijjOOWxIFKvLHV8UCvdQHVQfcLlYp+Jc/4uiL1NzTmGbF84pjiBjcg4MLneNc/PDOYVhas4pDPgai3PgXUTORRga56blnPOFH5U78DrOsX1UB9VniHM1V8JqOEedSonqgF3Fui5vR2R8ftStlJoEDsUa7bSKzNgiDC5WJRGJoljpo2JFiEdhqKnDeuKckwhbTazgmoJzi7AIUxiiutZOTpSAy8VayzmXHxdr7eREcWQo1ohzrg4RBlXXRViEOQwud41z88M5FesiLMIcBpU7tl1EzmUMCnfj3LSco49bgKjcgbd2EaZkiHPtmbAtEiUwAlm70zqyuARCiPZMWLzTqlgR4lEYauqwnjjnJMJWEyu4puDcanxRqFgRxzmHDXEYorq2CfFSrIojQ7FGnHN1iDCouk49OVEYHDYkwuBy1zg3P5xTsc77hDjCoHLHtm0R1jiXpYZzDz30UHsmbEt92iJsWSiII4tLIPfbPvbYY8uftslQAmtijXZaVRBsEQYXq5KIRFGs9FGxIsSjMNTUYT1xjgOD8hdhq4kVXFNwri3ChuvgYq3lnMuPi3WRJyeqrm0R1jiXBWxjc07F2hZh88G5jEHhbpyblnOPPvpo+tGPfrT8aZvgR+UOvG0R5jm3Lhdh2BTuoQTWxBrttKog2CIMLlYlGZvKQRQrfVSsCPEoDDV1WE+cq/2imDVWcE3BubYIG66Di7WWcy4/LtZFnpyourZFWONcFrCNzTkVa1uEzQfnMgaFu3FuWs6Ra+UPPyp34G2LMM+5DTSgDEZy8+eVKCBQ1eZ8uT6AJzA0B9LXWf2hrg9FzDtHX8mB84WddtWmxmEM7LxJJpOmr7Qpf7UYnLocROM4bMRBPLSXMeEr8qfsjOHanEY5cL4ctqk4h28OQhwgyrxFdcA+S6wr4VxpQ2fFgG8OdMQ0S96iceijYmWsqTjHLRYKg8pBVufLYdsZzs2CoXFuSaNx6KNiZazGudkx7IqcI5bGOT+Ow9Y4t6SzYsD3vHMOXyoH2BU+7I5zDltuU3aHjXxxl9uicW4DTrIjNsqfV6LZqWtT9gyytBNYf6ftt0XY8DcrBgq1adOmHewOG4p9lnGIATskL+NBaSOu0h7FGmFw6nzVxEocxEN7GRPbz5IfdL1wDt+ccWKnVXlz42CfdRzsq805fPcnxP021PmqiRX/jnOuT25T9ihWxlH5qRnHxUoMU3Euf1GU4zhsKHaVg9xW2vCNPeJcaUPnhXMqVvyPybkIQ+Pckq/GucY5FH+zYMB349zOc65sU9iyPv300918prQ7DIw9Jed46V6Zu1nr0G8rbfimPtSpHMdhQ7GrHKzK7YiI88X29FPCjoSWEmHLgShxfUjg/fffv/xpm0TYamIFd3T5Wl2azFfolGB3sTqpqQN9XKzu8nVNHdYT5zgwcFallAhbbaxTcI4DCgc8JTV1oI+L1XHOYUMchqiuHBeU1NQBXC7WWs7NioH61HBOcQRx4+Av4pySeeGci3VMzuHHtTXOzQ/nVKz4mpJzqg1fjXMeQ+PctJx74IEH0g9+8IPlT9sEDA6f4xzbqxwgztcQ51gclRJxztUBcX2oj2qL6oBd5XpdPhNGkZ5//vnlT9tkKIE1sUY7rSoItgiDi1VJdE9rFCt9VKwI8SgMNXVYT5wbcxEWxQquKTjnJsQZm8pBFCt9VKyI45zDhjgMUV35olB9auvgYq3lnMuPi3XMyclQrBHnXB0iDKquq8E5FSsyJufA4HLXODc/nFOxTs05hQFfY3GObReRcxmDwt04Ny3nnn322e5HkUvBj8odeB3n2F6Nn2NVMsS5sRZhUb6pD3UqJaoDdlWHdbkIczKUwJpYo51WFQRbhMHFqiQiURQrfVSsCPEoDDV1WE+ca4uw8TnnsCEOQ1TXNiFeilVxZCjWiHOuDhEGVde2CGucywK2sTmnYm2LsPngXMagcDfOTcs5Z8ePyh142yLMc25dLsLAoPwNJbAm1minVQXBFmFwsSqJSBTFSh8VK0I8CkNNHdYT59oibHzOOWyIwxDVtU2Il2JVHBmKNeKcq0OEQdW1LcIa57KAbWzOqVjbImw+OJcxKNyNc9NyjpqqNvyo3IG3LcI857YuwhCXdCcMqAAizhfbq4CRl19+uVMlzh9BOYK5PkyI1e+ERdhqY+UlIEqiXEcYXKxOaupAHxcr8SgMNXVAojYltXVwsU7FOQ4O7gAV1XvWWME1Bec4oKhbEpCaOtDHxeo457AhUayuzX3B1tbBxVrLuVkxUJ8azjmJsC0q55yMyTkwuLbGufnhnIp1as4pDPhqnPN9Guem5RxzZ8Uh/LixHOfYXo2POF9DnFMLcsT5c3VAXB/qQ51Kierg7BtY0aEUgx9gy59XoqxuSa5qc77Ynn6lnYURD/vxrBb/99sibPibBQO+ebvLPffcs0Obw4bWxsr9s6qNPsRV2rHVYHA6ax1Q+qhxyB3xqH5s77A5DOuJc5s3b+7eEFSO47ChNbHShxqV46D0GYtzxPLcc8/ZcUobGsVKHzUO/h3nHDbUYYjq+swzz0h7zTguVuKBb1NwjvrUcE5xBHXY6BNxrrShs3IO36vBORUr/sfkHNu7tik5x7GuzF3j3JJiL2PF91ScQ4lH5VthyxphcG2Nc41zWWflHJg2btyYnnrqKZlvh89xju3VOLlN2V2s4KnhnIsVVX3wPSbnNrBqRLmEh8P8eSXKapB+pZ3VqPPF9vRTbYBES3uELV/yVm30ySvjvjp/EbbaWCGEaqOP8jeEwcWqNGNzOXDjOGwo8SgMY9Yh0to6uFin4hw7LDtgaY+w1cQKrik4x8GD3/4o7Rmbq7cbx2FDHeccNjTC4HLHAVz1qa2Di7WWcy4/LlbqMw+cc3WIMKi6Ns41zmUF29icUxim5pxqw9dYnGPbReRcxqBwN85NyzlqShu34/Xt+FG5A6/jnMOWYy3t6BDnWAiVdocNdXWI8k19qFNpx4/D5sbZejsil9HU5bVIuFTnLlk6X2zvLvEBEC0lwsYlPneZb9Z4Imy1sXJwUEIfdQkUW4TBxeqkpg70cbESj8JQU4f1xDl2QHUPcYStJlZwTcE5bv/gAKWkpg70cbE6zjlsiMMQ1ZWDt5LaOrhYazk3KwbqU8M5xREkwhZxTsm8cM7FOibnwODaGufmh3Mq1qk5pzDgq3HOY2icm5Zzrj7YHT7HObZ3/pyvIc6xaCol4pyrA+L6UB91Cyx+HDbsqg7r8sUc7LCKFBG22lgd+eijCo8twuBiVZKxqRxEsdJHxYoQj8JQU4f1xDl2Ws56lBJhq4kVXFNwjn2IM0GlZGwqB1Gs9FGxIo5zDhviMER15Sya6lNbBxdrLedcflys+UxdKVEdsCuODMUacc7VIcKg6roanFOxImNyDgwud41z88M5FevUnFMY8DUW59h2ETmXMSjcjXPTco67etRCBz8qd+B1nGN7NX6OVckQ59TCP+Kcq0OUb+pDnUqJ6oBd1WFdLsK4z3OsH2seijXaaVVBsEUYXKxKIhJFsdJHxYoQj8JQU4ehuiqprYOLdSrOtUXY+Jxz2BCHIaprmxAvxao4MhRrxDlXhwiDqmtbhDXOZQHb2JxTsbZF2HxwLmNQuBvnpuXcrD/WDN62CPOcW5eLMG4N27Rp0/KnbTKUwFljBXe006qCYIswuFiVRCSKYqWPihUhHoWhpg5RXdlpldTUIYp1Ks61Rdj4nHPYEIdhKs6By8VayzmXHxfrIk9OVF131UWYEsZpnJuWcyrWqTmn2vA1FufYdhE5F+W7cW5azj355JPytkwwuNw5zrF9VG8lQ5xbuEUYnVACw2n+vBIFYA6gr5Evts+JL5WJKlraI3/4cv7oQ9/Sjk3ZI2w1sdKHq26qLcIWYXBtSjO2WWOlj4oVJR4Vb4QtilX5Qrnkrfowxqx1iGKdinMctDg4lPYIW02s2KfgHLcjcAAv7RmbGieKlT4qVnQRORdhq+Wcy4+LlfrUcE75irBhX1TOqT7omJwDg/KFNs4tjaN8Rdiwj805FSuxTMk51Q/brP7AQFtpZ9tF5Fzuo3A3zk3LORa8DoPKHds6zrF9VO/SjkbY4BsXWUr7kL8Ig8I9Juc20Cl3JLn580qU7XMSVZuys73qAxhWl0xW+b/fFmFz/nIf/pZtuV3ZonFm6UOysWfyle0OW4QBu4o10mgc58v1IQ7iYTJUxuTqgNbEyttnVB/nK7cpu8MGz+DbanMO35wJ4uBQ5m1oHBWr6zMV5/DNGSdiKvOGRuOovKGuD2M1zjXO4dtxLvty46i8oa4PYxEP7WVMrg5ohIG20o7OO+eieMq2KTnH8WBszpV98E0sjXNLbcrusGXOMadrnNMYVB98rwXnyjZXVzTCoHxhn5pzY3KhbBubc+12xJ5E2GpjZcWshD7q0iS2CIOLVUl0OTWKlT4qVoR4FIaaOkR1heSqT20dXKxTcY4zNOycpUTYamIF1xSc44Ay9i0TKlbEcc5hQxyGqTgHLhdrLedcflys1KeGc4ojQ7FGnHN1iDCouq4G51SsyJicA4PLXePc/HBOxTo15xQGfI3FObZdRM5lDAp349y0nOM3wljslIIflTvwOs6xvRo/x6pkiHNcoSol4pyrQ5Rv6kOdSonqgF3Vob2YoydDCayJNdppVUGwRRhcrEoiEkWx0kfFihCPwlBTh6iubRFWFyu4puBcW4QN18HFWss5lx8X6yJPTlRd2yKscS4L2MbmnIq1LcLmg3MZg8LdODct59qLOdoibDuhII4sLoHssCzEShlKYE2s0U6rCoItwuBiVRKRKIqVPipWhHgUhpo6RHVti7C6WME1BefaImy4Di7WWs65/LhYF3lyouraFmGNc1nANjbnVKxtETYfnMsYFO7GuWk5l3/guRT8qNyBty3CPOfW5SLMyVACa2KNdlpVEGwRBherkohEUaz0UbEixKMw1NQhqmtbhNXFCq4pONcWYcN1cLHWcs7lx8W6yJMTVde2CGucywK2sTmnYm2LsPngXMagcDfOTcs5tT2CXeUOvG0R5jm3LhdhYJhiQsz20U6rCoItwuBiVRKRKIqVPipWhHgUhpo6RHVti7C6WME1BefaImy4Di7WWs65/LhYF3lyouraFmGNc1nANjbnVKxtETYfnMsYFO7GuWk5x1xGjYUflTvwtkWY59yqvB0x++Jv2cb2qg+JJTAe+MtJzhphc/5QhQHfXE7lmbByHPy4cYZiLe34xs5bYcpxUIUNrY1VafalxhmKVfUhDt6ms9ZvqlPjZF+qj8NGDPBtCs5xEFJv08GPG2co1tKOb2qz2pzDNwc7buktx8m+1DhDsao++CeeWTgXYchtpR1tnKvn3JhvDVOx4rtxbjhW1YcYajjnMOS2EgO+dzXOEcuUnKO9HEthQyMMuU3Zp+QcczqXu74tq8OQ20oM+J5nzkUYaCsx4HstOFe2KWwofXgmbPPmzRZf35btjXN+nFX5nTDU+WJ7+rEi7Nv5TFCssss2h43tsr+yDXV9SODDDz+83TiRL9pmjTX3YWfqj5OVPsRV2rG5eDIG5c+pq0M0jsPGuOSOfn0MOdZZ/WFz+PJBqLTnHJR21PnKdS3zxmf4NgXnODhwhqY/TuSLtlljzX1Wm3P8zxcSZ9HcOKUNjcZx2PBPPPQrMWBT/miLYnX45p1zs3JhSs5xXOiPk9Xlh1gVBjRjKHE3zi2p85XrWuaHz41zjXNZp+Qcc7qyzWFjO/zNyoV55hyqMGQ7GErc8865Rx55pFtUlfhcXbE7zrH9LHVAc13L8flcwzl8zcoFOEed+uPwf8bW3z63uXHW7e2IJLeUCFttrOxMSuhDXKXkQirB7mJVEl1OjWKlj4oVIR6FoaYOUV052Kk+tXVwsU7FOQ4OnAkpJcJWEyu4puAc+8/Yt0yoWBHHOYcNcRim4hy4XKy1nHP5cbFSnxrOKY4MxRpxztUhwqDquhqcU7EiY3IODC53jXPzwzkV69ScUxjwNRbn2HYROZcxKNyNc9NyLl8BKgU/KnfgdZxjezV+jlXJEOcW7nbE5b8hSCdD4JVEIGt3WkcWl0AnQwmsiTXaaVVBsEUYXKxKIhJFsdJHxYoQj8JQU4eorm0RVhcruKbgXFuEDdfBxVrLOZcfF+siT05UXdsirHEuC9jG5pyKtS3C5oNzGYPC3Tg3LeecHT8qd+BtizDPuXW5COMyovudgyiBNbFGO60qCLYIg4tVSUSiKFb6qFgR4lEYauoQ1bUtwupiBdcUnGuLsOE6uFhrOefy42Jd5MmJqmtbhDXOZQHb2JxTsbZF2HxwLmNQuBvnpuXcc889J+uKH5U78LZFmOfculyEcX/qrvRjzdgU8SISRbHSR8WKEI/DMGsdorq2RVhdrOCagnNtETZcBxdrLedcflysizw5UXVti7DGuSxgG5tzKta2CJsPzmUMCnfj3LScaz/WPPIijAHQnMD8eSXK9iSktOeASzuaE1jaEe41RZF+W4QNX8ofGEgSf8s2xnj66ad3sIPNjVMbayZfqfQhrtIexeowcABinDJvUQ5cHVA3Dso4qp+rA4o/hSGKlYWy6uOwDdVBYUOm4BzCTssV2L4dBZsbpyZWcE3FOR5ORfp2lwPU1QF146CLyDmHDanlnMPgOJcfHu7bUfy4cbArjgzFGnFO5XReOKdiRcfkXJTvxjlfh6FYd0XOKQyurqiL1eWbbRvnfB2GYm2c+33atGlTh6+0u3yDd0rO5YV/v201OEed+nbU5QDFruqwgQaUwXCaP69E2V71iXy5PoAnsHwGst9W4y/34W/ZlotY2ofGUb5cH/xzYOAtMmqsWf2hqg++IV5+dWq/DR1rHJSxiIczDWVM9JnVX4SBMy2qT40v7KqNfMG31eYcvjkIcTWszNvQOKUv1PXB95ScI6bGOT++atsZzkUYyrb1xLnsa4xxUMYiHuIqY6LPrP4iDI1zs8eKb44HU3COWBrn4nhUW+Ycc7rGuZVjwPdacK5so4/zp3xlu+qDfWrOjcmFsm1szq3L2xGxKdwRttpYIYUS+hBXKdgiDCpWfEG8UjI2lYMoVvqoWJH8RV5KTR2iuuYzTqXU1sHFOhXn2GHZCUuJsNXECq4pOMfBZOxbJlSsiOOcw4Y4DFNxDlwu1lrOufy4WBf5Nh1V19XgnIoVGZNzYHC5a5ybH86pWKfmnMKAr7E4x7aLyLmMQeFunJuWc+Ra+cOPyh14HefYXo2fY1UyxLmFux1x+W8I0skQeCURyNqd1pElSuDjjz++/GmbDCWwJtZop1UFwRZhULHiqy3C5ptzbRE2PuccNsRhmIpz4HKx1nLO5cfFusiTE1XXtghrnMsCtrE5p2Jti7D54FzGoHA3zk3Luccee6zjUCn4UbkDr+Mc26vxc6xKhjjXFmFbJEpgBLJ2p3VkcQmEEA8++ODyp20ylMCaWKOdVhUEW4RBxYqvtgibb861Rdj4nHPYEIdhKs6By8VayzmXHxfrIk9OVF3bIqxxLgvYxuacirUtwuaDcxmDwt04Ny3nmDtzG2Mp+FG5A6/jHNur8XOsSoY41xZhWyRKYASydqd1ZHEJxK5IPpTAmlijnVYVBFuEQcWKr7YIm2/OtUXY+Jxz2BCHYSrOgcvFWss5lx8X6yJPTlRd2yKscS4L2MbmnIq1LcLmg3MZg8LdODct5+CPy7fKHXgd59hejZ9jVTLEuYVdhEVBOyEZrrjOF9u74rqdNsJG0CqByKzxRNhcApEo1ll3WmwOA3YVK9jUIgyJsDmy0MfF6nbamjpEdWWnVbKonHOLsAhbTazgmoJz7osCieowJuccNsRhmIpz4HI5reXcrBjc5AQ/Ub0VR5AIW8Q5JfPCORfrmJwDg2trnJsfzqlYp+acwgC2xjmPoXFuWs65+mB3+Bzn2N75c76GOKcWYRHnyNusGKiPWoThJ6q3qsMGAkIBwltS8ueVKMQHZGlnMOeL7emn2ggMLe0RNhKBqjb6ZDKVdhYtpT3CVhsrb1FRbfQhrtKOLcKgYsUXJC/tGZvKQRQrfVSsKPEoDDV1iOqa3/ZY2mvr4GKdinMc7DhAlPYIW02s4JqCcxzoiKm0Z2wqB1Gs9FGxoo5zDhvqMEzFOXC5WGs55/LjYq3lnOLIUKwR51wdIgyqrqvBORUrOibnwOBy1zg3P5xTsU7NOYUBX2Nxjm0XkXMZg8LdODct5+APGEs7flTuwOs4x/Zq/BxraUeHOMcJ79Iecc7VIco39XE5cNiwqzpswBlKMbjPM39eibI9/Uo7CwLnKxpn8+bN3a9xl/aoD8VFVRt9wFLan3rqqXT33XfvYB8apyZWfo9MtdFH+YswYFex8vrPZ555Zgd7xqZywDhR3hQ2lHhUP2yRP4fBxcpvUag+DttQHVzbVJx79tln0/PPP7+DPRoH+6yxgmu9cM5hy20OA22lHR2Tc+BybfCthnMuP/RRuKnPPHBu1jpgV3VtnNs5znGsK+0RNvy5/NBH4V5kzikMU3NOtdFnLM6x7SJyLmNQuBvnpuXcPffck5544onuQkbf7mIF767IOepU2qNxsKtxtrsdkVXaLMIK0V3Gc76iy3WsLNFSImx5NanE9WG1rN6OOHQpsSZWd5sgfdSlSWwRBhUrvohJSYTNjUMfF2u+glhKTR2iukJOJbV1cLFOxTl+44gzOKVE2GpiBdcUnOOMD2eclNTUgT4uVsc5hw1xGKbiHLhcrLWcmxUD9anhnOIIEmGLOKdkXjjnYh2Tc2BwbY1z88M5FevUnFMY8NU45zE0zk3LOebOikP4cfgc59hejY84X0Oc4+pVKRHnXB0Q14f6UKdSojpgV3VYly/mwKaSHmGrjdWRjz4KA7YIg4oVX+rgkLGpHESx0kfFihCPwlBTh6iunH1QfWrr4GKdinPstFyOLiXCVhMruKbgHF96auGfsakcRLHSR8WKOM45bIjDMBXnwOVireWcy4+LlfrUcE5xZCjWiHOuDhEGVdfV4JyKFRmTc2BwuWucmx/OqVin5pzCgK+xOMe2i8i5jEHhbpyblnPkWvnDj8odeB3n2F6Nn2NVMsQ5tfCPOOfqEOWb+qiFf1QH7Cpv63IR5mQogTWxRjutKgi2CIOKFV9tETbfnGuLsPE557AhDsNUnAOXi7WWcy4/LtZFnpyourZFWONcFrCNzTkVa1uEzQfnMgaFu3FuWs65cfCjcgfetgjznFuXizDG4BmdUoYSWBNrtNOqgmCLMKhY8dUWYfPNubYIG59zDhviMEzFOXC5WGs55/LjYl3kyYmqa1uENc5lAdvYnFOxtkXYfHAuY1C4G+em5RzPkanbJfGjcgfetgjznFuXizAejrv//vuXP22ToQTWxBrttKog2CIMKlZ8tUXYfHOuLcLG55zDhjgMU3EOXC7WWs65/LhYF3lyouraFmGNc1nANjbnVKxtETYfnMsYFO7GuWk598ADD3QvpSgFPyp34G2LMM+5DQyC4hAi588rUbann2tTdjcOiWUhkb/8+m0RtqjN4WMcroSV9hpfrg8J5wFB3ojC/2X7rP5Q1QffvPSBN7yUeUPHGgdlLOKB5GVM9JnVX4SBnVz1cb5ym7K7ccgXfJuVc9ijthIfvln4sxAr8zY0jorV9cH3lJwjpsY5P75q2xnORRjKtvXEuexrjHFQxiIe4ipjos+s/iIMjXN+HNcH3xwPpuAcsTTOLbU5u2rLnGOuNQbncp+yrXFu+7bSjro+jJU5V7bRx/lj7kxtV5pv7FNzbqXYUIch9ynbxubcBlZmKI7ZIH9eieIAEKrN+cqgSzurTb5kUf7vt7G6jPxFGOhb2rOU9kz60o5ip720O2zEAK58BqBsp4/zF2EoY8U3xYV8bhyVgyhWhw3/xEO/cqyaOjCGyh0KyVUfVwfU+QKXipUYpuAcvjkwcLArx4nq4GJ12PANrohzKqfYIgxlrPiGc8Q0yzhRrPRRseLfcU5hyxphULlDG+cWk3MZmxonipU+Klb8Ew8YyrEUtqwRBpU7dN45F2EoceN7Ks7RZ2zOlRjwTSyNc2vPOZdvfDfOTcs5fKkcYFe5A6/jnMOW25Q94hwLo1k5p+qAunzje0zOrcvbEXNyS4mw1cbK4kgJfYirFGwRBhUrviBFKRmby4Ebhz4qVoR4FIaaOkR1zQe7Umrr4GKdinMcHJhElhJhq4kVXFNwjv1n7FsmVKyI45zDhjgMU3EOXC7WWs65/LhYF/k2HVXX1eCcihUZk3NgcLlrnJsfzqlYp+acwoCvsTjHtovIuYxB4W6cm5ZzLHJUG35U7sDrOMf2avwcq5Ihzi3c7YjLf0OQTobAK4lA1u60jiwugSxYHn300eVP22QogTWxRjutKgi2CIOKFV9tETbfnGuLsPE557AhDsNUnAOXi7WWcy4/LtZFnpyourZFWONcFrCNzTkVa1uEzQfnMgaFu3FuWs4xd+bKVin4UbkDb1uEec6ty0UYhHjooYeWP22ToQTWxBrttKog2CIMKlZ8tUXYfHOuLcLG55zDhjgMU3EOXC7WWs65/LhYF3lyouraFmGNc1nANjbnVKxtETYfnMsYFO7GuWk5x9yZZ8lKwY/KHXgd59hejZ9jVTLEubYI2yJRAiOQtTutI4tLINtPMSFm+2inVQXBFmFQseKrLcLmm3NtETY+5xw2xGGYinPgcrHWcs7lx8W6yJMTVde2CGucywK2sTmnYm2LsPngXMagcDfOTcs55jJqLPyo3IG3LcI85zYwAJoTmD+vRNmehJR2BgJgaUf7CezbERLI/aZIvy3Chi9UtdEHLKU9S2kDmxsnilX1yf4gH1K204e4SvtQrPjs+0PIdV6E9bfPdVA5GIpVYUPYacv6IVEdHIYoVvKm+rC9q8O8cg5hp+VBTqRvH6qDi1X1QcC1q3GOeMr6IVEd5plz8K2GcwoDSp8SN1LLOVUH/Ks+CNjy5KRsr6lDjrXvD2Gi1ThXz7k8Ie63rQbn8oS4b6+pA/5VHwRsuyLnFAawof3ts84aK9s2zjXOoUgN58rtsy4q5xyG3FbiRsbk3Ib8TwTS6RB4ZY8SOOuEGMn+yjaUPqrwJI97Wvu27MuNwxgqVvxH2CAfUrbTRxXE+UMzhr4/BLLOutMOkVJhQ2oWYfibFcOsO21uU3a2LzGjyBScQ2adECOMoWLFf9RnV+Mc8ZT1Q7Ch/e2z4m9WDFNxDr7VcC7CUOJGajk3C0dyn1knJ84fij8w9v0hNZOTxrkl3LNOThD8RRhK3MiskxMEzI1zdRNi/M2CgW0b5xrnUKSGc9yKOEtdwTvPnMt1KNtQ+pS4kTE5136suScRttpY805bCn2IqxRsEQYVK77yTtuXjE3lIIqVPipWhHgUhpo6RHVlp1V9auvgYp2Kc+12xPE557AhDsNUnAOXi7WWcy4/Ltb+F0VfojpgVxwZijXinKtDhEHVdTU4p2JFxuQcGFzuGufmh3Mq1qk5pzDgayzOse0ici5jULgb56blXPux5iXOUadSojpgV3VYl4swVsubNm1a/rRNhhJYE2u006qCYIswqFjx1RZh8825tggbn3MOG+IwTMU5cLlYaznn8uNiXeTJiaprW4Q1zmUB29icU7G2Rdh8cC5jULgb56bl3FNPPSXnm/hRuQNvW4R5zq3LRRii7EMJrIk12mlVQbBFGFSs+GqLsPnmXFuEjc85hw1xGKbiHLhcrLWcc/lxsS7y5ETVtS3CGueygG1szqlY2yJsPjiXMSjcjXOLyzm2V+PnWJUMca4twrZIlMAIZO1OOytZEGUfSmBNrNFOqwqCLcKgYsVXW4TNN+faImx8zjlsiMMwFefA5WKt5ZzLj4t1kScnqq5tEdY4lwVsY3NOxdoWYfPBuYxB4W6cm5Zz4HMYVO7Yti3CPOc2YEQJDKf580oUgNlxXwHifLE9/Uo7gXKbIMr//bYhfwoDSh/69m0ICXzyySd3GIccKGwodtpLu8OGb3Bl8pXt9FH+hjCUseKbAxA7kxunzAEajeOw4Z946FeONWsdUMZQuUN5bk/1mbUOKLhUrMQwBefwzSKZlySU4wzVe5ZY8Q2uiHMqp0MYyljxDeeIaaxx6KNixb/jnMKWNcKgcofOO+cUBlTFiu/1wrmMbdZx6KNixT/xgKEcS2HLGmFQuUMb5+o4R5+xOVdiwDexNM6tPedynxI3vhvnpuMc2z3xxBNbF6P9NsZQuQOv45zDlmMt7WjEOU52z8o5VQc09ylx43tMzm2gAWUwvuTy55Uo29PPtSm7GwdwBEZxcyBZI2y0zYIB388//3zauHHj1mJmjcbBPss4+KZIvEmmHAd1/mbFgG9W/y+88MIOeUOdr5pYGYt4iEvlTvVBazAwjvLnsOU2ZXfjkC/4NgXnOAhxgFB5c+Ngn2UcfE/FOQ50xLSWnHN9cpuyRxga52aPFd9DnCtt6KwY8N04t61N2d04jXNLOisGfDfObWtTdjdO5hxzusa5lWPA91pwrmyL+tx3333p2WefXXFdsU/NubJGrg86K4bMOeo0xjjr8nZEEkGxSomw1caqxkHoQ1ylYIswqFjxBfFKydhUDqJY6aNiRfIXeSk1dYjqms84lVJbBxfrVJzjS4KdsJQIW02s4JqCc+xDY98yoWJFHOccNsRhmIpz4HKx1nLO5cfFusi36ai6rgbnVKzImJwDg8td49z8cE7FOjXnFAZ8jcU5tl1EzmUMCnfj3LSc44Q/C7dS8KNyB17HObZX4+dYlQxxrj0TtkWiBEYga3daRxaXQCdDCayJNdppVUGwRRhUrPhqi7D55lxbhI3POYcNcRim4hy4XKy1nHP5cbEu8uRE1bUtwhrnsoBtbM6pWNsibD44lzEo3I1z03JObY9gV7kDb1uEec6ty0UY27uVfJTAmlijnVYVBFuEQcWKr7YIm2/OtUXY+Jxz2BCHYSrOgcvFWss5lx8X6yJPTlRd2yKscS4L2MbmnIq1LcLmg3MZg8LdODct58CmxsKPyh142yLMc25dLsIgxIMPPrj8aZsMJbAm1minVQXBFmFQseKrLcLmm3NtETY+5xw2xGGYinPgcrHWcs7lx8W6yJMTVde2CGucywK2sTmnYm2LsPngXMagcDfOTcu5hx56qHvGqxT8qNyB13GO7dX4OVYlQ5xb2EUYA7nOTkiGK67zxfauuCRPJTDCRtAqgYjrQwIfe+yx5U/bJMJWG6taHCH0UcXFFmFQseJL7bRIhM2NQx8XK/EoDDV1iOrqDna1dXCxTsU5HuJUO22ErSZWcE3BOQ5OLCyV1NSBPi5WxzmHDXEYpuIcuFystZybFQP1qeGc4ggSYYs4p2ReOOdiHZNzYHBtjXPzwzkV69ScUxjw1TjnMTTOTcs55s4sqkrBj8PnOMf2anzE+RrinLrLLeKcqwPi+lAf6lRKVAfsqg5b347ImQRWkfnzSjQHXNrZIZwvtqefaqNQaGmPsOFPYUDpA5bSzvZMipXdYauNlTMGqo0+xFXasc2KAV88LFnaMzaXAzcOfdQ4KPGofmzv+jgMUV1/8IMfyD61dXCxTsW5/Aan0h5hq4mVPlNwLr/BqbRnbCoHUaz0cTl1nHPYUIehcW6Yc4ojUaz0iTjn6hBhULGuBudUrOiYnGN7l7vGuca5rMSjMDhsaIRB5Y5tF5FzGYPC3Tg3LeeoqRqL7VXuwOs4x/ZqnBxraUejWMHGwrK0R5xzsUb5pj41awhVhw0ARgHPRD5/XokChBWxanO+2J5+pZ0rObw6fvPmzd3//bYIG/5mxYB/EljaHTa0NtZnnnlGttEnE6av2GbFgC9eGVrmLbeVNjSKlT5qHPwTj+rH9qoP6jBEdX366adlfmrroDBPxTl8P/fcc90BrxzHYUNrYqUPNSrHQekzFueIZa0557ChDsMQ55S9ZhwXK/HAtyk4R31qOKc4gjps9Ik4V9rQWTmH79XgnIoV/2Nyju1d25Sc41hX5q5xbkmxl7HieyrOocSj8q2wZY0wuLbGuca5rDWcw66wYXf4HOfY3o0za6xgquFcFKvqg+8xObf1dkTEXUZzwmVBd5nT+WJ7d5mTlSKqxPnj8p+7lOj6sBolgaVE2GpjJclKolxHGFSs+IIMSiJsbhz6uFiJR2GoqQPi2iCrkto6uFin4lw+a1JKhK0mVnBNwTku03P2UUlNHejjYnWcc9iQKFbXNibnwOVireXcrBjy2eFSojo4OxJhW1TOORmTc2BwbY1z88M5FevUnFMY8NU45/s0zk3LORY6qq74cWM5zrG9Gh9xvoY4x9UoJc6fqwPi+lAfdatiVAdnX5cv5mBFev/99y9/2iYRttpYHfnoo0iOLcKgYsWXOjhkbCoHUaz0UbEixKMw1NQhqitnFFSf2jq4WKfiHDsti/9SImw1sYJrCs5xiV4t/DM2lYMoVvqoWBHHOYcNcRim4hy4XKy1nHP5cbFSnxrOKY4MxRpxztUhwqDquhqcU7EiY3IODC53jXPzwzkV69ScUxjwNRbn2HYROZcxKNyNc9Ny7oEHHuhuLywFPyp34HWcY3s1fo5VyRDn1AIx4pyrQ5Rv6kOdSonqgF3VYV0uwhiD28NKGUpgTazRTqsKgi3CoGLFV1uEzTfn2iJsfM45bIjDMBXnwOVireWcy4+LdZEnJ6qubRHWOJcFbGNzTsXaFmHzwbmMQeFunJuWc9zCqK7U4UflDrxtEeY5ty4XYU6GElgTa7TTqoJgizCoWPHVFmHzzbm2CBufcw4b4jBMxTlwuVhrOefy42Jd5MmJqmtbhDXOZQHb2JxTsbZF2HxwLmNQuBvnpuWcs+NH5Q68bRHmObeBAdAMMn9eiWbwpT3ylUGqNhLIszOlnT7OHwVBVRt9wFLasSncEbaaWMEFyVWbwzaEQcUKGfK9vX3N2GYdhz4qVpR4VL/aOrjcsdOqPjV1iGKFb1NwjkUY9yqX9ghbTaz0iTin/A1hULHypceBqLRnbCoH0TgOG+o457ChDkOUuzE5By4Xay3nXH5crNSnhnOz5o0+UxznVoNzqg86JueiujbOzQ/nVKxTc05xC19jcY5tp+Qcc7rS7rChjnMZg8LdODct58i1wo1N5Y6xHefYXvnKsZZ2NOJcXoSVdocNdXXIGBRu6kOdSjt+HDbsytfWV9Qzkcdp/rwSZXvXJ7KrNhLLQiKTot8WYXNt2c7fvh3fvPHk4Ycf7pLSb4vGUb5Q1wffkJUXgJTjoLP6Q1UffHOwI6Yyb+hY46CMRTyQvIyJPrP6izC4V5o6X7nN2VUb+YJvs3LO+ct9Snz45jlEFmJl3obGUbG6PvieknPE1Djnx1dtjXNLOisGfDvOZV9jjIMyFvEQVxkTfWb1F2GYd85F8ZRtU3KO48EUnCOWxrmlNmdXbZlzzOka51aOAd9rwbmyjT7KH5iYO/MGwpXWFfvUnBuTC2Xb2JzbkFdj0UrRKdsDqLTXrGIRvmRRpN8WYXP+UAIuV54Iq/IHH3xwOzuKLzcOY9TEyliqjT5q9R3Fil1hIE7Ih/TtYFM5QKO8uXFQ4lH9sEX+FIYoVkiu+jhsQ3VQ2JAazkWxOs65s3Vgi8aZNVb6TME5Dij5Fti+HWyNcx4bUss5lx/HOepTwznFkaFYI87NWgfsKtbV4JyKFR2Tc1G+G+ca57ISj8KAr8ifw6BiZdtF5BwYGufWnnMIc2cWb0i/zeUbvFNyLt8C229bDc5Rp74ddTlAGUfVYV0+E8b4rGJLibDVxpoXR6XQh7hKwRZhULHiK++0fcnYVA6iWOmjYkXy2dRSauoQ1TUf7EqprYOLdSrOwTd22lIibDWxgmsKznFwYmFZSsamchDFSh8VK+I457AhDsNUnAOXi7WWcy4/LtZ8y0QpUR2wK44MxRpxztUhwqDquhqcU7EiY3IODC53jXPzwzkV69ScUxjwNRbn2HYROZcxKNyNc9NyDv6AsRT8qNyB13GO7dX4OVYlQ5zjimUpEedcHaJ8Ux+XA4cNu6pDezFHT4YSWBNrtNOqgmCLMKhY8dUWYfPNubYIG59zDhviMEzFOXC5WGs55/LjYl3kyYmq69STE4XBYUMiDC53jXPzwzkV67xPiCMMKndsu4icyxgU7sa5aTmntkewq9yBty3CPOfW5SIMu1q0DCWwJtZop1UFwRZhULG6eCISRbHSR8WKEI/CUFOHqK5tEVYXK7im4FxbhA3XwcVayzmXHxfrIk9OVF3bIqxxLgvYxuacirUtwuaDcxmDwt04Ny3nuLXQ5VvlDrxtEeY5ty4XYRCC+1pLGUpgTazRTqsKgi3CoGLFV1uEzTfn2iJsfM45bIjDMBXnwOVireWcy4+LdZEnJ6qubRHWOJcFbGNzTsXaFmHzwbmMQeFunJuWc/1nwvqCH5U78DrOsb0aP8eqZIhzC7cIoxNKYDjNn1eibJ8D6Gvki+0JDDB9O5+ZqKJlW+QPX6hqow99+zZ8Q4hHH310u3H6/yuhPReDv3lbh43twZUfSCzbFTZ0KNZcyGzjfx5KJaZynOxLjYMfNw52VVf8Ew/tJYZZ64BGsTKO6uOwRb52hnPY1U6oJO+0JW58sEjm4NAfh/9r6uBixR/2qTjHAbwcJ/tS49TEiv9F4Bx4VipTHeeoT+NcHKvqg/8xORdh2BnO9RVsWZWQOxTpx+T8oY1zv+timZJz4CgxzFoH1GFg27E4h7J9iRnl8yIc59hupcL2s3IuwkCcGUO28f88c4425s68jbvE5zAw9pSc4+UcZVvkD7uKNbeVuPE95nFuA8YcVN5opcrZB/rN0pbHIbC+HTCsLpms8n+/zWHLiXW4nR1/KP37AmZevQnJ7r///nTnnXemb33rW+mWW25JDz30UHr22Wc7fCQ7C//TrxwD39jzq+PLdrCp/KDKH5r79P3xP2SA5GXeUOcLP0PjlHbGIh76lRjo4/LN9sofNteHcVQf5ytqy+P0MaOOc2zXF2yc+XnqqafSvffem26++eb0zW9+M910003pgQceSM8991y3CMZHX/rj0M7Bocwb2FQdck5drCpv9MHXVJzLMfe3R50vFyvqsDHWvHKuXJzDo2eeeabjBDz59re/na6//vp01113dccOXtNLP3xl6cfksA3Fquw7w7lZxqEPvhzn1DhZXRvjgLHEzVnO9c653MZf8PSFCcjmzZu749R9992XvvOd73R6zz33dK+VfuKJJ3a4MtH319ehWJU9c44xyrwRy1jj0AdfjXNLGJQ/bK5PLeeicfqYUfLF8ZDv1zJ3DttQrMpewzn69IWTE+w37CPM+/heZ953++23pyeffLJr4zia40DKmNQ4qMOAEg/tJe555xz5Um2M4eyOcw4bCi7VlsfpY0bJV+Zc2Zb79G3oUKzKzjhjHudW5XZExPnKxFJCUGgpETaCQ5XQZ+gqBguuq666Kp188snpve99b9p9993T3nvvnd71rnel97///emDH/xgOvjgg9Nee+2V9txzz3T44Yen448/Pn3uc59L1113XTcZdUKsrJiVgK2/mMuCzeUHu4oVX5CvlHxlRuUgqgN9XF2JR2GoqUNUV0iu+kzFOSYyX/nKV9KHPvShdOSRR6YDDjggveMd70j7779/xwF4wV84kW0f/vCH0yc/+cl07bXXdovivjBBYucsJcLmYs11VUINpuAcBxMOdqVMyTmHDXEYxuQcX8zf/e530znnnJNOOOGEdOCBB3bHiX322Se95z3v6XjDMQTecEyBJ2z30Y9+NH3+85/vTuz0ZaiuLj8uVupTwznFkSFsEedcHSIMU3FOxYqMyTkwuNzVHOf628MhuPSRj3yk4x7fX/vuu2867LDDOv3ABz6QDjnkkK4NHsLNY445pvv++v73v7/sRct645yKdWrOKQz4GotzbDvmdyu4XKy187kIg8Jdw7mNGzemyy67LJ100knd/vGWt7yl20cOPfTQ7ph91FFHdcfrfOx+3/vel0488cT0qU99qjsJW+Jw2HZFzrlx8KPqCl7HObZX4yPKFzLEOTUnjzjn6oDQR+GmPtSplKgO2FUd1uUzYZzZYAdkh3vTm97U7YgXXnhhuvXWWzuyOAEHZ7q5CvLxj3+8m3iz47KA4+x3KcQafVGogmCLiqhixdd6X4TlWJUMcS4fwPmfs19HH310evWrX90djM8777zuoMuE2wljs+i68cYb00UXXdQt2v/qr/6qW9RzFjrHUbPTzhorNZiCc6vxRaFiRRznHDbEYajlXD9v3BMPL17/+td3x5CPfexj3YKdhXskfDkw8eXYw+SYL/iDDjqoO5mTc6nqgxCny4+LtWZyUsaaJddVyRDnXB0iDFNxzuV7TM6BweWuZkLMdxCce+c739kt9M8+++z0xS9+sTvWcLLHCVzgCu0XvvCFbtEGB+EfJxEee+yx5a22yXrjnIp13ifEEQaVO7Yd87sVXC7W2vlchEHhXinnuGPly1/+cjdne/vb397tQ/lkRHQyHR/sH1//+tfTGWec0X2/c+z+xCc+kTZt2rS8lZZdkXPErPDhR9UVvI5zbK/Gz7EqGeLcWIuwKN/EXzOfU3VYV4swFipcrfgv/+W/dF9AXHaOvrRWIk8//XS64IILuislRxxxRHf7RxZijb4oVEGwRUVUseKrLcLqOIfAOWr453/+590B9mtf+1o3/s7I448/3k3U8ceZac5Wz1qHmlipwRScW0+LsCwsljhj+trXvrZbbPNlpPK5UuHL4oYbbugW/ZxtZWLMbRtKiNPlx8W60slJX7CrmHJdlQxxztUhwjAV51z9xuQcGFzuZjnOcUsrk0CucHH2nu8vNRFYqeCfEwpc1eekEVfI+icT1xvnVKzzPiGOMKjcse2Y363gcrHWzuciDAq341wWvos5IQrHTz/99O5kRX4+skbAz37DIm6//fZLxx57bHfLuZJdkXMcI7i1vhT8qLqC13GO7aN6KxniXFuEbZEogRHI2p3WkaXfh+cz3vrWt3aXlbkUPbawUzNJ4wwJkyruJUbUzoSATRUEW1REFSu+2iKsjnNc1WRizaKcq2CrIddcc03HC25F40x0XyJsNbFSg2hyMhbnVuOLQsWKOM45bIjDUMM5Jr/UjqvmXHFQx6idFW4rg4Ocob3yyiuXrduEOF1+XKxucjLEOcWRXFclQ5xzdYgwTMU5FSsyJufA4HK3kuMcJwrzCR2uWvHc8tjC4p8rZG984xvTaaedtvXkpMuPi3WROZfz3Ze2CBuug4u1dj4XYVC4HefwxclPOM3dSizGxhZyeemll6a3ve1t3QkSPvdlV+Qcd5KpuuJH1RW8jnNsH9VbyRDn2iJsi0QJjEDW7rSOLAg7HrdtsPharUl2XygMOyUTe7443W1sxKMKgi0qoooVX20RNhvniIPbSbkC0b96uZrCIp1b2Lgam7FGdaiJlRpEk5OxOLcaXxQqVsRxzmFDHIZZOcczfjxHw20r6qA7tvBCBZ4n4+pp/2c0iNPlx8XqJidDnFMcyXVVMsQ5V4cIw1ScU7EiY3IODC537jiXx7jjjjvSbrvt1p3JdzkeU7jVkRMOfGdyi60TF+sic07tX1NzTmHA11icY9sxv1vB5WKtnc9FGBRuxTkeLeGkO89089z/ags55QQJ8z7eMZBlV+Sc2h7BruoKXsc5tlf+cqxKhji3cIswGlAcQuT8eSXK9vQr7QB3vthe9SGxLCTQnOSss/rL5OFWH77APv3pT3efpxS+zPJtI/lA1MfocofNxar6ECv+OZNZ5g2lD/kr7SpvWR02/POWQK76lWMN+XMYXKyMo/o4bCvlCMIbkOAFtyBmrkwlnEXiigdnzuAI4nDPGiuxYCd3s3JhFgz4hnP5tbP9NjQaR8WDqnFQ/E/JOdoRDrI8E8gLenir3NTCMesNb3hD95IXBHwq1syFMlZyRX3KtyOiUQ5cHfI4pR3f2NeScy4HKH5UPKgaB8U/8dBejjXkb9ZYGafsk7/0P/vZz3bHKd7UNrXwnMwee+yRzj///K0Th4zP5ZtcTcU5jgdTcI5Y1gPnUIctx1raUYeNGMaaz6G5T4kb35lzeb/hJPib3/zm7hmuqYVbHTmxe+qpp27F42JV+SaeteBc2Rb547uR/a+0s73yBd6pOMeickrOlePgx43jYt2p3wnL4Ep75Ivt6VfaOdBzCwTK//22yB+++v7yFwa3DfHshrtXdyrhjTp/8zd/05EQyTiJh7jy56zYVH7QMtas7BCcaXB5U+O4OqD0UXVFIZ+qhcOGRrEqX2heVJZ2xqjhHIrwvBcv3eCq1FoKk2xub+O1uIjCXRMrdmrk2lwdXO1cXeEcB7xdjXMIf7kSwAt71lK4KsaV0yuuuKL7QleYURUrdaE+nBXs29GoDthnzRv2ReWc6oOOyTkwKF9oeZyjzvjnDD63MK/GrYcrFSZbPOvMM2P5zHzGqWJddM6p4w+xTMk51Q/brP4c59h2zO9Wh4181c7nIgwl7sw5+tHGc1q8IXQt9xs4w37DnTZ5cdjHnNXFOu+cY87CfLbEV8M5th+bc+S8bBvyV8O5sY5zu+TtiLy5kEvRa3EGW8nll1/endHsXxYnHuIqBZvLD/YyVgRfrP5LyXXgbylRHeij6opAPoVB1SGLwxDVdcxbJnKer7766u52gf5tXmspnCjgfvW777572bK91MRKDaiREvqMxTkOTnli1peMTdVubM45bIjDEHEOO284ZF/lbanzIDyPll/a4cTFSn04+1ZKVAfsiiM7wzlXhwjDVJxTsSJjcg4MLnfqOMcVWG6fd+NMKcR73HHHdScSmbBlcbEuMufU8WdqzikM+BqLc2w75ncruFystfO5CIPCzWSYfrwplLd9MglfayGGM888s3sTY3+/6cuico7nl/MJy77gR9UVvO12xKVxVB12uUUY97FzJkR9Eayl8GpUHrqHjAjxqIJgi4qodgx8tUWY5xzCyzG4AjYvC/Ms3PbDJJvJdik1sVKDaHIyFud2xUUYNWCy+aUvfWnZMh/CpIKTStxmo8TFusgT4qk4p2JFxuQcGFzuyuMcbyjkDPq8Cc+7vPvd796aLxfrInNOHX/aImy4Di7WqRZhCC/egJ/zJvx8BLhUjly+551zfB+psfCj6gretghbGkfVYZdahPHKXm5BzG8mnDfhIX/ecEUsxKQKgi0qotox8NcWYZ5z3NbFFTD1W27zIEz6ef6CmPtSEys1iCYnY3FuV1uEYef2L74051G4QgdHrr/++mXLNnGxLvKEeCrOqViRMTkHBpe7/nHurLPO6n783flfSyFPvBwk7x/kQcW6yJxTx5+2CBuug4t1qkXYxRdf3H2/z8MVMCW8LZtbektZVM6p7RHsqq7gbYuwpXFUHXaJRRjCfar8/hdXFuZZePPU8ccf3/2vikusURHVjkFu2iJMc47fceO5mqnegFgr3ELLLUj9mGeNFaEG0eREHQRqOLerLcK4AsHv/M2zcDKBl3WUJxNcrIs8IZ6KcypWZEzOgcHlLp944SUCnEBUV8TnReASL5rKb01UsS4y59Txpy3ChuvgYp1iEcaLi/j9r3neb3iWld8TY7HYl0XlHL8RphY6+FF1BW9bhC2No+qwdRGGuM5OSIYrrvPF9q64JE8lEHH+SBCBc0vXZz7zmWXr/Ap4OdvZf41pKS4/2BVZyI3aaZGaOtDH1ZXFnsKATdkRhwFxbe4LdlbOsbCZ16sbfSF3vImvz+FZY0XwoxbkSFSHWTnHwYmHYJW4ccbmnMOGRLGWbTfeeGP3khSHbZ7kG9/4Rnes68ftYqU+6osiqkOUAzfOInPOyZicA4Nr4/uOZ0a4yjkvz6pG8thjj6XXvOY19q6CReacOv5MzTmFAV9jcm6s71YEXC7Wmvkc/laKgStfPGLA6+jnXZifcas7b2bOsqicY9/PL5rrC37cWI5zbL/SemcZ4hyLXiXOn6sD4vpQH+pUSlQHZ99AclBWqiQ2f16J8nAeXyCqzflie/qVdsjA67tR/u+3Rdg44PODfPN4H70Tfiz6da97XfeiDg4k/XiIVeUHdfkmN7zuvMxbbittqKsDSh81Dv65sqT6sb3qgzoMUV0Zh/bS7nKA9n3BizxhVWcy5lGY4PCijkceeaQ7o7PSWPtKH3LnuKByWsM5zoZx9nEtOeewoQ5Dn3McSImBZ0jvvPPO5SrMv/ATBxdddFH3JUAcKlbyRmzUqaxRVAfsiiOoyyl9Is6VNnRWzuF7NTinYsX/mJxje9fGfn7UUUd1vym5KPKpT32q+/kVsPdrwf+Nc3WcQ4lHcUthyxphcG2Mo+y146hYyVfNfA5/Qxjwx/f7Kaeckj760Y8us3L+hRPvnIAnDr57FpFzYOLFHGrfY3uHz3GO7dU4uU3ZXazggW+8GbPEFnHOxYqqPvge8zi33e+EsYrMn1eirDi59aC0MzlwvtiefqqNgNDS7rCxsiRo7gdejV9DX03hlsTTTjutWyD0YyJWlx+Xb3JDHkp7rgN/y7aoDvRR46AQSfVje9fHYYg4B/lVH5eDknMc5Dhjyws5Fkk+8YlPdCcUOKPiclrG2lfyQ41UG33IeWmv4RwTsLXmnMOGOgx9ziH8DhL37C+S5OfD+LIhDhcr9ckPUfc1qgN2xZGd4ZyrQ4RhKs6pWNExOcf2Knec0f3qV7/a3S7t7mSYRyFn3F7F73ASQz+mxrmd45zC4LChEQaVO7bd2e/WvkaxzjqfQ/EXYeAvnOOKEleW5vU5MCf88D8/OcL3+6Jyzo3D9qqu4HWcY3s1To61tKNRrPCNY2lpjzjnYo3yTX2oU2mPsGFXddh6O2JeDMwiNZfxost1BIyWEmHjt3wWbRKFPPfcc91BhL99Idbocqa6RExuFvF2xKiunCFQslLOcbZ2ka6OZmGH5014t9xyS/d51v2LGlAjJfQh56XUcA6cY98yMSvnHDbEYehzjrNZXHnk7NmiCWeATz/99O5/Fyv14aBfSlQH7IojiBtniHNK5oVzLtYxOQcG1YYvXmG91r9ZWCMcn7jLgIlFXxaZc+r4MzXnFAZ8jcU5ZGe/W/sCLhdrzXwOf0MYaOeNg/zW5qIJd1yw35Az8qBinXfOsX8rf/hx+Bzn2F6NjzhfQ5wrj0lIxDl8zYqB+lCnUqI6YFd5W+gXc1BYfhmdS52LKLwtsXxeiVhdfrCrApMb9YWU66AKH9WBPm4HJOcKAzZHPoch4hyXbVWflXKON93N61syh4QFJA/AExM5KqWMtS/UwB3w6KP81XCOA7Fa+GdsqnZjc85hQxyGPufOOOOM7mr0Igr7O88QchKHOFWs1Iczc6VEdcA+NudcHSIMU3FOxYqMyTkwqNxxJYkTcYsqPG/LG4n7ssicU8efqTmnMOBrLM6x7c5+t/YFXC7WWedzCP6GMNx7773dfqMW+4sgxx57bHcFHFGxzjvn+Jkfte/hR9UVvI5zbD9U71KGOKcW/hHnhnivcFMfxb+oDthVHRZ6EXbZZZdtfdPgIgrPAPFgKZc2sxBrVES1Y5Cbtgjbxrmbb755Ln8zZKXCPsAv7nOrgJJ+rKVQg2hyog4CNZxbjS+KWTnnsCEOA7GinC3bd999u7eqLqrw2mNuX0VUrIs8IZ6KcypWZEzOgUHljhMA7rffFkF4o2N5F8oic04df+Z9QhxhULlj20VfhPHD9Yt4FSwLj0jwCA15U3WYd87xYg6ehyqlhnNsPzbn2iJsWZyvCOQsOy2J4dfRb7/99mXLYgq3zPFlloVYoyKqHQO7WoQhNXWgj6ur22nB5XZahyHiHDutEjA7bHn897znPenKK6/s/l9U4YuGK6VOorpGkxN1EKjhnPuiQCJsY3LOYUMchhz/N7/5za1XGxdVuCVs//33t3kbc0KM1HJOybxwzsU6JufwU7bxPB/P9anJzKIIz+MwmezfcbDInFP1xteUnFNt+BqDc1lqvludL3C5WMdchCE5D9zlwjNGiyrEztyVK3pKaJ9nznHRwO3jDp/jHNuPzbmxFmGI60N9VFtUB+wq1xsIKAfFl1z+vBJle4CU9sgX26s2wBMYyv/9ttIfcscdd3T31rokLYrwPABvOyOOXECXO5dvSMeO4fLG374ddXVA3ThofpCztLO96+MwRLHmh65Lu8PGthCclxbwTJU6+C+ScKsSb9Dkig1xlbG6vFEbcqfaaurg8g3nOLCuJeeiPg4DNoQrpZdffnn3/yILJxzyiah+nNSF+rAf9O3oUB1c3lyfReac6oOOybkSA5LfMLjowg9M83IbZFfkHLFMyTnVz2HLbbNgYFvGUX3cOGyrfKFuHPK10vlcX/HnMCBXX3119zbRRRf2/4997GPd/2Ws8845tMSGOgyMPSXneF6rbIv8DWEocTPOmMe5rYuwqLNTBz63KftQAle6CPvsZz+7sM9z9IUzovwAK4soJtuzkoVcuUUYypeVKvwQWVRd8c/OhM9yLPpE/mbFwJku1cdhQ7mq8aUvfal7A9GiCzXldjleB0tc/TgdR6gJdmqkuODq4PyhKt/4dhNidJ45h+KLK0iLfBUiy6mnnprOPPPM7v9+jOQqf1GUeaupwzxzDl+rwTnay7GwRf5WggHheb5d4SQAJ4ve+c53dv/z/TUV56j3FJyLJsSLxLm+1ny3RuOrNmKoWYQ5DPThe5DHT/iOX3Tht824ilx+t5OrteBc2YbN+ePqGcfi0u4wgHcqznFH2JicU/nG95jHuYV9JuzEE0/sXvW56EJsBx544NYfv8wLMSWZDKWQm/ZM2NK2nGHid+N2BeHB96985SvLn7ZJrqsSahDdpkPOS6nhHAcUDnalZGyqdmNzzmFDHAaEZwaZBLvxFkngBw96K6E+fImUEtUBu+LIznBO1WFeOKdiRcbkHBj6ueM77rWvfW33e4CLLps2bepuq8y3hy0y59TxYGrOKQz42lnOZWHbmu9W5QsBl4t1lvlcFvwpDAgT/0MPPTTdddddy5bFFRY/vBmVWpQy75zjR+XV7aA1nGP7sTkHT0qJODfEe4Wb+lCnUqI6YFd1WMhFGP55ngMy7ArCsz+8ZAQh1qiIascgN20RtrQtt2d9//vf7/5fdDn33HM7LSXXVQk1iCYn6iBQw7lFXoSxUIcnu4LwdsT3v//9shbY2iIs5pyKFRmTc2Do544XMsE/9SrlRRPiZTJ5zz33dJ8XmXPq+NMWYcN1cLGOvQhjwc8Ja/f8+6LJhz70oa0/RdOXeeccxy+1eKzhHNuPzbm2CNsiUQIjkCvdadkZd9ttNzn2TsvvXkw333hD+u737k9bKfjKy+muW25ODz6/Ol+avJiD3ztDiDUqotoxyM16W4QpfJxdYnLDLZ7jyytp4x03phu+e2t6sYD10s9+nn61ClTkWR/O/JUS7V/UIJqcqINADefmfRGmDpBZ3vve96YLL7xw+dO4svmxu9INN9yYHvtRnoj+Pj314K3pxpvuTb/U34M7LQcffLD8OYZFnhBPxTkVK1LDuRJD//9+7ng99Yc//OHlTyPLi5vTzTfckG7+3lPLhiy/TC+89EL67Y4p2mnhrhSe1UEWmXPq+DPvE+IIg8od2877IkxhQ7773e92PxK+KvLbn6U7tsz7brzjoa3zvp/+YFO69aYt3/k33J1+9PPxv+DPOeec9LnPfW750zaZd86xyFF9ajjH9mNzri3CtkiUwAjkSnfau+++e1VeQf67H92bzjh0n/SOI45K7973LemEM65OP9+Sszs+f1R6y+57pHcceWx67EVN5p0RzoYcccQR3f/kLiqi2jHIzXpahCG8mYvfeeLAnOXRRx/tFi3qALZT8rsX0pc+fFj6m/2PSEcdvmd693vOSo/9dAu2V36Zbr7s1PR/vu2Y9OSvdsS6s8IZJ/Xwfq6rEmoQTU7UQQDbrJxbjS+KWTnnsCH44nk6nlnpC7iOPPLIHexjyF1fPjO9fY8D01FHfSAdsNeh6daHfpgev/lrae93Hpred+Ae6fAzr0g/G58m3QuKvve97y1/2ibUpy3CYs6pWJEazpUYeObwqquu2iE3n/nMZ7aedBtTfrbptnTC3nuldx91VNr/ze9KH77wpvSbZTi3XPzu9C8O+OCq8I+r9UwoER6Kb4uwes4pDPhaKeey4Efljm3neRFGG3n4xje+sQOPePyEq0ejy0sPp1OOeEc6+D1Hpfcc/Pb0vvMvTz//za/Tp095bdr9wCO3HM/PSw9s1nh3RnivAS+2KWXeOefsNZxj+7E51xZhWyQCH4Fc6U7LMx1MpMaV36dvfeL4dNCR+WHpZ9IpR34ybXz0vvT+Nx2eHtlS18vOOT4d++VHl9vHExaV/cm2yhvi7ORHEQ9RRd8ZceOMLSu5VYdnYf7gD/6g++FGbofhuTqucqidY2fkies/k/b8mw+npcPi79PnTjorXXXPy+npjZenw3b70/Sv9j4+PbnjvGOnhasb3Oozq0xVIzXZWg2pjYcro//yX/7L9KpXvap7EDoLvOEYMqb87sf3pUN2OyBd/+TSPnr/lZ9Np150R3px8/PpBej402vTn//NB9JT+tC3U8LbVb/1rW8tf9om1Gfs/d/JFJzj+DfvnCuF/fef/bN/1l15zd9t3H6uJl87J6+ky05+Y3r3xcsnF17amD76kY+kTVvS9duXn0nH7vnv0j877JhVWYRxK32+bZpjr/ueGlsa5+pEzbFWQ5jnuQn7kHDF63/5X/6XbqGS83LJJZd0J17Hld+n2z91RDroQ/nOiGfThccek+57+P508QmHp83L1tUQfkZHLSrnfRH2zDPPdCdbSsGPWkOAt3YRpvqsxiJMxRphqF2EqVg3MACaE5g/r0TZHvCujcBLez+BfTtCArnCgfTb+tgQfuxu9Ns5fv9SOuaEN6Wzv1+cXfvB7enN7zk/cQfsd04/L53ysTuW7CMKZ+y5pYjYOeCzY5CLvkJ6iEwb/2eFDM8++2x6/PHHuzckMvHMym15Tz/9dPeXs7Io22LjVe788jn/o9ziiQ3lCgxteRseIOcqE8oZd57F439wo/zg7f33379V+f2LvvIgLQtNpVwFZAL57W9/ezv92te+1l3luummm7q/+f/vfOc73dllbunhi//v/b2/lzZs2JD++//+v0//+l//6+7gnXkyllx2/t7pwMtvW/60TX7+yy079TM3pD3e/6H04I7HpJ0W6s4blPg5hpx/aoGy4Ox/5n/qRm2oEf/nPnk7+lCrsl9u62+b/8cfNcZftvM/debZu7wdmn3Slv/Pdv4ydh937odmbH17/v/OO+/scJQYsGUulv3wB3dZlMOP/+q/+q/Sm9/85u7WX17K4X6jpVY233pmeu1JH0nqMP+bzXekvf76T9M+Z12dVmENlk455ZR00UUXbZcH8sN+d999923NS7ZTz3690dwv17vMZ85p/j+35TrABf7P2+e/mQt9P/n/PoZsRzOGvj/+J5Y+57I/1HGuH2u2ZcXe3x/yX8aq5Vz2l7f/4he/2PEP/b/+r/+rex7xhBNO2PoM8GjyytPppNfvn254rGTYy+m2T12SPnvBCemtZxybXthxDrDTcu2116ZjjjmmywGcoxbEnvPC/6oO+W+ud/6clc/04W+/Ldeh5FzepuRc7sf/GUOpGUP2h/J/5lx/nPy3z7lsR7MfTqL17WjJkdzO9hy3FYbMudIXn5U/FJuKlTbGKX2hbM/4fVv2R1vuk238z/Zg6/fJyonRjRs3bhcPWmLr+8MXcxm+4//23/7bW/cbjm+nn35693dc+Wk6cc8j0wXXbf8IwytPX5/++p/8P+lv9t8/HXnqhenHev6+U8J+ww/uZ8nzFuaA+c6mPAdGmU8z8Vfz6mj+jp320o4wp8wLkL6dOTra3z63wfv8yEe/zWEAL+Mo3Gw/5hqCOTTzJqTf5rAhLlZUYUCYd+eTM3072KJxVKwLeTsiE/Czzz57+dNI8vufpuNOeEs6+3vFA4ebb0tvPuy89KMt/3779HPTSWeOvwjbvHlz97YsfriZZ5pYSPAAalYWaFz54wF8lP9Rfi+DSSavZOeWpAMOOKB79Tb9mWiyLe3c6sj/nDHHzva8Vpi/vAadv4zB2/jYnls9wcFnXoCCb34gke3e9ra3pT333LPrB1625S+3AXI1j7E5+4uyHUoftsdXqTlGcPUVf0cffXSnHKjyX2IgHv5i+2//2/926yTn7//9v9+NP7ZcccE704FfLBdhSzsWi7Dd33tCemjp3MGown4CL3j+kdxTA5R6kN/8ua/YyXdpz31yLcs26lTa0VzL0p7r2seFRr6GcCtsmXOqn8OW29gX3vSmN23lB/qP/tE/Sq9//eu7s3ljyg9uPye97sTT5SIs/f7ltOmB29N79z8wXfPI+GeheSbnj/7oj7p9up8DrhBTi7JGQ3mLOKLa6OM45/rkttKOOnxs7zgXxRO1KWzorJzLGPr+OBaBmav1mX//w//wP6TXvOY13e1Wo8orz6ST3/jO9J3HtmfgM3ddlc678Ir09N2fT687/oj0fL4/cUThqvIf//EfdzFnzuUcZHV5y22qDtgcf+ijOIe6PtlfaUcdPrYnptIe+WI//I//8T92V+DLfdLFitZwriZWxlF9nK/cpuwOG/sob81Ey7YIWx6fOcA/+Af/YOt+w8nWP/mTP+lOoo0rP0sf3vsDWxZh21/z+tWz96WzP/HF9NiTT6Sz3rd3Ov7z2x57GEs4Ac08hvlyX+b9Shgn8vPFkr7khU4p4G23Iy6No+qwkIswfuB4/Aebf5+++8mT0gHvvnj58w/SR4/6cLrtnrvTCXscnx7/5W/TJWcek078+hPL7eMJZ4be/va3d2dfOcvAGST+ZuXsEGfV8pkj/u8rNs7s969mcXWL14jy9jT+5qtjXC1jh8DG2Qz+x8ZVNUjF6p7/ITL/YyP3KHXjahpt5Q5KzRVZEXcAiMQdAPrCFTQO0P/iX/yL7gFXFucsTh2OWnn65kvTnm8+Jj2/TPXLTj8xfe6ax5c+bPpO2u3dx6UHV2ERxgGShQQ7PLnPdaAmHATz575SG+qq2ti3qGlpx0ZbaUfzQa20Mz586uNCM7Y+b7Jyi2k0Du2lvc+5ss1hQ7EjnEiAI//wH/7DjhvsS9g4Qzum/P6lh9Phb9wnff2BpQPzI9ddlE4582vp2ae27JPdeZ0X0wmvf3X62iqs1omLFyOwz/RzwD7OvlzWaKgOiiO1nHNcmBfOqVjRGs7R1sfAdx3HpLz4YmIJ/z7+8Y93z4WNK79LV52xezrw3OXF3S8eTkd/5Lh0/oUfTW/cbcvk9o3/b/r//p//On3y5h1f4LKz8uUvf7m7rQr+UR+OV/28oIvAOXX8Yf8hptIecY488HtW3G5W7pMuVpR4FAb6OM5FvFe5Y1vGUX1q66Byyj7K3ILvsLKNMSJ/5Izvdq6E/Tf/zX/TnYTkaiS39I6/36R01+eOSvseffbyadWX0rkfOjJ97a5H03PLT0Tc8IkD08mfu3bpw4hSXgnLQr7neRHm7PhhrFLA2xZhu9gijNvSuPoyuvz0kXTeBw5Ibznw0HTIu/ZOx33ua4n3cGy88kPpTa/fLe199Enp6Z+PO8FHuN1sZ180wkFXiSLQkKiaZuFLSfmkRopgiNtpI865nRbuYAcHOfvIRz6ydWdgggMvXC7q5cV0zdlHpt33fFc69JC907s/el564EfLMT1zY9rzyJPTI6uwCGMSzRVEJa5GOTdKorq62mFXdaCmal9Fasap5ZyyZ+F2xH/1r/5VxxNOVmThai+3tY4tD377wrT337yju4p74JaF0fWPPps23XFd2nPPfdOh+741HXb81eklHf5OCWdT1Ys5qI871kb1dtI457Ehyh9XUbgqwLEpyyc+8YlVeCYspV9uvjedvv870v5b+Lfv37wvnX7pLYkbZn73ym/S83eel3Y78ai0GlfCOAHGwhJhArSonFNSyzluEeZkcSlDnFMyK+eyuDY1wUdq6+D6sdhClUS4mRNwUporxjfeeOOyNXU/bs6P048uv9iUzjnugLTP/oemQw8+OJ1w7vXpkcc2phNPeM+WY/n+6a1/8+F077M7Trh3VrhVWV1MmPdFGPMr1Qebms+Bty3CdrFFGF9o3D63OvJyuu+eu9PdD/aueP3+t+nR++9LT7+oSbmzwu0c+VXk5C4qotoxyM16ejsi/Rir5ApXBDnbvFq/I/LEQ/eku+++r5vYbJVXtuT+pz9flVc/c789t3qUkuuqhLxQIyX0UQcBbLNybjW+KGblnMOGEBP54/mCUnh+hSsUqyEvbn60e9bxuZe24Xrh6QfS3fc8lMb/Gl8SbutVz7hRHzUJiuqAXXFkZzinuDAvnFOxIjWcKzHgg7sSSuHH5LmFdFXkly+me7fwb+NDxc90vPLL9OIvfp5voh5Vzj///O5lIwgLiUXlnDr+1HAOYXKtbjkd4pzCMAvnsuBH5Y5to+9WNX6OVQm4XE5XOp/rC2Nx5VH9IDNXXDl2r478Oj3EvO+Bp7buI7958Zktx/J70vMv6fh2Vj796U93J5FLmfdFGPMs7p4qpYZzbD8259oibItECYxArnSn5RY7nn9yJFk04WFtzmYjxBoVUcVMbtbb74QpARv3u/eveiyyXH/99d1tLaVE+xc1iCYn6iBQw7l5X4S5/CCcTf3CF76w/Gmxhf2e5064FbkU6tMWYTHnVKxILecUhjJ33Gq1ar8TtgbC20a/8pWvdP8vMufU8actwobr4HJaswjDn8sPdy/w/PiuIsz58smLvsz7IoyTm9ylU0oN59h+bM4t3CKMQVAccvDMn1eibE8/16bsbK/6kFgmFCj/l+3ZXy4A99KO/VzHWsnHPvax7lI7xY7qoPJNLiAeZ4+ivJXq6oCqcVDGYufjcjT/99uG/Ck727s2xlH+Imzkj4N0/7fDFln47R1ey4uU8aq8kQNqQ+7K+qA1dVD5xjec42zYonEO4c106l78RRS+EHkhDsfN/CWIUhfqw7MXKm+z1LvfVtrw3Ti3pCuJlS/h/NZOarPoQkz5SizH312Nc8QyK+cQfgeO5zTzRC6rGgdlrNXiXKmMo/w5bLlN2R028rWS+Vypzh/HNl4IwX4D/kUX4uE7iJdz9DlSyzmXN9TVtYZzbDfrPo59Ks6xqByLc6jqg+8xj3Mb+FJAIQUb5M8rURwAqLRHvnJyVBtBcTtDaadP3x+k5RaIPEFddOFLLN82lSdS/fizYqfopZ3iQr7SnuvA37ItqgN9VF1RzmiofuBS2FCHIeIJJFd9GNtxDuFWHx7gXXSB45wpu+22pbcylrG6vJEfaqTaXF3x57iAXdWVAzcHu9Kesanajc05hw11GBBej8yzdmyz6MJEjysR8AXtx0p9OCvYt6FRHbCrvOW6lnaUPhHnnL8Iw1ScU33QMTkHhpy7XCOeXeXV3YsuvFSKiTHfQcS2yJxTx58aziFcCeNnVpB+m+uDEo/iFth2hnN9Zdua71blCwWXyylzOeZ0pd1hQ/GnMMAtcHBnCAuXRRdyw3cQJ5bK4/bUx7lZOYevEjNawzm2H5Nz8I2clvaIc0O8V7ipD3Uq7VEdsCtfC3k7IsLtD7vC2WzeVMQXMl9iCLG6/GCnyKWQG0hRSq4Df0uJ6kAfVVeExZ7CgE3ZEYch4hwHB9Un4hxy++23d6/uX3ThzBGv6+XnC0rJdVVCDaiREvqQ81JqOMfBaexbJmblnMOGOAzYiJcXJvAbQIsu/HYOzxYoWeRbw6binIoVGZNzYChzx8KZB/MXXbi1kp8/ybLInFPHnxrOIe12xPrbERWGLNw1dMEFFyx/Wlzhmbf+ftOXqY9zs3KOu67cPj4r59h+bM61Z8K2SJTACOQsOy1Xjt761rfaNwotilxxxRXp5JNPXv40/EWhdgxy0xZhS5Nrdg5uzxr7d6CmFn6skt9LUTnA5vJGDaLJCTkqpYZzi7oIy/Efd9xx3Y99L7IQC8+DcXubEurTFmEx51SsyJicA0OZO477PNe86MJ3V34eDFlkzqnjT1uEDdfB5XTMRVjG++1vf3tVfgt0ajnjjDPs6/bnfRHGi/HULaE1nGP7sTnXFmFbJEpgBHLWnZY3TOVL/osqXM3rv4aVWKMiqh2D3LRF2La3SnI//plnntn9v6jC2zIvvfTS5U/bS66rEmoQTU7UQaCGc4u+COM3+cixw7MIwotb+FF1J4s8IZ6KcypWZEzOgaHMHce3N7/5zemRRx5ZtiyecKKLHz7v12SROaeOP20RNlwHl9OxF2G00ZefHOGW8kUVbpnju8ft+/O+COMCiNr3ajjH9mNzri3CtkiUwAjkrDstL2BYld8Lm0h43uctb3nLdoXh/6iIascgN20Rto1z/GaSu4q0CMItqrxgxE0y+rGWQg1cP/r0uZalhnOLvAhjHPrxRcjr5BdVwJ9PQqlYF3lCPBXnVKzImJwDg8rdeeed1z3DuqjCW325otyXReYcGEtpi7DhOricjr0Iy324gsSPgy+qgJ+7dRDFhXlfhIHPYVB1Zdu2CFsaR9VhoRdhbMuP+i3qWRG+wD772c8uf1oSYo2KqHYMctMWYdtzjvutb7311uVPiyW8FRFFVA7KWPtCDaLJiToI1HBuNb4oZuWcw4Y4DH3O8Zr6Rf0y5xZETjTklyCoWBd5QjwV51SsyJicA4PKHS+14NlEVaN5F+Lkdsry95wWmXPq+FPDOaQtwlZvEcZP0HDyWtVlEYQfb+e2SmQszuHH1YE+Y3LOjYMfVVfwtkXY0jiqDhtIDsrbS7jPM39eibI9D+m5NmVne9UGGfj9L5T/+20OGwd73pJ40EEHLYezOMKrpd/4xjd2l6QpaI4pqoPL9w9+8IP09NNP75A3NKpDVDvVhn9+j0j5HPKn7FGsjEN7aXfYcht/2RG/9KUvdbxQO9A8CzHsscce3UsjyLfKAeryhp3cOS4of7Wc43akteSc65PblD3Hil/w81yp+qHjeRdePsNzBbyhScWa4+Oqalkjcubyg31szpU2dFbO4Xs1OKdixf+YnFP5ZgxuS+LlO+q3guZdeCsnZ/N5JrsfU+Pc0vcPPyrMi1f6+UHp42IlHsUtha3fpuxRvhlH2ccch3zNOp9D8TeEgYkxx7/TTjttmY2LI9dee2134SDHVMZay7mhvI3FOTBx8kjhY3uHb0rO8TKzEtvOcq6v+CZ+6jRLDrCrOmx9RT2rSxY1+fNKlJVgXt31ldWg88X29FNtHLDQ0u6w5ZXqnnvuKc86zbNwpSY/0NyPiVhdfrATb2knNxSztOc68Ldsi+pAH1VXFBIpDNiUHXUYIs5BZtVnpZyDG0wSFu12nyOOOKJ7AxSy0lj7Sg2okWqjDzkv7TWcY/LPAai0Z2yqdmNzzmFDHYY+5xC+FHmuKn9eBOE2Zo55OZcuVuqTr5T1NaoDdsWRneGcq0OEYSrOqVjRMTkHBpU7jlF33HFHd9KF8RZFODbvtttu6Z577uk+92NaZM6p408N51CeS+ZW4dJOn4hzCsOYnGPbnf1u7Su4XE5nnc+h+Isw8Jf9hvkOHOQlEYsi4OdFSvmk35icw4+rA33G5Nz999/fnWgp7fhRdQWv4xzbR/Uu7egQ59zPIjh/rg5RvqkPdSrtUR2wqzos9O2IWXhN7l577SWxzKNwcOZsiBJidfnBThFLITftdsQdOffoo4+mN7zhDfI17/MoN910U3rNa16ztZazxJqFGlAjJfQh56XUcI4Dyti3TMzKOYcNcRgU57hi+uUvf3n503wL+Ll60n+Zj4uV+vAlUkpUB+yKIzvDOVeHCMNUnFOxImNyDgwud4zP3RxHH330smX+hVt4+b0mJYvMOXX8qeEc0m5HXJ3bEfu4+WmO973vfcuf5l84udrfz8fkHH5cHegzJudYgKlb/vCj6gpexzm2j+qtZIhzC3c74vLfEKSTIfBKIpA1O20en8vT/Ve9z6tAYG5DvOGGG5Yt2wuxRkVUOwa5aYswzTlu2eJtSvMu8J6rG7xsJsussSLUIJqcqINADed2pUUYt35yVpVbeuddPvGJT3Q/jtsXF+siT4in4pyKFRmTc2BwuePMLTXi+T5OJs67cOUOrOBWssicU8eftggbroPLac18Dn8Rhj5uPnMy+7LLLlu2zK9s3Lixm/dxG1uWMTmHH1cH+ozJObU9gl3VFbxtEbY0jqrDwi/CMlEgEw85X3LJJd3neRS+nHigNL+MQxUEW1REtWOQm7YI05xjWyatvMlrXgWM3DrJBLsvs8aKUINocjIW53alRRjCFzmTS24xmFfhCvruu+/e7Rt9cbEu8oR4Ks6pWJExOQcGl7tcS177zCRtnn9AHIy8Vp+3zyIq1kXmnDr+tEXYcB1cTld7EYbwfNLrXve6dPPNNy9b5k+4E+dVr3rVDhjH5Bx+XB3oMybnOAGjxsKPqit42yJsaRxVh11iEZbJAtnf9KY3bXc1YZ6EtyFycEbIgyoItqiIascgN7viIkxJDefYYd72trfN7S1nH/3oR+VLRGpipQbR5GQszu1qizDk1FNPTUceeaTst9bCcwRMgHkzWCkuVurTFmEx51SsyJicA4PLXf8499WvfrX73a1nn3122TI/An74l4+h5EHFusicU8cffM3KOaR2EabawDYW59h2zO9WcLmcTrEIQ77//e93JzA4STBvwkm9fffdN11wwQXLlm0yJufw4+pAnzE5x8vk1DOsjnOI4xzbj825qRZhyl9UB+wq1xtoQHHIwTN/XonypUg/1eZ8sT39SjuJJTAWEznJWSNs+Mr+EG6X+Ou//usdXp271nLKKaekd73rXV2RiI94VO5cftB+rFnxBenYKcq8obPWAXXY8M8DlrSXYylsWSMMro03ySgMjKHsqPOF8BD5X/zFX3QH7HkSXhzCLRX5YdI+7lljzbyiRo4Lyh82VztVV3xzsOPA6sYpbWg0jsOG/yk4h2/2oYMPPrj7AfV5Erj76le/On3nO9/pPpfYXTzUB16VeRuqt6oD6sbBHnGutKFDGMo2fO9qnEP7xznkc5/7XPfGznlaiPGdxe8Wnn766d1nsKp4yNUic67EgO8aziG8mIM3SDKB67fRR8WK/7XgXF9nrQPqsBEDcznmdGU8EbZZMeAb5XuUkwTztN/wfc6cL594L7GrWIllLY5zZVtUV16GwmM1JT5XV+yOcw5bblP2CNtUnKM+1EmNo7ChbpwNHGDz6o2N8ueVaHZa2gHmfLG96gNhucyJ8n+/baX+8irz61//evdChmuuuab7vJbCmRCugPElRkERsBIPOe/HgkaxunwzBqRQeWNM/vbtKGMrX6jDhjJRVfj6dSiV7R0GF2v+gi3tDluUN7ZHWIBxoL788su7z2stTGp4Diw/i1TiJp+zxoqdGrk2ldMhf45z+Sxa346vReUck0cO4NwayttL+X+thTchciy77rrrus8rzTfbUR9O0PTtaJSDxrklXYvjXD7jyos6uO1UXfWcWp566qnuNl0WFeQdjC7fi845hYFYZuUckt+OiPTb3Dgo8Shujck5th3zu9VhI1+18zmHwXGO4zT/X3TRRd1+Mw8nWpmP8WP6/R8z7+NGXb5rOIefiCNqHLSGc3xPqvoxhrKDdyrOwYUpODfmcW6Xuh2xL9xbzw65lr/Bwo7ID/N94AMf2CFPxENcpWBz+cGuYsVXeyYs5lzG9thjj3ULH65MrpWwk3L7IbzgIOikJlbipEZK6DMW54hBLVIyNlW7sTnnsCEOwxDnEHzyGzRcoeSM31oJvzPEAqz/KnAlLlbqw5dIKVEdsKtxdoZzrg4Rhqk453I6JufA4HLnjnNXXHFFV/v8/NVaCGe8uc2Lq3OluFgXmXPq+FPDOaQ9Ezbd7YjUJ2PghWfc0qtyP5Ww3/Dsf37GW2FGxuQcflwd6DMm59T2CHZVV/A6zrG98pdjVTLEORZHpUScc3WI8k19qFMp+HHYsKs67LKLMIRnxLgczCt1+WG1KeXKK6/sHsZU9wIjxKMKgi0qoooVX20RtnLOMUng97h41ffUZ5tvvfXW7vm0fIsCEtV71lipQTQ5GYtzu+oirN+Hl/xw5TSf0Z5KuHWDs6gsAvPtNcTp8uNipT5tERZzTsWKjMk5MLjcueMcwrGCE4lM5lztV0s4AfDa17526y2wpbhYF5lzKsdtETZcB5fTKRdhfc7xO1Z8t5977rmSi6spXMX+q7/6q61vOgXvFJzDjxuHPmNyjhOTqq74UXUFb1uELY2j6rBLL8IQEnXmmWd2E5ovfOELMqFjCr8Mzm9B8OXJWRmHjXhUQbBFRVT+8NUWYbNxju353Q5+PJH7ydVBb0zhl9yPPfbYbgHWv002qkNNrNQgmpyMxbnV+KJQsSKOcw4b4jDMyrlbbrmlqxlXLXkT12oLt1Jz7OA2lv6xkDhdflys5eQkyxDnFEdyXZUMcc7VIcIwFedUrMiYnAODy507zuUxmPDABU4GTPHCqeuvv767FZcfMOcBfCcu1kXmnNq/ajiHtEXY2i3CEHLJPIw7kb75zW8uW1dPWPgdcsgh3a27/D5plqk4hx83Dn3G5Byxqosa+FF1BW9bhC2No+qwSy/C+n34QuGBe25F4yqVWrTsjHCbG7cw4Z9njnKyoy8KVRBsURFVrPhqi7A6zrE44v59zvpy2w33Lo8pXMngXnVukeCMdsnvCFtNrNRgCs6tl0UYwvbcHrbHHnukY445ptvXxxQmEFxt23///bur9vn2w74Qp8uPi1VNTpAhzimO5LoqGeKcq0OEYSrOqViRMTkHBpe7lR7neCaQ54r5DuMKmZoA1Arj8/rs/fbbr/ux+P6rtNcT51SsNZxD2iJsbRdhWXimlpctcWzlpLjbrlbuvvvu7jdqOZnLCbRSpuIcftw49BmTc1xoUPjwo+oK3rYIWxpH1WFVFmHZlwIfgZx1p8U/vqIDVBk0VyH43SheG8qBcmd+l4UisKDjixF/PH/Wn8SDK/qiUAUZKqKKFV+zLsIiItNH1RVxkxNsyo64WF1dkVm/KLKvWTmX/THx4EoVB2x+hZ+3bNYK/m688cbuwMxPJpxzzjndK8aVOGy5dirW3KaEGkzBuZovCvy4cVysiOOcw5YxjMW5jIvn9z7ykY+kAw44oJuwcruiOhCvVDhjys8TcMs0V9qYMCgBk4sVcfl2k5OpOedy6rjgYl0NzimOIGNyjlhd7mY5zjEu3zf8HiaTSk4aMSGqFW7F5vYpfpaBO0X4Yfs+X1ysiMv3InNOYZiVc/nzFIswhwHBj8od24753Qoul9Mx53O0OQwR5xDG41jNlSqO22edddZO/TA/c62LL764myfwXfClL33JntQHg8uPy/fUxzmFYSV1KHHgx9V11kXYznBulkUY/rHXcE5997t6Z18q1g00oDiEyPnzSpTt6efalJ3tUYD27SQBIucvv35bhC1qK+39RLP4OuGEE7oHKLlkzeSKHfX222/v2vjNCYgDHq5m8IXFr55/+9vf7nZA7jnmzDgLML4M88EmJ5v4eJsXz3eUsaJj5Y7/GTu/faa/PVqbN4WNsYiHuEoM9JnVX4SBcVQf5yu3KTvbo33MaOZc/wDKwZnJCJyAG9wKxBUsbkt76KGHuokzl+LZCbmKxiSIy/Pc8nDeeeelww8/PO21115becE2CG8U4q09Zd6iHMwaK/6m5ByLkrXkXI2/qM8Q5/LBmM/cwsqJFzjCJPbss8/uTvBwZhSecMyg3nDlmWee6WxwiB+FPvHEE7sro+9+97vTxz/+8e1+TkONj0a4lZ26UJ954Fxpy+raGB8tcbMPrTfO9W35Cxwcd955ZzeZzAsyfuOOM/F8f8E1jmMcozi2wUVupYVnHKfYlmcOuerFpJQra1nyZCVjiGItbZlz1GmMvOW20oa/eeYcwt0VX/nKV7bOB7K6WBlrHjnXb1N2tkf7mFHyxdwJ/pW5i7Bhj9pK20o415/4wnWeB+f2Xq4s80gCiyj2pwceeKCb54EZn+w3zAPzfsM8gOM9J1ePP/747nf9+vtkH1fWKFaVO/6f9+McixzV5vpgn5pzZRvbO3/Yo7bSthLO9bfPil3FuoGDBAqZMOTPK1G2B5BrU3a2ByzStyNM7AgM6bc5bEj2V7ah9OFLpW9D+HLipR0IBGQife2113ZvzOPsBvfD8/Y6vqg404GN/7lKwn3GXPHigeXyzWnlOGBjIYf021CwEVdp758BKJU48dn3h1DYvJDob48v2socoFG9HTYEkpf1Q7DNUgc0wkDeVB+2X03OZWF7Ji4cfJk0c8sBCyt4ADc4gDOJ5qoqVzJo54AOj8hRKXAOriH98cGmcCNgULE6juQ+uxrniKesH4IN7W+fFX+zYlgp5/rCFzVXOXkInMUYfIAXcILjRb7KBV/48j/55JO7Z1OZDOS8Ivh12BC2VVxAVaxILedm4UjukzlftjsuOH8o/nJusg3hS2y9cq6vOTcIcXPS8NJLL+14xqKK7y94x7EKzXzkxCG/QfbpT3+6m1jSty/9MRDGcRhUrAico05I344flQOEfO4qnMvClbB8e1q/nfEjzikMY3KObWs45/LG9mBD+naE79X+yemsDhuCvwiDyvdKOdcXcsAjKlxZZsHMsTnvN1wx48QGz0ZyDOcnSzgZ+9nPfra7usl4fcH3WnIOjY4x2MfiHPLEE090/ZB+26JyLtehbEPpU+JGxjzO7fLPhIGlFAjBWQ8leSx2As5gs0Bj1ZvPGCiJYlUTcoQ+jFUKNpefTJZSMt5Sch1UDqI60EfVFSEehaGmDlFdqZHqMxXnkHJ8/LOTc5aZ54LgBPlwvOgLVyTyTtuXCFtNrNRgCs7xZVB+GSEZm6pdFCt9VKyI45zDhjgMY3IOKfPJdvCBK6BcNeVkD/jzQj+Lwh1hY3uHwcXa/6LoS1QH7Iojua5KwBZxztUhwqDysxqcU7EiY3IODC53Yx7nEPrBP+6M4LuLYxX/Y+N5wz/6oz9a3nJJIn/rjXMq1hrOIe2ZsPr5XIRB4a7hnKoBtWaux3c7+w15wncfD9socdim4lwUK33G5Bxz5/ZijvZijq1CQRxZXAKxK5KDTcWDKD/IUKzRF4UqCLaoiCpWfLVF2HSci8TF2hZh43POYUMchqk4F0ntcc7lx8VKfdoiLOacihUZk3NgcLkb+zjn4uH74Z//83+eNmzYkD7zmc8sWxvnsrh813AOaYuw+V6EYXd1cDLPnItipc+YnIM/Lt+qruB1nGN7NX6OVckQ59oibItECYxA1u60jiwugU6GElgTa7TTqoJgizCoWPHVFmHzzbm2CBufcw4b4jBMxTlwuVhrOefy42Idc3IyFGvEOVeHCIOqa1uE1XOO51lYgKH/5t/8m60xNM4tict3W4TVc27M41zGoHA3zu3ccU5hwJfjnNoewa5yB962CPOcW5eLMMZX4wwlsCbWaKdVBcEWYVCx4qstwuabc20RNj7nHDbEYZiKc+BysdZyzuXHxbrIkxNV17YIq+Mct03/j//j/5j+zt/5O+nv/t2/u93VsMa5JXH5bouwOs4hYx7nMgaFu3Fu545zCgO+HOeYa6oc4UfZwdsWYZ5zG+iUO+I0f16Jsn1OYl9JkvPF9qoP4Jioovzfb6vxRx92TP727SSUe+R5o105TpQD7LlYfXXYctG5x7gcB3X+ZsWAb+73h+RqHJUDFD8qb6jDhn/iob0cy9UBZXuHwcWa3/ZY2h02VwfUYSOGKTiHbw52HBzKcaIczBorvsEVca7Ehs6KAd9wjpjUOI1zq8M5h2G9c87lAMVPxBEVK/6Jh37lWNgif7PGOgXneGHQq1/96u5twLyYgxcO8NMZTCT4Poz8OQxrzTnsU3COWGblHMLLHvjtP6TfpsZB8b8rcY4YdrXjHPZ55Rx+Io6oWPE/K+fYjmfCeCkdx45+m4sVvFNxjmPaonFuA0YUIAyYP69E2T477mvki+1VHwJlhY3yf7+txl/ukxOcFd8Qjzfj9O0oftw4NbFi5yykayuxoUP+FAZW/5nkfbvLAeryhrpx0PyCktI+5G/WWBlH9XHYIl8O25ScY5HMyxn6dhQ/bpyaWKnNVJxjP2qcm40jU3KO+tRwTuUgwrbInFN90DE5x/Yu1tXkHHkiBt7gyYSJV2rzY+MIr97mO4PtVuova8ZQ4t4VOUcss3IOYRF29dVXd3nvt7k+KPEofK4OqPPn8s22q8m5rOSrHedif9hVrDWcc3lDXR90Vs6BiRdO0a/Ex/bKF2NPyTkWYmVbjb/cp8Q9NufW5e2I2FSfCFttrKyYldCHuErBFmFQuPEF+UrJ2FQOoljpo2JFiEdhqKlDVNcxb5mIYp2Kc5ydYScsJcJWEyu4puAcB5uxb5lQsSKOcw4b4jBMxTlwuVhrOefy42KlPjWcUxwZijXinKtDhEHVdTU4p2JFxuQcGFzupuIcwu9WcZtcXxrnlsTlu4ZzSLsdsd2OiEzFuShW+ozJORajqg82lTvwOs6xvfKVY1UyxDmuUJUScc7VIco39aFOpeDHYcOu6tBezNGToQTWxBrttKog2CIMKlZ8tUXYfHOuLcLG55zDhjgMU3EOXC7WWs65/LhYF3lyouraFmH1nCNOfmCcWxL70ji3JC7fbRFWz7kxj3MZg8LdOLdzxzmFAV+Oc24c/Kjcgbctwjzn1uUijDH4HZ9ShhJYE2u006qCYIswqFjx1RZh8825tggbn3MOG+IwTMU5cLlYaznn8uNiXeTJiaprW4TVc45+F1xwQfejs31pnFsSl++2CKvn3JjHuYxB4W6c27njnMKAL8c5fj+X+Uwp+FG5A29bhHnOrctFGPdz8mKOUoYSWBNrtNOqgmCLMKhY8dUWYfPNubYIG59zDhviMEzFOXC5WGs55/LjYl3kyYmqa1uE1XOOOC+++OJ0xhlnLFuWpHFuSVy+2yKsnnNjHucyBoW7cW7njnMKA74c55g7tx9rXoVFGOI6OyEZCiDifLG9Ky7JUwlEnD+CVglEXB92WB4ULCXCVhurWhwhUa4jDCpWfKmdFomwuXHo42IlHkWkmjogrs0d7Grr4GKdinM8xKl22ghbTazUZgrOcXBSZ8OQmjrQx8XqOOewIVGsrm1MzoHLxVrLuVkxUJ8azjlx4ywy55yMyTkwuLapOIevz33uc+njH//4smWbRP5mxbDInFOx1nAOOfnkk9M111yz/GmbRH2IR2EA2yJyrh3nliTCoGKd+jinMODLcW7z5s2yrvhxYznOsb0aH3G+hjjHM2tKnD9XB8T1oT7UqZSoDs6+AcAoK0gm8vnzShQg9CvtJML5Ynv6qTauUKGlPcLG5BZVbfTJRekrizASWNojbLWx8ipP1UYf5W8Ig4oVX5yZKO0Zm8pBNI7DhhKPwlBTB8agrbSjeUcv7bV1cLFOxTkW/RyISnuErSZWcE3BOQ7ea805hw2NMLjcjck5cLlYaznn8uNipT7zwDlXhwiDqmvjXD3nUF5Vf9ppp3UTi2yLsOHP5cfFusicUxhqOMfcgmfvrrrqqm5x0G+jj8sp8ag2sI3FObZdxONcxqBwN87F49BHjYPWcI7tmUMru8odeB3nHLYca2lHhzjHVbfS7rChrg5RvqkPdSrt+HHY3DgbaEAZDPD580oU4gNEtTlfbE+/0k5iCQzNSc4aYcNfDQbV5rChtbHyemDVRh/iKu3YZsWAL55xK/OW20obGsVKHzUO/olH9WN71Qd1GKK6Mo7KT20dFOapOIdvDkIcIMpxHDa0Jlb6kLtyHJQ+Y3GOWIjJjVPa0ChW+qhx8O8457ChDsMQ55S9ZhwXK/HMO+cUR1CHjT4R50obOivn8L0anFOx4n9MzrG9a5uKc+gpp5zS3SbHwiC3Nc4tKfYyVnzXcI4JKs/efelLX+omcP02+rhYiUflW2HL6jCwvWubinPtODffxzm0hnPUVLVhc/gc59jejTNrrOQLbJzwLnMXcS6KVfXB95ic2+52RHe5zEl06dj5Ynt3mTOvDJU4f1wiVreNIK4PgT/22GPLn7ZJhK02VoqiJMp1hMHdIkNxlUTY3Dj0cbESj8JQUwfEtUFYJbV1cLFOxTnOgLjL11G9Z40VXFNwjrPp7EdKaupAHxer45zDhkSxurYxOQcuF2st52bFQH1qOOckwraonHMyJufA4Nqm4hy+zjnnnHTuuecuW7ZJ5G9WDIvMORVrDecQbke89tprlz9tk6gP8SgMYFtEzrXj3JJEGFSsUx/nFAZ8Oc4xd1Ycwo8by3GO7dX4iPM1xDn1fCDi/Lk6IK4P9aFOpUR1cPZ1+WIOCPHQQw8tf9omEbbaWB356KNIji3CoGLFlzo4ZGwqB1Gs9FGxIsSjMNTUIaorZyBUn9o6uFin4hw7rTo4RNhqYgXXFJzjbLpa+GdsKgdRrPRRsSKOcw4b4jBMxTlwuVhrOefy42KlPjWcUxwZijXinKtDhEHVdTU4p2JFxuQcGFzupuIcvs4777z0mc98ZtmyJI1zS+LyXcM5pL2YY9zjXMagcDfOxbHSZ0zOPfzww90PvZeCH5U78DrOsb0aP8eqZIhzXH0uJeKcq0OUb+pDnUqJ6oBd1WFdLsIYX40zlMCaWKOdVhUEW4RBxYqvtgibb861Rdj4nHPYEIdhKs6By8VayzmXHxfrIk9OVF3bIqyec/jiKhhvSOxL49ySuHy3RVg958Y8zmUMCnfjXBwrfcbkHHNNlSP8KDt42yLMc25dLsKcDCWwJtZop1UFwRZhULHiqy3C5ptzbRE2PuccNsRhmIpz4HKx1nLO5cfFusiTE1XXtgir5xxxnnTSSenCCy9ctixJ49ySuHy3RVg958Y8zmUMCnfj3M4d5xQGfDnOqe0R7Cp34G2LMM+5DRhROuM0f16JApCEqDbni+3pV9oJlIfcUP7vt0XYCCwH19ecQGXnvlEeqivHcdjQWWPFN7gy+cp2+hBXaccWYShjxTe+2JnUOM5XFCv+VKz4Jx4wlGO5OqCudlFdqY/Kz6x1QF2sxDAV59hp4V05TlSHWWPFN7im4Bxfevl+8n4b6nxFsYJNxYp/xzmFLaur3VScA5eKlRhqOefy48ahPjWcUzlAFTZ8gy3iXGlD54VzKlb8j8k5MLi2qTjHGCeeeOLWRVhuwx75W0+cK2PFdw3nEBZhX//617v/+21gU7Hif1fj3JjHOdSN0zi388e5sg1fyk4fXnzBQqfEBwaVB8Z2nGN7V2+X0yHOsRArsTG286fq0G8rbfimPtRJ5cDVAbvKwQYaUADiNH9eibK96xPZVRvgCYzFRA4ka4TNtWFnx+Rv345vXst57733bi1m1mgc7KUv1PXBN+ND2HIcdFZ/qOqDb4jHPbpl3lCVA3TWcVDGyjtgGRN9ZvUXYeAtN6qP85XbnF21kS/4NivnnD/6OM5xEMoPc/bbhsZRsbo++J6Sc8TUOOfHV22Nc0s6KwZ8O86x7WpwDp9lTPSZ1V+EYSrOYT/11FPTZZdd1i0McluEDbuLZ605x/FgCs4Ry6ycQ7jq+JWvfKWbpPXbHDbG2tU4xzGOOZ3KXeTPxdM4t3rHubKNPsofmO67777ubYcrrSv2qTk3Fhem4NwueztixsDfUkjek08+ufxpm0TYamOFFEroQ1ylYIswqFjxBfFKiXIQxUofFSuSJ4+luDogDkNU13zGqZTaOrhYp+QcO2EpEbaaWME1Bec4mIx9y4SKFXGcc9gQh2EqzoHLxVrLuQiDwr3It+mouq4G51SsyJicA4PL3VScwxdXZ6688sply5I0zi2Jy3cN55B2O2I7ziFTcS6KlT5jcu6JJ56QecCPyh14HefYXo2fY1UyxDkWy6VEnHN1iPJNfahTKVEdsKs6tGfCejKUwJpYo51WFQRbhEHFiq+2CJtvzrVF2Picc9gQh2EqzoHLxVrLOZcfF+siT05UXdsirJ5zxHnEEUekyy+/fNmyJI1zS+Ly3RZh9Zwb8ziXMSjcjXM7d5xTGPA1BefYXo2fY1UyxLm2CNsiUQIjkLU77axkcTKUwJpYo51WFQRbhEHFiq+2CJtvzrVF2Picc9gQh2EqzoHLxVrLOZcfF+siT05UXdsirJ5z+DryyCPT1VdfvWxZksa5JXH5bouwes6NeZzLGBTuxrk4VvrMK+fYXo2fY1UyxLm2CNsiUQIjkLU77axkYUK8adOm5U/bZCiBNbFGO60qCLYIg4oVX20RNv+ca4uwcTnnsCEOw1ScA5eLtZZzLj8u1kWenKi6tkVYPedoO+6449J3vvOdZcuSNM4tict3W4TVc27M41zGoHA3zu3ccU5hwJfjHI/yqPkmflTuwNsWYZ5z63IRxkN1DzzwwPKnbTKUwJpYo51WFQRbhEHFiq+2CJtvzrVF2Picc9gQh2EqzoHLxVrLOZcfF+siT05UXdsirJ5ztB177LHp29/+9rJlSRrnlsTluy3C6jk35nEuY1C4G+d27jinMODLcY65My/aKAU/KnfgbYswz7kNDIDmBObPK1G2JyGlnYEAyN+yrZ/Avh0hgbwBC+m3Rdjwhao2+pQYEN54wkKstIPNjRPFqvpkf5APKdvpQ1ylfShWfPb9IeQ6L8L62w/VIYpVYUPYacv6IVEdwDBrrORN4WZ7V4d55hw7LbxD+vahOrhYVR8EXLsa54inrB/i6pAxzBrrVJyDb7sa5/LkpGx3+anhHBOtxrk6ztF2yCGHpOuuu677nNtWg3N5Qty3D9XBxar6IOCaV84hvB0xv6K+38b4EecUBleHCIOLlW2nPM7lRVi/rXFuSfGn6j31cU5hiOrA28VnqSt455lz2F2stJUYkDE5t6pXwvhbCtvnBJZC8nIC+xJhIyhUicPgJMI2FKsSts87bSn0Ia5SsEUYVKz4yjttX2rrQB8VK0I8CsNQHVystClhp1W4h+owa6xTca5dCRufcw4bEsXqcjcm58DlYp2Kc/0vir5MzTmFbV44pziCjMk5MLjcTcU5fB144IHp2muvXbYsSePckjgMNZxDprwSNgvnwLuIx7kIQ+NcHCt9xuSc2h7BrnIHXsc5tlf+oliHOFdzJayGc9SplKgO2FWs6/J2RLZXhapJ4FCs0U6rdgxsEQYVK77mfRGmMER1rf2iUBLFOhXn2iJsfM45bIjDMBXnwOVireWcy4+LtXZyojgyFGvEOVeHCIOq6yIswhwGl7upOIevQw89NH33u99dtixJ49ySuHwvwiJMYcCPyh3bLuJxLmNQuBvn4ljpMybnwKbGwo/KHXhrF2FKhjjXngnbIlECI5C1O60ji0sgxHv44YeXP22ToQTWxBrttKog2CIMKlZ8tUXYfHOuLcLG55zDhjgMU3EOXC7WWs65/LhYF3lyouraFmH1nKONRdj3v//9ZcuSNM4tict3W4TVc27M41zGoHA3zu3ccU5hwJfjHHPnF154YfnTNsGPyh142yLMc27dLsIeeeSR5U/bZCiBNbFGO60qCLYIg4oVX20RNt+ca4uw8TnnsCEOw1ScA5eLtZZzLj8u1kWenKi6tkVYPefw9fa3vz3dfvvty5YlaZxbEpfvtgir59yYx7mMQeFunItjpc+YnGuLsLYI204oiCOLSyD+FIahBNbEGu20qiAOG4JdxYqvtgibb861Rdj4nHPYEIdhKs6By8VayzmXHxfrIk9OVF3bIqyec/jac88902233bZsWZLGuSVx+W6LsHrOjXmcyxgU7sa5OFb6jMk5aqr6YFO5A29bhHnObSCgHBRO8+eVKNsDsrRHvthetQGOwFD+77cN+VMYUHZM+pZ2/JPY0u6wobPGSjGwc8aA/8t22hS2KFaFAd+Qjrc9lnlDXQ5qYmUs4sFnGRPbqz5oTayMo/o4bJEvF+tUnMM3B7t88Oq3OWzorLHiG/tUnOPAupacc31y26yx7mqcoz41nFM5cNjwjX0tOYevWs6pPoxFPLSXMSls/bZZMUzFOez77LNPuvfee7f77hvy52Jda84x/hScI5ZZOYfwdsSvfvWr3f/9NoeNsXY1zo15nKNP49x8HOfwpXLgMLD9lJzjhHeJL/IXYZiCcxswonTOA65UM3jV5nxlkKUdMCSQKzr832+LsOFL+UNdH8Z59tlnd7A7bOissRIDdshXxoPSpvwNYSjb8J0XYW6c0oZG4zhs+Cce2suxFLasEQbX9sMf/lBiYAxlR2eNlRjg22pzDt/stLw+VY3jfM0aK76xT8G5/EXhxiltaDSOw4b/ReScw0YMtZybBQO+54VzpQ0dwlC24btxbkmdL4eNGOiz3377pYceeqhbhOW2CNusGBhnkTlXYsB3DecQFmFXX331drlG6aNixf+ueJxjrlXGE2GbFQO+G+ficeijYsV/5lzZhi/nj7kztS3tjKF8YXecc9hym7I7bMQzJeeokxrH5c2Nsyq3IyLOF9vTTwlBoaVE2EgCqsT1IYH333//8qdtEmGriRXc0eVr2kvBFmFQsWKHfEpq6kAfF6u7fF1Th6iu1EhJTR2iWKfi3Ji3IyJRrFNwjgMKBzslNXWgj4u15pYJh2EqzoHLxVrLuVkxUJ8azimOIG4c/EWcUzIvnHOxjsk5/Li2qThH21577ZUeffTRZcuSNM4tics3vmblHFJ7O6JqA9sicq4d56bjXBQrfcbk3Kw/1ow4zrG9ygHifA1xbqzbERHXh/qotqgO2FWu1+UzYYzBar6UoQTWxBrttKog2CIMKlZ8qUVYxqZyEMVKHxUrQjwKQ00dorqy06o+tXVwsU7FufZM2Picc9gQh2EqzoHLxVrLOZcfF+uYk5OhWCPOuTpEGFRdV4NzKlZkTM6BweVuKs7R9rrXva6bQPWlcW5JXL5rOIe0Z8LGPc5lDAp349zOHecUBnw5zj399NPdfKYU/Kjcgddxju3V+DlWJUOcG2sRFuWb+lCnUqI6YFd1WJeLMCdDCayJNdppVUGwRRhUrPhqi7D55lxbhI3POYcNcRim4hy4XKy1nHP5cbEu8uRE1bUtwuo5R9ub3vSm9OSTTy5blqRxbklcvtsirJ5zYx7nMgaFu3Fu545zCgO+HOfcOPhRuQNvW4R5zq3btyMq3EMJrIk12mlVQbBFGFSs+GqLsPnmXFuEjc85hw1xGKbiHLhcrLWcc/lxsS7y5ETVtS3C6jmH/W1ve1v3bEZfGueWBLuKtS3C6jk35nEuY1C4G+d27jinMODLce7ll1+WfbCp3IG3LcI857YuwhCXdCcMqAAizhfbq4ARiosqcf4IyhHM9eEhzieeeGL50zaJsNXG6p7VinIdYVCx4kvttEiEzY1DHxcr8SgMNXVAXJs72NXWwcU6Fec4OLgDVFTvWWMF1xSc44CibklAaupAHxer45zDhkSxurYxOQcuF2st52bFQH1qOOckwraonHMyJufA4Nqm4hx93vrWt3YP4pcS+VtPnFOx1nAOOfnkk9O11167/GmbRH2IR2EA2yJyrh3nliTCoGKd+jinMODLcY65s8oDftxYjnNsr8ZHnK8hzqkFOeL8uTogrg/1oU6lRHVw9g0sSFCckqj8eSXK9kz+XZuys71qY5LKWTqU//ttETbIgKo2N84zzzyT7rnnnh3aHDaUMWpife6552QbfYirtEexYlexcpZh8+bNO+QNjbBFeVOx4p94VD9skT9lj2LlmT2VH4cttyk726u2KTn3/PPPd2+wLMdx2FDss8YKLmpUjoPSZ1finMOW25R9iHPK7rDlNmUHl2ojnlrOzYIB39SnhnOKI7lN2cEWca60obNyDt+rwTkVK/7H5FyU76k4RzyvfvWru9sROVOc2xrnlhR7GSu+azjHJPC4445LV1xxRTcp7LfRx8VKPCrf9FlEzrXj3HScw0/EkbE4B6aNGzemp556aqZ8T8k5TjSV2FaDc9RplhxgV3XYwAE5H5QBkz+vRDPw0g4w54vt6afaSB5a2iNsBIWqNvqApbSzPQks7RG22lgplmqjj/I3hEHFii8m+aU9Y1M5iMZx2FDiURhq6sAYtJV2NB/sSnttHVysU3GOtwmxE5b2CFtNrOCagnPEQkylPWNTOYjGcdhQxzmHDY0wuNyNyTlwuVhrOefy42KdF865OkQYVF0b5+o4x0KAcV772temTZs2dZ9zW4QNfy4/LtZF5pzCUMM5blM6/vjj05VXXtktyPpt9HE5JR7VBraxOMe2i3icyxgU7sa5eBz6qHHQGs6Bjfb+cQTFj8odeB3nHLYca2lHhzjHgry0O2yoq0OU7zE5N1e3I2ZQSqJLk+6y6azxDF1KrImVIiqJsEUYVKz4osBKImxuHPq4WIlHYaitg2uD4Epq6+BinYpz7HzqHuIIW02s4JqCc+12xCVxvsDlYq3l3KwYqE8N55xE2BaVc07G5BwYXNtUnCOed7zjHbJOkb/1xDkV687cjnjNNdcsf9omUR/iURjAtoica8e5JYkwqFjn/XZEZ8ePG8txju3V+IjzNcQ5FodKnD9XB8T1oT6j3Y64/LcLTN1XGwkglGOAOF9sr8AjrDjRUiJsJMklij4qudgVySNstbE68tFHkRlbhEHFii91cMjYVA6iWOmjYkWIR2GoqUNUV65Uqj61dXCxTsU5+Fbz8PCssYJrCs7xpacW/hmbykEUK31UrIjjnMOGOAxTcQ5cLtZazrn8uFipz6I+sK7quhqcU7EiY3IODC53U3GO23Te/va371Cnxrklcfmu4RzSXswx7nEuY1C4G+d27jinMODLcQ7+qEUvflTuwOs4x/Zq/ByrkiHOqYV/xDlXhyjf1MflwGHDruqwLhdhEKL8vRRkKIE1sUY7rSoItgiDihVfbRE235xri7DxOeewIQ7DVJwDl4u1lnMuPy7WRZ6cqLpOPTlRGBw2JMLgcjcV5/htn912222H74nGuSVx+a7hHNIWYW0RhkzFuShW+ozJuVl/rBm8jnNsr8bPsSoZ4lxbhG2RKIERyNqd1pHFJZAJsXo74lACa2KNdlpVEGwRBhUrvtoibP451xZh43LOYUMchqk4By4Xay3nXH5crIs8OVF1bYuwes6xCNtzzz13uAOkcW5JXL7bIqyec2Me5zIGhbtxbueOcwoDvhznHn/8cZkH/KjcgbctwjznNmBECQyn+fNKFIDZcV8B4nyxPf1UG18QaGmPsOFPYUDpA5bSjj+FIcJWGysPCao2+oCjtDtsqMPAAQiSl/aMTeUgipU+ahyUeFQ/tnd9ojq43DGO6lNbBxfrVJxjkczBobRH2Gpipc8UnOO+aw7EpT1jUzmIYqWPy6njnMOGOgzriXPUp4ZziiNRrPSJOOfqEGFQsa4G51Ss6JicY3uXuyk4xySCt5kddNBBO/CucW5JsatYaziHsAj72te+1v3fb6NPxDmFwWFDHQa2V7lj2yk4h455nMsYFO7GuThW+ozJOXKt2rCp3IHXcY7tla8ca2lH2d7FCt94/r60R5xzsUb5pj7UqbRH2LCrOmygAWUwJvP580qU7enn2pSd7VUfwDFRRTNx+zqrP9T1IVFqDPyMNQ5jUCTuxc+F6St9ZsWt+uCb1T9vhRkzb6qNsYiHuMqYhvwpO9u7NsZR/hy23KbsDttUnMM3ByEODipvY42D7yHOlbasrg17iQHfcI6YGudmi7VxbrgNe4kB341z29qU3WFjEcYtRLyYg8kDk4p++6z+UNVnV+QcsczKOeSkk05KV1999daz6VnVOChj7UqcI1/tOBe3YS8x4LuGc0PxqDbGquFcZFf4sE/FOY5vi8a5dXk7ImPwuwWlRNhqY4UUSuhDXKVgizCoWPEF8UrJ2FQOoljpo2JFiEdhqKlDVNcxb5mIYp2Kc5yhYecsJcJWEyu4puAcB5Oxb5lQsSKOcw4b4jBMxTlwuVhrOefy42Jd5Nt0VF1Xg3MqVmRMzoHB5W4qzt1///1pjz326CZcfWmcWxKX7xrOIe12xHGPcxmDwt04t3PHOYUBX45z3NrMfKYU/Kjcgddxju3V+DlWJUOc40pdKRHnXB2ifFMf6lRKVAfsqg7rchHGKpYvpVKGElgTa7TTqoJgizCoWPHVFmHzzbm2CBufcw4b4jBMxTlwuVhrOefy42Jd5MmJqmtbhNVzLl8Ja4swj0HF2hZh9Zwb8ziXMSjcjXM7d5xTGPDlOMfcub2Yoy3CtgoFcWRxCeSLyJEoSmBNrNFOqwqCLcKgYsVXW4TNN+faImx8zjlsiMMwFefA5WKt5ZzLj4t1kScnqq5tEVbPOSZOhx9++A4Th8a5JXH5ruEc0hZhbRGGTMW5KFb6jMk5fuBZ1RU/KnfgbYswz7l1uQhzMpTAmlijnVYVBFuEQcWKr7YIm2/OtUXY+Jxz2BCHYSrOgcvFWss5lx8X6yJPTlRdp56cKAwOGxJhcLmbinNcCXvPe96zw8ShcW5JXL5rOIe0RVhbhCFTcS6KlT5jck5tj2BXuQNvW4R5zq3LRZjzN5TAmlijnVYVBFuEQcWKr7YIm2/OtUXY+Jxz2BCHYSrOgcvFWss5lx8X6yJPTlRdp56cKAwOGxJhcLmbinN33XVX93bEsh1/rg/ju/y4Phzn1OQEPy5v2FUOkAib+s5DXB/GiDCoWMk1MSlx4yBtEdaOcwhjRBhUrPO+CKOmqg82lTvwLuIiDKGPwk19RluE0YAyGE7z55Uo29NPtbFTKHseJycyK+AJjANrDiRrhA171Fba8M2bBB988MHtMPD/0DguVtUHf+Qgv7WwbHf+VoKhxA3peM6tzBs6VAfV5rAxFvHgs8RAH+eP7WeNlXFUH4cNnWfOcRDibTpl3obGcbGqPvibknPE1Dg3O+fg23rh3M5wocTNF2zj3OycQ26++ea07777ygnFmMKt/tRnClET/LGFWNSkbkhOOeWU9JWvfKX7v18LV9ed4ZyyrzXnyBvHOL5fy/01woY9aitt+OaYABfKvA2N42JVffBHDtb7cQ5MDz30UHr++edXXFfsU3OubHPYUOxRW2kbm3MbcJiTyUb580o0D+baAFXa2R4gpZ0VImecSCD/99sibM4fqjDgG0KwCJtlnJy80o5/1Qff9GFxVI6D0mcWfyj+yljxzRcfpCjHyb5cHdw4Dhv+iYf2ciyFLavzF2HIB7vS7nzlNherwkYMU3GOM07stLOMwxgq1lzX0o5v7FNxjpjKcbIvVwc3jsOG/0XknMNGDPBtPXFO5cf5Q1Xu8M1kuHHO59RhQ773ve+lv/zLv0wf+tCH0mmnndYtErKefPLJ233u210bV3pKG36PP/74boxTTz11u7bI11BbacM34x933HE7jIPO6i/byzZ886r5E044QY6jcoCeccYZ6c/+7M/Stdde2+W+XwtX18w56reanIM3Ux7n+H4t43HYclsUa4kB3xwTODbMMg5jqFjxr/rgG/vYx7kSA76nPs6pfGNTdvqwCOOdCiU+hwG888w55w9VGPA9JufW5e2IbK/ObkXYamOlWEroQ1ylYIswqFjxxRmAUjI2lYMoVvqoWBHiURhq6hDVlUWl6lNbBxfrVJzjwMCZnVIibDWxgmsKznGg4YBXSsamchDFSh8VK+I457AhDsNUnAOXi7WWcy4/LlbqU8M5xZGhWCPOuTpEGFRdV4NzKlZkTM6BweVuKs7xOz2XXHJJ+uQnP5kuvPDCTi+66KL0qU99Kp1//vnb2fLfCy64oNue/7Pm7XKfvp2/55xzTjrvvPO2s6H4wV+29duwgyPb+9ofJ9v4H39nn332dra8DX3wl+15G2yM1bflbXKspR1fxNS35f9VDrL94osvllwd4pyq+ZicY9tFPM5lDAr3Ih/nVKxTH+cUBnw5zoFNjYUflTvwOs6xvRo/x6pkiHNqbh9xztUhyjc5oE6lRHXArurQXszRk6EE1sQa7bSqINgiDCpWfLVF2Hxzri3Cxuecw4Y4DFNxDlwu1lrOufy4WBd5cqLq2hZh9ZwrX02/K4ir3TzLEOdUzcfkHNu2RdhSrKoOQ7GOfZxTsc77Ikxtj2BXuQNvW4R5zq3LRRg7LJdhSxlKYE2s0U6rCoItwqBixVdbhM0359oibHzOOWyIwzAV58DlYq3lnMuPi3WRJyeqrm0R1jiXBWxjc07FOu8T4giDyh3btkVY41yWGs5xK6K7k0zlDrxtEeY5ty4XYRCCV/aWMpTAmlijnVYVBFuEQcWKr7YIm2/OtUXY+Jxz2BCHYSrOgcvFWss5lx8X6yJPTlRd2yKscS4L2MbmnIq1LcLmg3MZg8LdODct55g7c3tzKfhRuQOv4xzbq/FzrEqGOLdwizAGQHMC8+eVKNuTkNKeAy7taE5gaUf6O22/bcifwoCSJPqWdibETz311A72KAfYaS/tDhsCrrzTlu3O3xCGMlaEOPMirN+GuhwwjqoD6rAhxJNJ1m+L6oA/h8HFyk6r+jhsrg4ouNaSc0j/i6LfNlTvWWJFwBVxTuV0CEMZK0Kc+Yui34ZOxTlsrg41sc475xQGdL1zDv+rwTkwIP22xrklXWvOEefYnCsxIMTSOLf2nKNP49x8cO7JJ5/s+pV2Fyt4p+IcbwOelXP4chim4NwGGlAGw2n+vBJle9Un8uX6kFgWEpkU/bYaf/ThPnj+lm1Oh8ZRvlwfCsv4nDHg/7J9Vn+o6oNviJffPtNvQ10OZh0HZSzi4UxDGRN9ZvUXYeCSt+pT4wu7aiNf8G21OYdvbn9l8V/mbWic0hfq+uB7Ss4RU+OcH1+17QznHIb1zjm2XQ3O4bOMiT6z+oswNM7NHiu+OR5MwTliaZyL41FtmXPM6RrnVo4B32vBubKNPpE/ZXcYsE/NubG4MAXnNuTVWLSCcwoAAJX2mlUsypcsWtojbPhy/uhTrmIjjbDVxsoZANVGH7UqxhZhUG0UFvKV9oxN5SCKlT4qVpR4VD+HDXUYorpCctWHMWrq4LBNxTnOnLBDl/YIW02s9JmCcxxQONiV9oxN5SCKlT4qVnQRORdhq+Wcy4+LlfrUcE5xZCjWiHOuDhEG1bYanFOxomNyDgwud41zS+PMA+dUrFNzTmHAV+TPYVC5Y9tF5FzGoHA3zk3LOeabDoPKHds6zrG9Gj/HWtrRCBt840pYaV8NzlGn0h7VAbuqw7p8JowVLLcjlhJhq42VxZES+hBXKdgiDCpWfEGKUjI2lYMoVvqoWJF8NrWUmjpEdc0Hu1Jq6+BinZJz7LSlRNhqYgXXFJzjQJxvmehLxqZyEMVKHxUr4jjnsCEOw1ScA5eLtZZzLj8u1v4tE32J6oBdcWQo1ohzrg4RBlXX1eCcihUZk3NgcLlrnJsfzqlYp+acwoCvsTjHtovIuYxB4W6cm5ZzTzzxhJxv4kflDryOc2yvxs+xKhni3MI9E7b8NwTpZAi8kghk7U7ryOISCCHaizninVbFihCPwlBTh6iuY35RRLFOxbm2CBufcw4b4jBMxTlwuVhrOefy42Jd5MmJqmtbhDXOZQHb2JxTsbZF2HxwLmNQuBvnpuUcc2duLywFPyp34HWcY3s1fo5VyRDn2iJsi0QJjEDW7rSOLC6BJA9SlDKUwJpYo51WFQRbhEHFiq+2CJtvzrVF2Picc9gQh2EqzoHLxVrLOZcfF+siT05UXaeenCgMDhsSYXC5a5ybH86pWOd9QhxhULlj20XkXMagcDfOTcu5/BxZKfhRuQOv4xzbq/FzrEqGONcWYVskSmAEsnandWRxCXQylMCaWKOdVhUEW4RBxYqvtgibb861Rdj4nHPYEIdhKs6By8VayzmXHxfrIk9OVF3bIqxxLgvYxuacirUtwuaDcxmDwt04Ny3n1PYIdpU78LZFmOfcBowonXGaP69EAUhCVJvzxfb0K+0E2n+Qs98WYSOwHFypqk9OLMUq2xw2tDZWyKfa6ENcpR1bhEHFii92pjJvua20oVGs9FGx4p94FIZZ64BGdeVBTpWf2jqoWKfkHDttfni43xbVoSZWcOUDXtlGn7E4x5ceC383TmlDo1jpo2LFv+Ocw4Y6DEOcU/baOqhYiaeWc7NgwDf1qeGc4ggaYYs4V9rQWTmH79XgnIoV/2NyDgyurXFufjhXxorvqTiHEo/KN74a5zQGfDfOTce5nG98qnw7fI5zbK/Gz23KPsQ55vYltohzqg5ZVZ+cA+qkcuDqgF3VYQNFQEkS93nmzytRLkvyanTV5nyxPf1KO4uI5557rlP+77dF2PA3CwZ881KOe+65Z4c2hw2tjXXTpk2yjT7EVdqxzYoBX08//fQOecttpQ2NYqWPGgf/xKP6sb3qgzoMUV0ZR+Wntg4K85Sce+aZZ9Lzzz+/wzgOG1oTK33IXTkOSp+xOEcsxOTGKW1oFCt91Dj4d5xz2FCHYYhzyl4zjouVeOadc4ojqMNGn4hzpQ2dlXP4Xg3OqVjxPybn2N61Nc41zmUlHpVvhS1rhMG1Nc41zmWdlXNg2rhxY/dyDpVvh89xju3VOLlN2V2s4IFvmzdv3gFbxDkXK6r64HtMzq3L2xFZxT7yyCPLn7ZJhK02VoqkhD7EVQq2CIOKFV/EVErGpnIQxUofFStCPApDTR2iukJO1ae2Di7WqTjXbkccn3MOG+IwTMU5cLlYaznn8uNiXeTbdFRdV4NzKlZkTM6BweWucW5+OKdinZpzCgO+xuIc2y4i5zIGhbtxblrOMXdmMVEKflTuwOs4x/Zq/ByrkiHOtWfCtkiUwAhk7U7ryOISiD+FYSiBNbFGO60qiMOGYFex4qstwuabc20RNj7nHDbEYZiKc+BysdZyzuXHxbrIkxNV17YIa5zLAraxOadibYuw+eBcxqBwN85NyzkWOaoPNpU78LZFmOdcezFHT4YSWBNrtNOqgmCLMKhY8dUWYfPNubYIG59zDhviMEzFOXC5WGs55/LjYl3kyYmqa1uENc5lAdvYnFOxtkXYfHAuY1C4G+em5Zyz40flDrxtEeY5ty4XYRSJ+zlLGUpgTazRTqsKgi3CoGLFV1uEzTfn2iJsfM45bIjDMBXnwOVireWcy4+LdZEnJ6qubRHWOJcFbGNzTsXaFmHzwbmMQeFunJuWczx3xQswSsGPyh142yLMc25dLsK4n/X+++9f/rRNhhJYE2u006qCYIswqFjx1RZh8825tggbn3MOG+IwTMU5cLlYaznn8uNiXeTJiaprW4Q1zmUB29icU7G2Rdh8cC5jULgb56blHHNnXlhRCn5U7sDbFmGecxsYBMUhRM6fV6JsTz/Xpuxsr/qQWBYSKP+X7bP6Q1UfEgHxeFtL2YafMcfhtam8EYX/y3b6zOIv28s++IZ4vJVlzLypNsYiHuIqYxryp+xs79oYR/lz2HKbsjtsU3EO3yz8OXuk8jbWOPge4lxpy+rasJcY8A3niKlxbrZYG+eG27CXGPDdOLetTdkdtv9/e2eAmzAMQ9H7H7K9CtMbZKus/x2aZVmr2VIEuIn7bT8qwipWzPWP4Y8aiE0uxdz5XIu5/jH8UQOx/4K5eMzFYw2/xM2mKtaB+Uof/lXM8dke5s70yMVjqDWzmfv6P2EEZkJ7/c4gACKin92gi9VERz+7Tf5awOD58VimzcVrGniMxxhY9LlYjNFcaZY6xhryin58ZzXQ9PZNw9Gf1SDLlTXqPAzyUevwZfGUhqyvbCrVGleDXh+UtlHmXK6u3sTmwsA3NEc/I+vDSK6sWcEcF24ueMXcOUZ+wlymIeomNv0ZYU4x0ss1Y07V9CrMqVwZM5lDg6tdMfc8TzH3ZE5pIFYWz2lQtWNuMfc8TzE3xpya3/yqduh1zDFfxWu5Rj/DaWvMsTlawRx9OvoZxHF1w6/68G9/HVGtybSN5kqzlLEGHdHwZRqUbmLxIT9a06ZqkOXKGpUrRj5Kw2gfOKZs5i0TWa6rmOPiwGY5WqZtJFd0rWCOi9PsWyZUrphjzmnDnIZVzKHL5TrKnKuPy/XOt+movv4GcypXbCZzaHC1K+auw5zKdTVzSgOxZjHH3Dsy1zQo3cXcWubYfKg1+FTt0OuYY76K1XJV1mPudrcjvh5Tkc564pVlIkfftA4WV0A2LPu+v159W6+AI7lmb1rVEHyZBpUrsWoTdm3mahM2nzmnDXMaVjGHLpfrKHOuPi7XO384UX2tTVgx1wxts5lTudYm7BrMNQ1KdzG3lrlt2z4ZikYcVTv0OuaYr87fclXWY+5em7DH4wOfCZxKdEGojgAAAABJRU5ErkJggg==;" vertex="1" parent="1">
          <mxGeometry x="-100" y="1210" width="865" height="475" as="geometry" />
        </mxCell>
        <mxCell id="_8uUYV_uJvbB6x_7DmFW-23" value="" style="endArrow=classic;html=1;rounded=0;" edge="1" parent="1">
          <mxGeometry width="50" height="50" relative="1" as="geometry">
            <mxPoint x="490" y="1582" as="sourcePoint" />
            <mxPoint x="30" y="1582" as="targetPoint" />
            <Array as="points">
              <mxPoint x="490" y="1502" />
              <mxPoint x="30" y="1502" />
            </Array>
          </mxGeometry>
        </mxCell>
        <mxCell id="_8uUYV_uJvbB6x_7DmFW-24" value="loop k" style="text;html=1;align=center;verticalAlign=middle;resizable=0;points=[];autosize=1;strokeColor=none;fillColor=none;" vertex="1" parent="1">
          <mxGeometry x="200" y="1470" width="60" height="30" as="geometry" />
        </mxCell>
        <mxCell id="_8uUYV_uJvbB6x_7DmFW-25" value="add" style="text;html=1;align=center;verticalAlign=middle;whiteSpace=wrap;rounded=0;" vertex="1" parent="1">
          <mxGeometry x="380" y="1520" width="60" height="30" as="geometry" />
        </mxCell>
        <mxCell id="_8uUYV_uJvbB6x_7DmFW-26" value="mul" style="text;html=1;align=center;verticalAlign=middle;whiteSpace=wrap;rounded=0;" vertex="1" parent="1">
          <mxGeometry x="210" y="1520" width="60" height="30" as="geometry" />
        </mxCell>
        <mxCell id="_8uUYV_uJvbB6x_7DmFW-27" value="buffer" style="text;html=1;align=center;verticalAlign=middle;whiteSpace=wrap;rounded=0;" vertex="1" parent="1">
          <mxGeometry x="80" y="1520" width="60" height="30" as="geometry" />
        </mxCell>
      </root>
    </mxGraphModel>
  </diagram>
</mxfile>
